STARTFONT 2.1
FONT -FontForge-Source Sans Pro-Book-R-Normal-SansPro--24-240-72-72-P-117-ISO10646-1
SIZE 24 72 72
FONTBOUNDINGBOX 63 30 -11 -7
COMMENT "Generated by fontforge, http://fontforge.sourceforge.net"
COMMENT "Copyright 2010, 2012, 2014 Adobe Systems Incorporated (http://www.adobe.com/), with Reserved Font Name `Source'."
STARTPROPERTIES 40
FOUNDRY "FontForge"
FAMILY_NAME "Source Sans Pro"
WEIGHT_NAME "Book"
SLANT "R"
SETWIDTH_NAME "Normal"
ADD_STYLE_NAME "SansPro"
PIXEL_SIZE 24
POINT_SIZE 240
RESOLUTION_X 72
RESOLUTION_Y 72
SPACING "P"
AVERAGE_WIDTH 117
CHARSET_REGISTRY "ISO10646"
CHARSET_ENCODING "1"
FONTNAME_REGISTRY ""
CHARSET_COLLECTIONS "ISO8859-2 ISO8859-5 ISO8859-7 ISO8859-9 ISO8859-4 ISO10646-1"
FONT_NAME "SourceSansPro-Regular"
FACE_NAME "Source Sans Pro Regular"
COPYRIGHT "Copyright 2010, 2012, 2014 Adobe Systems Incorporated (http://www.adobe.com/), with Reserved Font Name `Source'."
FONT_VERSION "2.021;PS 2.000;hotconv 1.0.86;makeotf.lib2.5.63406"
FONT_ASCENT 18
FONT_DESCENT 6
UNDERLINE_POSITION -2
UNDERLINE_THICKNESS 2
X_HEIGHT 11
CAP_HEIGHT 15
RAW_ASCENT 750
RAW_DESCENT 250
NORM_SPACE 5
RELATIVE_WEIGHT 40
RELATIVE_SETWIDTH 50
SUPERSCRIPT_X 0
SUPERSCRIPT_Y 8
SUPERSCRIPT_SIZE 14
SUBSCRIPT_X 0
SUBSCRIPT_Y 1
SUBSCRIPT_SIZE 14
FIGURE_WIDTH 12
AVG_LOWERCASE_WIDTH 120
AVG_UPPERCASE_WIDTH 143
ENDPROPERTIES
CHARS 1896
STARTCHAR space
ENCODING 32
SWIDTH 200 0
DWIDTH 5 0
BBX 1 1 0 0
BITMAP
00
ENDCHAR
STARTCHAR exclam
ENCODING 33
SWIDTH 289 0
DWIDTH 7 0
BBX 3 16 2 0
BITMAP
C0
C0
40
40
40
40
40
40
40
40
40
00
00
E0
E0
E0
ENDCHAR
STARTCHAR quotedbl
ENCODING 34
SWIDTH 425 0
DWIDTH 10 0
BBX 6 6 2 10
BITMAP
CC
CC
CC
CC
CC
C4
ENDCHAR
STARTCHAR numbersign
ENCODING 35
SWIDTH 497 0
DWIDTH 12 0
BBX 10 15 1 0
BITMAP
1180
1180
1100
FFC0
FFC0
3100
2100
2300
FFC0
FFC0
2200
2200
6200
6200
6200
ENDCHAR
STARTCHAR dollar
ENCODING 36
SWIDTH 497 0
DWIDTH 12 0
BBX 9 19 1 -2
BITMAP
0C00
0C00
1E00
3F80
6180
6000
6000
7000
3C00
0F00
0380
0180
0180
8180
E180
7F80
1E00
0C00
0C00
ENDCHAR
STARTCHAR percent
ENCODING 37
SWIDTH 824 0
DWIDTH 20 0
BBX 18 16 1 0
BITMAP
380C00
440800
C61800
861000
862000
862000
864700
C6C980
4C98C0
3990C0
0110C0
0310C0
0210C0
0618C0
040980
080700
ENDCHAR
STARTCHAR ampersand
ENCODING 38
SWIDTH 609 0
DWIDTH 15 0
BBX 13 16 1 0
BITMAP
0E00
1F00
3180
3180
3100
3300
3600
1C18
3818
6C30
C630
C360
C1E0
E1E0
7FB8
3E18
ENDCHAR
STARTCHAR quotesingle
ENCODING 39
SWIDTH 249 0
DWIDTH 6 0
BBX 2 6 2 10
BITMAP
C0
C0
C0
C0
C0
C0
ENDCHAR
STARTCHAR parenleft
ENCODING 40
SWIDTH 303 0
DWIDTH 7 0
BBX 4 22 2 -4
BITMAP
10
30
20
60
60
40
C0
C0
C0
C0
C0
C0
C0
C0
C0
C0
40
60
60
20
30
10
ENDCHAR
STARTCHAR parenright
ENCODING 41
SWIDTH 303 0
DWIDTH 7 0
BBX 4 22 1 -4
BITMAP
80
C0
40
60
20
30
30
30
10
10
10
10
10
10
30
30
30
20
60
40
C0
80
ENDCHAR
STARTCHAR asterisk
ENCODING 42
SWIDTH 418 0
DWIDTH 10 0
BBX 8 7 1 10
BITMAP
18
18
7E
FF
3C
3C
66
ENDCHAR
STARTCHAR plus
ENCODING 43
SWIDTH 497 0
DWIDTH 12 0
BBX 10 12 1 2
BITMAP
0C00
0C00
0C00
0C00
0C00
FFC0
FFC0
0C00
0C00
0C00
0C00
0C00
ENDCHAR
STARTCHAR comma
ENCODING 44
SWIDTH 249 0
DWIDTH 6 0
BBX 4 7 1 -4
BITMAP
60
70
70
30
20
60
C0
ENDCHAR
STARTCHAR hyphen
ENCODING 45
SWIDTH 311 0
DWIDTH 7 0
BBX 6 2 1 5
BITMAP
FC
FC
ENDCHAR
STARTCHAR period
ENCODING 46
SWIDTH 249 0
DWIDTH 6 0
BBX 2 3 2 0
BITMAP
C0
C0
C0
ENDCHAR
STARTCHAR slash
ENCODING 47
SWIDTH 350 0
DWIDTH 8 0
BBX 8 21 0 -4
BITMAP
03
03
02
02
06
04
04
0C
0C
08
18
18
10
10
30
20
20
60
40
40
C0
ENDCHAR
STARTCHAR zero
ENCODING 48
SWIDTH 497 0
DWIDTH 12 0
BBX 10 15 1 0
BITMAP
1E00
3F00
7380
6180
C0C0
C0C0
C0C0
C0C0
C0C0
C0C0
C0C0
6180
7380
3F00
1E00
ENDCHAR
STARTCHAR one
ENCODING 49
SWIDTH 497 0
DWIDTH 12 0
BBX 9 15 2 0
BITMAP
1800
3800
7800
7800
1800
1800
1800
1800
1800
1800
1800
1800
1800
FF80
FF80
ENDCHAR
STARTCHAR two
ENCODING 50
SWIDTH 497 0
DWIDTH 12 0
BBX 10 15 1 0
BITMAP
3E00
7F00
E380
8180
0180
0180
0100
0300
0600
0400
0800
1000
2000
FFC0
FFC0
ENDCHAR
STARTCHAR three
ENCODING 51
SWIDTH 497 0
DWIDTH 12 0
BBX 10 15 1 0
BITMAP
3E00
7F00
E380
8180
0180
0380
1E00
1F00
0380
01C0
00C0
80C0
C180
7F80
3E00
ENDCHAR
STARTCHAR four
ENCODING 52
SWIDTH 497 0
DWIDTH 12 0
BBX 11 15 0 0
BITMAP
0180
0380
0780
0D80
0D80
1980
3180
7180
6180
FFE0
FFE0
0180
0180
0180
0180
ENDCHAR
STARTCHAR five
ENCODING 53
SWIDTH 497 0
DWIDTH 12 0
BBX 10 15 1 0
BITMAP
7F80
7F80
6000
6000
6000
7E00
7F80
6380
01C0
00C0
00C0
81C0
C380
7F00
3E00
ENDCHAR
STARTCHAR six
ENCODING 54
SWIDTH 497 0
DWIDTH 12 0
BBX 10 15 1 0
BITMAP
0F00
3F80
70C0
6000
4000
CF00
FF80
F1C0
C0C0
C0C0
C0C0
60C0
7180
3F80
1E00
ENDCHAR
STARTCHAR seven
ENCODING 55
SWIDTH 497 0
DWIDTH 12 0
BBX 10 15 1 0
BITMAP
FFC0
FFC0
01C0
0180
0300
0600
0600
0600
0C00
0C00
0C00
0C00
1C00
1800
1800
ENDCHAR
STARTCHAR eight
ENCODING 56
SWIDTH 497 0
DWIDTH 12 0
BBX 10 15 1 0
BITMAP
1E00
7F80
6180
6080
6080
6180
3B00
3E00
6380
C0C0
C0C0
C0C0
E1C0
7F80
3E00
ENDCHAR
STARTCHAR nine
ENCODING 57
SWIDTH 497 0
DWIDTH 12 0
BBX 10 15 1 0
BITMAP
3E00
7F00
E380
C180
C080
C0C0
E3C0
7EC0
3CC0
00C0
0180
0180
4300
FF00
3C00
ENDCHAR
STARTCHAR colon
ENCODING 58
SWIDTH 249 0
DWIDTH 6 0
BBX 2 12 2 0
BITMAP
C0
C0
C0
00
00
00
00
00
00
C0
C0
C0
ENDCHAR
STARTCHAR semicolon
ENCODING 59
SWIDTH 249 0
DWIDTH 6 0
BBX 4 16 1 -4
BITMAP
60
60
60
00
00
00
00
00
00
60
70
70
30
20
60
C0
ENDCHAR
STARTCHAR less
ENCODING 60
SWIDTH 497 0
DWIDTH 12 0
BBX 10 10 1 3
BITMAP
0040
03C0
0F00
7C00
E000
E000
7C00
0F00
03C0
0040
ENDCHAR
STARTCHAR equal
ENCODING 61
SWIDTH 497 0
DWIDTH 12 0
BBX 10 8 1 4
BITMAP
FFC0
FFC0
0000
0000
0000
0000
FFC0
FFC0
ENDCHAR
STARTCHAR greater
ENCODING 62
SWIDTH 497 0
DWIDTH 12 0
BBX 10 10 1 3
BITMAP
8000
F000
3C00
0F00
01C0
01C0
0F00
3C00
F000
8000
ENDCHAR
STARTCHAR question
ENCODING 63
SWIDTH 425 0
DWIDTH 10 0
BBX 8 17 1 0
BITMAP
3C
7E
C7
03
03
03
06
0C
0C
18
18
18
00
00
18
38
18
ENDCHAR
STARTCHAR at
ENCODING 64
SWIDTH 847 0
DWIDTH 20 0
BBX 18 20 1 -4
BITMAP
01F800
07FE00
0E0700
180180
300080
60E8C0
61F8C0
431840
C61840
C61040
C610C0
C630C0
C67180
C7FF80
439E00
600000
300000
3C1800
0FF800
03E000
ENDCHAR
STARTCHAR A
ENCODING 65
SWIDTH 544 0
DWIDTH 13 0
BBX 13 16 0 0
BITMAP
0700
0700
0500
0D80
0D80
0880
18C0
18C0
1040
3FE0
3FE0
2060
6030
6030
6030
C018
ENDCHAR
STARTCHAR B
ENCODING 66
SWIDTH 588 0
DWIDTH 14 0
BBX 11 16 2 0
BITMAP
FF00
FF80
C1C0
C0C0
C0C0
C1C0
FF80
FF00
C0C0
C060
C060
C060
C060
C0E0
FFC0
FF00
ENDCHAR
STARTCHAR C
ENCODING 67
SWIDTH 571 0
DWIDTH 14 0
BBX 12 16 1 0
BITMAP
0780
1FE0
3870
7000
6000
6000
C000
C000
C000
C000
6000
6000
7020
3870
1FE0
0F80
ENDCHAR
STARTCHAR D
ENCODING 68
SWIDTH 615 0
DWIDTH 15 0
BBX 12 16 2 0
BITMAP
FE00
FF80
C1C0
C0E0
C060
C060
C060
C070
C070
C060
C060
C060
C0E0
C1C0
FF80
FE00
ENDCHAR
STARTCHAR E
ENCODING 69
SWIDTH 527 0
DWIDTH 13 0
BBX 9 16 2 0
BITMAP
FF80
FF80
C000
C000
C000
C000
FF00
FF00
C000
C000
C000
C000
C000
C000
FF80
FF80
ENDCHAR
STARTCHAR F
ENCODING 70
SWIDTH 494 0
DWIDTH 12 0
BBX 9 16 2 0
BITMAP
FF80
FF80
C000
C000
C000
C000
C000
FF00
FF00
C000
C000
C000
C000
C000
C000
C000
ENDCHAR
STARTCHAR G
ENCODING 71
SWIDTH 617 0
DWIDTH 15 0
BBX 12 16 1 0
BITMAP
07C0
1FE0
3830
7000
6000
6000
C000
C1F0
C1F0
C030
6030
6030
7030
3830
1FF0
07C0
ENDCHAR
STARTCHAR H
ENCODING 72
SWIDTH 652 0
DWIDTH 16 0
BBX 11 16 2 0
BITMAP
C060
C060
C060
C060
C060
C060
FFE0
FFE0
C060
C060
C060
C060
C060
C060
C060
C060
ENDCHAR
STARTCHAR I
ENCODING 73
SWIDTH 263 0
DWIDTH 6 0
BBX 2 16 2 0
BITMAP
C0
C0
C0
C0
C0
C0
C0
C0
C0
C0
C0
C0
C0
C0
C0
C0
ENDCHAR
STARTCHAR J
ENCODING 74
SWIDTH 480 0
DWIDTH 12 0
BBX 8 16 1 0
BITMAP
03
03
03
03
03
03
03
03
03
03
03
03
83
C3
7E
3C
ENDCHAR
STARTCHAR K
ENCODING 75
SWIDTH 579 0
DWIDTH 14 0
BBX 12 16 2 0
BITMAP
C0E0
C0C0
C180
C300
C600
CE00
DC00
DE00
F600
E300
E380
C180
C0C0
C0C0
C060
C070
ENDCHAR
STARTCHAR L
ENCODING 76
SWIDTH 486 0
DWIDTH 12 0
BBX 9 16 2 0
BITMAP
C000
C000
C000
C000
C000
C000
C000
C000
C000
C000
C000
C000
C000
C000
FF80
FF80
ENDCHAR
STARTCHAR M
ENCODING 77
SWIDTH 727 0
DWIDTH 17 0
BBX 13 16 2 0
BITMAP
E018
E038
E038
F028
D068
D078
D858
C8D8
CCD8
CC98
C598
C718
C718
C318
C018
C018
ENDCHAR
STARTCHAR N
ENCODING 78
SWIDTH 647 0
DWIDTH 16 0
BBX 11 16 2 0
BITMAP
E060
E060
F060
F060
D860
D860
CC60
CC60
C660
C360
C320
C1A0
C1A0
C0E0
C0E0
C060
ENDCHAR
STARTCHAR O
ENCODING 79
SWIDTH 664 0
DWIDTH 16 0
BBX 14 16 1 0
BITMAP
0F80
1FE0
3870
7038
6018
E018
C00C
C00C
C00C
C01C
6018
6018
7038
3870
1FE0
0FC0
ENDCHAR
STARTCHAR P
ENCODING 80
SWIDTH 566 0
DWIDTH 14 0
BBX 11 16 2 0
BITMAP
FF00
FF80
C1C0
C0C0
C060
C060
C0C0
C1C0
FF80
FF00
C000
C000
C000
C000
C000
C000
ENDCHAR
STARTCHAR Q
ENCODING 81
SWIDTH 664 0
DWIDTH 16 0
BBX 14 20 1 -4
BITMAP
0F80
1FE0
3870
7038
6018
E018
C00C
C00C
C00C
C01C
E018
6018
7038
3870
1FE0
0FC0
0300
01C0
00FC
007C
ENDCHAR
STARTCHAR R
ENCODING 82
SWIDTH 569 0
DWIDTH 14 0
BBX 11 16 2 0
BITMAP
FF00
FFC0
C1C0
C0C0
C060
C060
C0C0
C1C0
FF80
FE00
C700
C300
C180
C1C0
C0C0
C0E0
ENDCHAR
STARTCHAR S
ENCODING 83
SWIDTH 534 0
DWIDTH 13 0
BBX 11 16 1 0
BITMAP
1F00
3FC0
70C0
6000
6000
6000
3800
1F00
0780
01C0
0060
0060
4060
E0C0
7FC0
1F00
ENDCHAR
STARTCHAR T
ENCODING 84
SWIDTH 536 0
DWIDTH 13 0
BBX 11 16 1 0
BITMAP
FFE0
FFE0
0C00
0C00
0C00
0C00
0C00
0C00
0C00
0C00
0C00
0C00
0C00
0C00
0C00
0C00
ENDCHAR
STARTCHAR U
ENCODING 85
SWIDTH 645 0
DWIDTH 15 0
BBX 11 16 2 0
BITMAP
C060
C060
C060
C060
C060
C060
C060
C060
C060
C060
C060
C060
6060
70E0
3FC0
1F00
ENDCHAR
STARTCHAR V
ENCODING 86
SWIDTH 515 0
DWIDTH 12 0
BBX 12 16 0 0
BITMAP
C030
E030
6030
6060
6060
3060
30C0
30C0
18C0
1880
1980
0980
0D00
0F00
0700
0700
ENDCHAR
STARTCHAR W
ENCODING 87
SWIDTH 786 0
DWIDTH 19 0
BBX 17 16 1 0
BITMAP
C1C180
C1C180
C1C180
C14180
C36300
636300
636300
622300
663300
263200
363600
341600
341600
3C1E00
1C1C00
181C00
ENDCHAR
STARTCHAR X
ENCODING 88
SWIDTH 513 0
DWIDTH 12 0
BBX 12 16 0 0
BITMAP
6070
7060
30C0
18C0
1980
0D80
0F00
0700
0700
0F00
1980
1980
30C0
30E0
6060
E070
ENDCHAR
STARTCHAR Y
ENCODING 89
SWIDTH 476 0
DWIDTH 11 0
BBX 11 16 0 0
BITMAP
C060
6060
60C0
30C0
3180
1980
1B00
0B00
0E00
0600
0600
0600
0600
0600
0600
0600
ENDCHAR
STARTCHAR Z
ENCODING 90
SWIDTH 539 0
DWIDTH 13 0
BBX 11 16 1 0
BITMAP
7FE0
7FE0
00C0
0180
0180
0300
0600
0600
0C00
1800
3800
3000
7000
E000
FFE0
FFE0
ENDCHAR
STARTCHAR bracketleft
ENCODING 91
SWIDTH 303 0
DWIDTH 7 0
BBX 5 21 2 -4
BITMAP
F8
F8
C0
C0
C0
C0
C0
C0
C0
C0
C0
C0
C0
C0
C0
C0
C0
C0
C0
F8
F8
ENDCHAR
STARTCHAR backslash
ENCODING 92
SWIDTH 350 0
DWIDTH 8 0
BBX 8 21 0 -4
BITMAP
C0
40
60
60
20
20
30
10
10
18
08
08
0C
0C
04
04
06
02
02
03
01
ENDCHAR
STARTCHAR bracketright
ENCODING 93
SWIDTH 303 0
DWIDTH 7 0
BBX 4 21 1 -4
BITMAP
F0
F0
10
10
10
10
10
10
10
10
10
10
10
10
10
10
10
10
10
F0
F0
ENDCHAR
STARTCHAR asciicircum
ENCODING 94
SWIDTH 497 0
DWIDTH 12 0
BBX 9 9 1 7
BITMAP
0C00
1C00
1E00
1200
3300
3300
2100
6180
E180
ENDCHAR
STARTCHAR underscore
ENCODING 95
SWIDTH 500 0
DWIDTH 12 0
BBX 12 2 0 -3
BITMAP
FFF0
FFF0
ENDCHAR
STARTCHAR grave
ENCODING 96
SWIDTH 542 0
DWIDTH 13 0
BBX 5 5 3 14
BITMAP
40
E0
70
30
18
ENDCHAR
STARTCHAR a
ENCODING 97
SWIDTH 504 0
DWIDTH 12 0
BBX 9 12 1 0
BITMAP
1F00
7F80
6180
0180
0780
3F80
7180
E180
C180
E380
7E80
3C80
ENDCHAR
STARTCHAR b
ENCODING 98
SWIDTH 553 0
DWIDTH 13 0
BBX 10 17 2 0
BITMAP
C000
C000
C000
C000
C000
CF00
FF80
E1C0
C0C0
C0C0
C0C0
C0C0
C0C0
C1C0
E380
FF80
DE00
ENDCHAR
STARTCHAR c
ENCODING 99
SWIDTH 456 0
DWIDTH 11 0
BBX 9 12 1 0
BITMAP
1F00
3F80
7180
6000
C000
C000
C000
C000
E000
7180
3F80
1F00
ENDCHAR
STARTCHAR d
ENCODING 100
SWIDTH 555 0
DWIDTH 13 0
BBX 10 17 1 0
BITMAP
00C0
00C0
00C0
00C0
00C0
1EC0
3FC0
71C0
60C0
C0C0
C0C0
C0C0
C0C0
E0C0
71C0
7F40
1E40
ENDCHAR
STARTCHAR e
ENCODING 101
SWIDTH 496 0
DWIDTH 12 0
BBX 10 12 1 0
BITMAP
1F00
3F80
61C0
40C0
FFC0
FFC0
C000
C000
6000
7080
3FC0
1F00
ENDCHAR
STARTCHAR f
ENCODING 102
SWIDTH 292 0
DWIDTH 7 0
BBX 7 17 1 0
BITMAP
1E
3C
70
60
60
FC
FC
60
60
60
60
60
60
60
60
60
60
ENDCHAR
STARTCHAR g
ENCODING 103
SWIDTH 504 0
DWIDTH 12 0
BBX 11 17 1 -5
BITMAP
1FE0
7FE0
6180
4180
6180
6180
3F00
7E00
4000
6000
7F80
7FE0
C060
C060
E0C0
7FC0
3F00
ENDCHAR
STARTCHAR h
ENCODING 104
SWIDTH 544 0
DWIDTH 13 0
BBX 9 17 2 0
BITMAP
C000
C000
C000
C000
C000
CF00
FF80
F180
C180
C180
C180
C180
C180
C180
C180
C180
C180
ENDCHAR
STARTCHAR i
ENCODING 105
SWIDTH 246 0
DWIDTH 6 0
BBX 2 17 2 0
BITMAP
80
C0
C0
00
00
C0
C0
C0
C0
C0
C0
C0
C0
C0
C0
C0
C0
ENDCHAR
STARTCHAR j
ENCODING 106
SWIDTH 247 0
DWIDTH 6 0
BBX 5 22 -1 -5
BITMAP
10
18
18
00
00
18
18
18
18
18
18
18
18
18
18
18
18
18
18
18
F0
F0
ENDCHAR
STARTCHAR k
ENCODING 107
SWIDTH 495 0
DWIDTH 12 0
BBX 10 17 2 0
BITMAP
C000
C000
C000
C000
C000
C180
C300
C600
CC00
C800
DC00
FC00
E600
C700
C300
C180
C1C0
ENDCHAR
STARTCHAR l
ENCODING 108
SWIDTH 255 0
DWIDTH 6 0
BBX 3 17 2 0
BITMAP
C0
C0
C0
C0
C0
C0
C0
C0
C0
C0
C0
C0
C0
C0
C0
E0
60
ENDCHAR
STARTCHAR m
ENCODING 109
SWIDTH 829 0
DWIDTH 20 0
BBX 16 12 2 0
BITMAP
DE1C
FF7E
E3E7
C183
C183
C183
C183
C183
C183
C183
C183
C183
ENDCHAR
STARTCHAR n
ENCODING 110
SWIDTH 547 0
DWIDTH 13 0
BBX 9 12 2 0
BITMAP
CF00
FF80
E180
C180
C180
C180
C180
C180
C180
C180
C180
C180
ENDCHAR
STARTCHAR o
ENCODING 111
SWIDTH 542 0
DWIDTH 13 0
BBX 11 12 1 0
BITMAP
1F00
3F80
71C0
60C0
C060
C060
C060
C060
60C0
71C0
3F80
1F00
ENDCHAR
STARTCHAR p
ENCODING 112
SWIDTH 555 0
DWIDTH 13 0
BBX 10 17 2 -5
BITMAP
CF00
FF80
E1C0
C0C0
C0C0
C0C0
C0C0
C0C0
C1C0
E380
FF80
DE00
C000
C000
C000
C000
C000
ENDCHAR
STARTCHAR q
ENCODING 113
SWIDTH 555 0
DWIDTH 13 0
BBX 10 17 1 -5
BITMAP
1E40
3FC0
71C0
60C0
C0C0
C0C0
C0C0
C0C0
E0C0
71C0
7FC0
1EC0
00C0
00C0
00C0
00C0
00C0
ENDCHAR
STARTCHAR r
ENCODING 114
SWIDTH 347 0
DWIDTH 8 0
BBX 6 12 2 0
BITMAP
DC
FC
E0
C0
C0
C0
C0
C0
C0
C0
C0
C0
ENDCHAR
STARTCHAR s
ENCODING 115
SWIDTH 419 0
DWIDTH 10 0
BBX 8 12 1 0
BITMAP
3C
7F
E2
C0
60
7C
0E
03
03
C3
FF
3C
ENDCHAR
STARTCHAR t
ENCODING 116
SWIDTH 338 0
DWIDTH 8 0
BBX 7 15 1 0
BITMAP
20
20
60
FC
FC
60
60
60
60
60
60
60
70
3E
1E
ENDCHAR
STARTCHAR u
ENCODING 117
SWIDTH 544 0
DWIDTH 13 0
BBX 9 12 2 0
BITMAP
C180
C180
C180
C180
C180
C180
C180
C180
C180
E380
FF80
7980
ENDCHAR
STARTCHAR v
ENCODING 118
SWIDTH 467 0
DWIDTH 11 0
BBX 11 12 0 0
BITMAP
C060
60C0
60C0
20C0
3180
3180
1180
1900
1B00
0B00
0E00
0E00
ENDCHAR
STARTCHAR w
ENCODING 119
SWIDTH 718 0
DWIDTH 17 0
BBX 16 12 1 0
BITMAP
C183
C386
C286
42C6
62C6
66CC
664C
246C
3C68
3C68
3C38
1838
ENDCHAR
STARTCHAR x
ENCODING 120
SWIDTH 446 0
DWIDTH 11 0
BBX 10 12 0 0
BITMAP
60C0
3180
3180
1B00
1A00
0E00
0E00
1B00
3300
3180
6180
E0C0
ENDCHAR
STARTCHAR y
ENCODING 121
SWIDTH 467 0
DWIDTH 11 0
BBX 11 17 0 -5
BITMAP
E060
6040
60C0
30C0
3080
3180
1980
1900
0B00
0F00
0E00
0600
0600
0C00
1C00
7800
7000
ENDCHAR
STARTCHAR z
ENCODING 122
SWIDTH 425 0
DWIDTH 10 0
BBX 9 12 1 0
BITMAP
FF00
FF00
0200
0600
0C00
1800
1800
3000
6000
6000
FF80
FF80
ENDCHAR
STARTCHAR braceleft
ENCODING 123
SWIDTH 303 0
DWIDTH 7 0
BBX 6 21 1 -4
BITMAP
1C
3C
30
20
20
20
20
20
60
E0
E0
60
20
20
20
20
20
20
30
3C
1C
ENDCHAR
STARTCHAR bar
ENCODING 124
SWIDTH 241 0
DWIDTH 6 0
BBX 2 24 2 -6
BITMAP
C0
C0
C0
C0
C0
C0
C0
C0
C0
C0
C0
C0
C0
C0
C0
C0
C0
C0
C0
C0
C0
C0
C0
C0
ENDCHAR
STARTCHAR braceright
ENCODING 125
SWIDTH 303 0
DWIDTH 7 0
BBX 5 21 1 -4
BITMAP
E0
E0
30
30
30
20
20
20
30
38
38
30
20
20
20
30
30
30
30
E0
E0
ENDCHAR
STARTCHAR asciitilde
ENCODING 126
SWIDTH 497 0
DWIDTH 12 0
BBX 10 3 1 6
BITMAP
7000
8CC0
0780
ENDCHAR
STARTCHAR uni00A0
ENCODING 160
SWIDTH 202 0
DWIDTH 5 0
BBX 1 1 0 0
BITMAP
00
ENDCHAR
STARTCHAR exclamdown
ENCODING 161
SWIDTH 289 0
DWIDTH 7 0
BBX 3 16 2 -4
BITMAP
E0
E0
E0
00
00
40
40
40
40
40
40
40
40
40
C0
C0
ENDCHAR
STARTCHAR cent
ENCODING 162
SWIDTH 497 0
DWIDTH 12 0
BBX 10 17 1 -1
BITMAP
0600
0600
0600
0F00
3FC0
7680
6600
6600
C600
6600
6600
7680
3FC0
1F00
0600
0600
0600
ENDCHAR
STARTCHAR sterling
ENCODING 163
SWIDTH 497 0
DWIDTH 12 0
BBX 10 15 1 0
BITMAP
0F00
3F80
30C0
3000
3000
3000
FF00
FF00
1800
1800
1000
3000
7000
FFC0
FFC0
ENDCHAR
STARTCHAR currency
ENCODING 164
SWIDTH 497 0
DWIDTH 12 0
BBX 10 11 1 2
BITMAP
8040
DEC0
7F80
6180
C0C0
C0C0
C0C0
6180
7F80
DEC0
8040
ENDCHAR
STARTCHAR yen
ENCODING 165
SWIDTH 497 0
DWIDTH 12 0
BBX 10 15 1 0
BITMAP
C0C0
C0C0
6180
2100
3300
1200
1E00
FFC0
0C00
0C00
FFC0
0C00
0C00
0C00
0C00
ENDCHAR
STARTCHAR brokenbar
ENCODING 166
SWIDTH 241 0
DWIDTH 6 0
BBX 2 24 2 -6
BITMAP
C0
C0
C0
C0
C0
C0
C0
C0
C0
C0
C0
00
00
C0
C0
C0
C0
C0
C0
C0
C0
C0
C0
C0
ENDCHAR
STARTCHAR section
ENCODING 167
SWIDTH 497 0
DWIDTH 12 0
BBX 10 19 1 -2
BITMAP
1E00
3F00
7180
6000
3000
3800
7E00
C780
C180
C0C0
60C0
38C0
1F80
0700
0300
0180
6300
7F00
1E00
ENDCHAR
STARTCHAR dieresis
ENCODING 168
SWIDTH 542 0
DWIDTH 13 0
BBX 7 2 3 14
BITMAP
C6
C6
ENDCHAR
STARTCHAR copyright
ENCODING 169
SWIDTH 744 0
DWIDTH 18 0
BBX 16 17 1 0
BITMAP
07E0
1FF0
381C
300C
63C6
47E2
CC23
8C03
8801
8C03
CC23
47E2
63C6
300C
381C
1FF0
07E0
ENDCHAR
STARTCHAR ordfeminine
ENCODING 170
SWIDTH 345 0
DWIDTH 8 0
BBX 6 8 1 9
BITMAP
78
8C
04
3C
C4
84
CC
74
ENDCHAR
STARTCHAR guillemotleft
ENCODING 171
SWIDTH 429 0
DWIDTH 10 0
BBX 8 9 1 2
BITMAP
11
32
66
CC
88
CC
66
32
11
ENDCHAR
STARTCHAR logicalnot
ENCODING 172
SWIDTH 497 0
DWIDTH 12 0
BBX 10 7 1 2
BITMAP
FFC0
FFC0
0040
0040
0040
0040
0040
ENDCHAR
STARTCHAR uni00AD
ENCODING 173
SWIDTH 311 0
DWIDTH 7 0
BBX 6 2 1 5
BITMAP
FC
FC
ENDCHAR
STARTCHAR registered
ENCODING 174
SWIDTH 423 0
DWIDTH 10 0
BBX 9 9 1 8
BITMAP
3C00
4300
BD00
A500
B880
AD80
A500
4300
3C00
ENDCHAR
STARTCHAR macron
ENCODING 175
SWIDTH 542 0
DWIDTH 13 0
BBX 7 1 3 14
BITMAP
FE
ENDCHAR
STARTCHAR degree
ENCODING 176
SWIDTH 331 0
DWIDTH 8 0
BBX 6 7 1 10
BITMAP
78
F8
CC
84
CC
F8
78
ENDCHAR
STARTCHAR plusminus
ENCODING 177
SWIDTH 497 0
DWIDTH 12 0
BBX 10 14 1 0
BITMAP
0C00
0C00
0C00
0C00
0C00
FFC0
FFC0
0C00
0C00
0C00
0C00
0000
FFC0
FFC0
ENDCHAR
STARTCHAR two.sups
ENCODING 178
SWIDTH 367 0
DWIDTH 9 0
BBX 7 10 1 9
BITMAP
78
CC
04
04
0C
0C
18
30
60
FE
ENDCHAR
STARTCHAR three.sups
ENCODING 179
SWIDTH 367 0
DWIDTH 9 0
BBX 7 10 1 9
BITMAP
78
CC
04
04
0C
38
3C
06
C4
78
ENDCHAR
STARTCHAR acute
ENCODING 180
SWIDTH 542 0
DWIDTH 13 0
BBX 5 5 5 14
BITMAP
10
38
70
60
C0
ENDCHAR
STARTCHAR uni00B5
ENCODING 181
SWIDTH 562 0
DWIDTH 13 0
BBX 11 16 2 -4
BITMAP
C180
C180
C180
C180
C180
C180
C180
C180
C180
E380
FFE0
FCE0
C000
C000
C000
C000
ENDCHAR
STARTCHAR paragraph
ENCODING 182
SWIDTH 560 0
DWIDTH 13 0
BBX 10 18 1 -2
BITMAP
1EC0
7EC0
7EC0
FEC0
FEC0
FEC0
FEC0
FEC0
7EC0
3EC0
00C0
00C0
00C0
00C0
00C0
00C0
00C0
00C0
ENDCHAR
STARTCHAR periodcentered
ENCODING 183
SWIDTH 249 0
DWIDTH 6 0
BBX 2 3 2 7
BITMAP
C0
C0
C0
ENDCHAR
STARTCHAR cedilla
ENCODING 184
SWIDTH 542 0
DWIDTH 13 0
BBX 5 6 4 -5
BITMAP
20
20
70
10
18
E0
ENDCHAR
STARTCHAR one.sups
ENCODING 185
SWIDTH 367 0
DWIDTH 9 0
BBX 4 9 2 9
BITMAP
30
F0
30
30
30
30
30
30
30
ENDCHAR
STARTCHAR ordmasculine
ENCODING 186
SWIDTH 365 0
DWIDTH 9 0
BBX 7 8 1 9
BITMAP
78
C4
86
86
86
C6
C4
78
ENDCHAR
STARTCHAR guillemotright
ENCODING 187
SWIDTH 429 0
DWIDTH 10 0
BBX 8 9 1 2
BITMAP
48
C4
26
33
11
33
26
44
C8
ENDCHAR
STARTCHAR onequarter
ENCODING 188
SWIDTH 781 0
DWIDTH 19 0
BBX 16 16 2 0
BITMAP
0010
6030
E020
2040
2040
2080
2180
210E
230E
2216
0636
0466
0C7F
0806
1806
3006
ENDCHAR
STARTCHAR onehalf
ENCODING 189
SWIDTH 808 0
DWIDTH 19 0
BBX 16 16 2 0
BITMAP
0030
6020
E060
2040
2080
2080
211E
2322
2203
2603
0403
0C06
080C
181C
1038
203F
ENDCHAR
STARTCHAR threequarters
ENCODING 190
SWIDTH 796 0
DWIDTH 19 0
BBX 17 16 1 0
BITMAP
780400
CC0800
040800
041000
0C3000
382000
3C6000
064300
C4C500
788D00
019900
011100
023F80
020100
040100
0C0100
ENDCHAR
STARTCHAR questiondown
ENCODING 191
SWIDTH 425 0
DWIDTH 10 0
BBX 8 17 1 -5
BITMAP
18
1C
1C
00
00
08
18
18
30
30
60
C0
C0
C0
E3
7F
3C
ENDCHAR
STARTCHAR Agrave
ENCODING 192
SWIDTH 544 0
DWIDTH 13 0
BBX 13 21 0 0
BITMAP
0800
1C00
0600
0300
0000
0700
0700
0500
0D80
0D80
0880
18C0
18C0
1040
3FE0
3FE0
2060
6030
6030
6030
C018
ENDCHAR
STARTCHAR Aacute
ENCODING 193
SWIDTH 544 0
DWIDTH 13 0
BBX 13 21 0 0
BITMAP
0080
01C0
0300
0600
0000
0700
0700
0500
0D80
0D80
0880
18C0
18C0
1040
3FE0
3FE0
2060
6030
6030
6030
C018
ENDCHAR
STARTCHAR Acircumflex
ENCODING 194
SWIDTH 544 0
DWIDTH 13 0
BBX 13 20 0 0
BITMAP
0700
0D80
1040
0000
0700
0700
0500
0D80
0D80
0880
18C0
18C0
1040
3FE0
3FE0
2060
6030
6030
6030
C018
ENDCHAR
STARTCHAR Atilde
ENCODING 195
SWIDTH 544 0
DWIDTH 13 0
BBX 13 19 0 0
BITMAP
1E60
33C0
0000
0700
0700
0500
0D80
0D80
0880
18C0
18C0
1040
3FE0
3FE0
2060
6030
6030
6030
C018
ENDCHAR
STARTCHAR Adieresis
ENCODING 196
SWIDTH 544 0
DWIDTH 13 0
BBX 13 19 0 0
BITMAP
18C0
18C0
0000
0700
0700
0500
0D80
0D80
0880
18C0
18C0
1040
3FE0
3FE0
2060
6030
6030
6030
C018
ENDCHAR
STARTCHAR Aring
ENCODING 197
SWIDTH 544 0
DWIDTH 13 0
BBX 13 21 0 0
BITMAP
0700
0880
0880
0700
0000
0700
0700
0500
0D80
0D80
0880
18C0
18C0
1040
3FE0
3FE0
2060
6030
6030
6030
C018
ENDCHAR
STARTCHAR AE
ENCODING 198
SWIDTH 822 0
DWIDTH 20 0
BBX 19 16 0 0
BITMAP
00FFC0
00FFC0
01B000
01B000
033000
023000
063F80
043F80
0C3000
0FF000
1FF000
103000
303000
703000
603FE0
E03FE0
ENDCHAR
STARTCHAR Ccedilla
ENCODING 199
SWIDTH 571 0
DWIDTH 14 0
BBX 12 21 1 -5
BITMAP
0780
1FE0
3870
7000
6000
6000
C000
C000
C000
C000
6000
6000
7020
3870
1FE0
0F80
0300
0380
0180
0180
0700
ENDCHAR
STARTCHAR Egrave
ENCODING 200
SWIDTH 527 0
DWIDTH 13 0
BBX 9 21 2 0
BITMAP
2000
3000
1C00
0400
0000
FF80
FF80
C000
C000
C000
C000
FF00
FF00
C000
C000
C000
C000
C000
C000
FF80
FF80
ENDCHAR
STARTCHAR Eacute
ENCODING 201
SWIDTH 527 0
DWIDTH 13 0
BBX 9 21 2 0
BITMAP
0200
0700
0C00
0800
0000
FF80
FF80
C000
C000
C000
C000
FF00
FF00
C000
C000
C000
C000
C000
C000
FF80
FF80
ENDCHAR
STARTCHAR Ecircumflex
ENCODING 202
SWIDTH 527 0
DWIDTH 13 0
BBX 9 20 2 0
BITMAP
1C00
3600
6100
0000
FF80
FF80
C000
C000
C000
C000
FF00
FF00
C000
C000
C000
C000
C000
C000
FF80
FF80
ENDCHAR
STARTCHAR Edieresis
ENCODING 203
SWIDTH 527 0
DWIDTH 13 0
BBX 9 19 2 0
BITMAP
6300
7300
0000
FF80
FF80
C000
C000
C000
C000
FF00
FF00
C000
C000
C000
C000
C000
C000
FF80
FF80
ENDCHAR
STARTCHAR Igrave
ENCODING 204
SWIDTH 263 0
DWIDTH 6 0
BBX 4 21 0 0
BITMAP
40
E0
30
10
00
30
30
30
30
30
30
30
30
30
30
30
30
30
30
30
30
ENDCHAR
STARTCHAR Iacute
ENCODING 205
SWIDTH 263 0
DWIDTH 6 0
BBX 4 21 2 0
BITMAP
10
30
E0
80
00
C0
C0
C0
C0
C0
C0
C0
C0
C0
C0
C0
C0
C0
C0
C0
C0
ENDCHAR
STARTCHAR Icircumflex
ENCODING 206
SWIDTH 263 0
DWIDTH 6 0
BBX 7 20 0 0
BITMAP
38
4C
86
00
30
30
30
30
30
30
30
30
30
30
30
30
30
30
30
30
ENDCHAR
STARTCHAR Idieresis
ENCODING 207
SWIDTH 263 0
DWIDTH 6 0
BBX 8 19 -1 0
BITMAP
63
E7
00
18
18
18
18
18
18
18
18
18
18
18
18
18
18
18
18
ENDCHAR
STARTCHAR Eth
ENCODING 208
SWIDTH 638 0
DWIDTH 15 0
BBX 13 16 1 0
BITMAP
3F80
3FE0
30F0
3030
3038
3018
FE18
FE18
3018
3018
3018
3038
3030
30E0
3FE0
3F80
ENDCHAR
STARTCHAR Ntilde
ENCODING 209
SWIDTH 647 0
DWIDTH 16 0
BBX 11 19 2 0
BITMAP
3CC0
2380
0000
E060
E060
F060
F060
D860
D860
CC60
CC60
C660
C360
C320
C1A0
C1A0
C0E0
C0E0
C060
ENDCHAR
STARTCHAR Ograve
ENCODING 210
SWIDTH 664 0
DWIDTH 16 0
BBX 14 21 1 0
BITMAP
0800
0E00
0700
0100
0000
0F80
1FE0
3870
7038
6018
E018
C00C
C00C
C00C
C01C
6018
6018
7038
3870
1FE0
0FC0
ENDCHAR
STARTCHAR Oacute
ENCODING 211
SWIDTH 664 0
DWIDTH 16 0
BBX 14 21 1 0
BITMAP
00C0
01C0
0380
0200
0000
0F80
1FE0
3870
7038
6018
E018
C00C
C00C
C00C
C01C
6018
6018
7038
3870
1FE0
0FC0
ENDCHAR
STARTCHAR Ocircumflex
ENCODING 212
SWIDTH 664 0
DWIDTH 16 0
BBX 14 20 1 0
BITMAP
0780
0CC0
1860
0000
0F80
1FE0
3870
7038
6018
E018
C00C
C00C
C00C
C01C
6018
6018
7038
3870
1FE0
0FC0
ENDCHAR
STARTCHAR Otilde
ENCODING 213
SWIDTH 664 0
DWIDTH 16 0
BBX 14 19 1 0
BITMAP
1E20
11C0
0000
0F80
1FE0
3870
7038
6018
E018
C00C
C00C
C00C
C01C
6018
6018
7038
3870
1FE0
0FC0
ENDCHAR
STARTCHAR Odieresis
ENCODING 214
SWIDTH 664 0
DWIDTH 16 0
BBX 14 19 1 0
BITMAP
1CC0
1CE0
0000
0F80
1FE0
3870
7038
6018
E018
C00C
C00C
C00C
C01C
6018
6018
7038
3870
1FE0
0FC0
ENDCHAR
STARTCHAR multiply
ENCODING 215
SWIDTH 497 0
DWIDTH 12 0
BBX 10 10 1 3
BITMAP
4080
E1C0
3300
3E00
1C00
1E00
3E00
3300
6180
C0C0
ENDCHAR
STARTCHAR Oslash
ENCODING 216
SWIDTH 664 0
DWIDTH 16 0
BBX 14 16 1 0
BITMAP
0FCC
1FF8
3870
7038
6078
60DC
C18C
C10C
C20C
E61C
6C1C
7818
7038
3870
7FE0
CFC0
ENDCHAR
STARTCHAR Ugrave
ENCODING 217
SWIDTH 645 0
DWIDTH 15 0
BBX 11 21 2 0
BITMAP
1000
3800
0C00
0600
0000
C060
C060
C060
C060
C060
C060
C060
C060
C060
C060
C060
C060
6060
70E0
3FC0
1F00
ENDCHAR
STARTCHAR Uacute
ENCODING 218
SWIDTH 645 0
DWIDTH 15 0
BBX 11 21 2 0
BITMAP
0100
0380
0600
0C00
0000
C060
C060
C060
C060
C060
C060
C060
C060
C060
C060
C060
C060
6060
70E0
3FC0
1F00
ENDCHAR
STARTCHAR Ucircumflex
ENCODING 219
SWIDTH 645 0
DWIDTH 15 0
BBX 11 20 2 0
BITMAP
0E00
1B00
3080
0000
C060
C060
C060
C060
C060
C060
C060
C060
C060
C060
C060
C060
6060
70E0
3FC0
1F00
ENDCHAR
STARTCHAR Udieresis
ENCODING 220
SWIDTH 645 0
DWIDTH 15 0
BBX 11 19 2 0
BITMAP
3180
3180
0000
C060
C060
C060
C060
C060
C060
C060
C060
C060
C060
C060
C060
6060
70E0
3FC0
1F00
ENDCHAR
STARTCHAR Yacute
ENCODING 221
SWIDTH 476 0
DWIDTH 11 0
BBX 11 21 0 0
BITMAP
0100
0380
0600
0C00
0000
C060
6060
60C0
30C0
3180
1980
1B00
0B00
0E00
0600
0600
0600
0600
0600
0600
0600
ENDCHAR
STARTCHAR Thorn
ENCODING 222
SWIDTH 583 0
DWIDTH 14 0
BBX 11 16 2 0
BITMAP
C000
C000
C000
FF00
FFC0
C1C0
C060
C060
C060
C0E0
C1C0
FF80
FF00
C000
C000
C000
ENDCHAR
STARTCHAR germandbls
ENCODING 223
SWIDTH 576 0
DWIDTH 14 0
BBX 11 17 2 0
BITMAP
3E00
7F00
E300
C180
C100
C300
C600
C400
C400
C600
C380
C1C0
C060
C060
C860
CFE0
C780
ENDCHAR
STARTCHAR agrave
ENCODING 224
SWIDTH 504 0
DWIDTH 12 0
BBX 9 19 1 0
BITMAP
1000
3800
1800
0C00
0600
0000
0000
1F00
7F80
6180
0180
0780
3F80
7180
E180
C180
E380
7E80
3C80
ENDCHAR
STARTCHAR aacute
ENCODING 225
SWIDTH 504 0
DWIDTH 12 0
BBX 9 19 1 0
BITMAP
0100
0380
0700
0E00
0800
0000
0000
1F00
7F80
6180
0180
0780
3F80
7180
E180
C180
E380
7E80
3C80
ENDCHAR
STARTCHAR acircumflex
ENCODING 226
SWIDTH 504 0
DWIDTH 12 0
BBX 9 18 1 0
BITMAP
0E00
1F00
3100
2080
0000
0000
1F00
7F80
6180
0180
0780
3F80
7180
E180
C180
E380
7E80
3C80
ENDCHAR
STARTCHAR atilde
ENCODING 227
SWIDTH 504 0
DWIDTH 12 0
BBX 9 17 1 0
BITMAP
1000
6C80
6780
0000
0000
1F00
7F80
6180
0180
0780
3F80
7180
E180
C180
E380
7E80
3C80
ENDCHAR
STARTCHAR adieresis
ENCODING 228
SWIDTH 504 0
DWIDTH 12 0
BBX 9 16 1 0
BITMAP
3180
3380
0000
0000
1F00
7F80
6180
0180
0780
3F80
7180
E180
C180
E380
7E80
3C80
ENDCHAR
STARTCHAR aring
ENCODING 229
SWIDTH 504 0
DWIDTH 12 0
BBX 9 18 1 0
BITMAP
0E00
1300
1100
1300
0E00
0000
1F00
7F80
6180
0180
0780
3F80
7180
E180
C180
E380
7E80
3C80
ENDCHAR
STARTCHAR ae
ENCODING 230
SWIDTH 785 0
DWIDTH 19 0
BBX 17 12 1 0
BITMAP
1E1E00
7F7F00
61E300
01C180
01FF80
1FFF80
7F8000
608000
C1C000
E3E100
7F7F00
3C1E00
ENDCHAR
STARTCHAR ccedilla
ENCODING 231
SWIDTH 456 0
DWIDTH 11 0
BBX 9 17 1 -5
BITMAP
1F00
3F80
7180
6000
C000
C000
C000
C000
E000
7180
3F80
1F00
0400
0E00
0200
0200
1C00
ENDCHAR
STARTCHAR egrave
ENCODING 232
SWIDTH 496 0
DWIDTH 12 0
BBX 10 19 1 0
BITMAP
1000
3800
1800
0C00
0600
0000
0000
1F00
3F80
61C0
40C0
FFC0
FFC0
C000
C000
6000
7080
3FC0
1F00
ENDCHAR
STARTCHAR eacute
ENCODING 233
SWIDTH 496 0
DWIDTH 12 0
BBX 10 19 1 0
BITMAP
0100
0380
0700
0E00
0C00
0000
0000
1F00
3F80
61C0
40C0
FFC0
FFC0
C000
C000
6000
7080
3FC0
1F00
ENDCHAR
STARTCHAR ecircumflex
ENCODING 234
SWIDTH 496 0
DWIDTH 12 0
BBX 10 18 1 0
BITMAP
0E00
1B00
3100
2080
0000
0000
1F00
3F80
61C0
40C0
FFC0
FFC0
C000
C000
6000
7080
3FC0
1F00
ENDCHAR
STARTCHAR edieresis
ENCODING 235
SWIDTH 496 0
DWIDTH 12 0
BBX 10 16 1 0
BITMAP
3180
3380
0000
0000
1F00
3F80
61C0
40C0
FFC0
FFC0
C000
C000
6000
7080
3FC0
1F00
ENDCHAR
STARTCHAR igrave
ENCODING 236
SWIDTH 246 0
DWIDTH 6 0
BBX 4 19 0 0
BITMAP
80
C0
60
30
10
00
00
30
30
30
30
30
30
30
30
30
30
30
30
ENDCHAR
STARTCHAR iacute
ENCODING 237
SWIDTH 246 0
DWIDTH 6 0
BBX 4 19 2 0
BITMAP
10
30
60
C0
80
00
00
C0
C0
C0
C0
C0
C0
C0
C0
C0
C0
C0
C0
ENDCHAR
STARTCHAR icircumflex
ENCODING 238
SWIDTH 246 0
DWIDTH 6 0
BBX 8 18 -1 0
BITMAP
18
3C
66
C3
00
00
18
18
18
18
18
18
18
18
18
18
18
18
ENDCHAR
STARTCHAR idieresis
ENCODING 239
SWIDTH 246 0
DWIDTH 6 0
BBX 7 16 -1 0
BITMAP
66
E6
00
00
18
18
18
18
18
18
18
18
18
18
18
18
ENDCHAR
STARTCHAR eth
ENCODING 240
SWIDTH 545 0
DWIDTH 13 0
BBX 11 17 1 0
BITMAP
1040
3CC0
0F80
0F00
3B80
2180
00C0
1EC0
3FC0
60E0
C060
C060
C060
E0C0
71C0
3F80
1F00
ENDCHAR
STARTCHAR ntilde
ENCODING 241
SWIDTH 547 0
DWIDTH 13 0
BBX 9 17 2 0
BITMAP
1000
6C80
4700
0000
0000
CF00
FF80
E180
C180
C180
C180
C180
C180
C180
C180
C180
C180
ENDCHAR
STARTCHAR ograve
ENCODING 242
SWIDTH 542 0
DWIDTH 13 0
BBX 11 19 1 0
BITMAP
1000
3800
1C00
0C00
0600
0000
0000
1F00
3F80
71C0
60C0
C060
C060
C060
C060
60C0
71C0
3F80
1F00
ENDCHAR
STARTCHAR oacute
ENCODING 243
SWIDTH 542 0
DWIDTH 13 0
BBX 11 19 1 0
BITMAP
0100
0380
0700
0600
0C00
0000
0000
1F00
3F80
71C0
60C0
C060
C060
C060
C060
60C0
71C0
3F80
1F00
ENDCHAR
STARTCHAR ocircumflex
ENCODING 244
SWIDTH 542 0
DWIDTH 13 0
BBX 11 18 1 0
BITMAP
0E00
1B00
3180
2080
0000
0000
1F00
3F80
71C0
60C0
C060
C060
C060
C060
60C0
71C0
3F80
1F00
ENDCHAR
STARTCHAR otilde
ENCODING 245
SWIDTH 542 0
DWIDTH 13 0
BBX 11 17 1 0
BITMAP
1000
3CC0
6380
0000
0000
1F00
3F80
71C0
60C0
C060
C060
C060
C060
60C0
71C0
3F80
1F00
ENDCHAR
STARTCHAR odieresis
ENCODING 246
SWIDTH 542 0
DWIDTH 13 0
BBX 11 16 1 0
BITMAP
3180
3180
0000
0000
1F00
3F80
71C0
60C0
C060
C060
C060
C060
60C0
71C0
3F80
1F00
ENDCHAR
STARTCHAR divide
ENCODING 247
SWIDTH 497 0
DWIDTH 12 0
BBX 10 10 1 3
BITMAP
0C00
0C00
0000
0000
FFC0
FFC0
0000
0000
0C00
0C00
ENDCHAR
STARTCHAR oslash
ENCODING 248
SWIDTH 542 0
DWIDTH 13 0
BBX 11 12 1 0
BITMAP
1F60
3FC0
70C0
61C0
C360
C660
CC60
D860
70C0
61C0
7F80
DF00
ENDCHAR
STARTCHAR ugrave
ENCODING 249
SWIDTH 544 0
DWIDTH 13 0
BBX 9 19 2 0
BITMAP
2000
7000
3800
1800
0C00
0000
0000
C180
C180
C180
C180
C180
C180
C180
C180
C180
E380
FF80
7980
ENDCHAR
STARTCHAR uacute
ENCODING 250
SWIDTH 544 0
DWIDTH 13 0
BBX 9 19 2 0
BITMAP
0200
0700
0E00
0C00
1800
0000
0000
C180
C180
C180
C180
C180
C180
C180
C180
C180
E380
FF80
7980
ENDCHAR
STARTCHAR ucircumflex
ENCODING 251
SWIDTH 544 0
DWIDTH 13 0
BBX 9 18 2 0
BITMAP
1C00
3600
6300
4100
0000
0000
C180
C180
C180
C180
C180
C180
C180
C180
C180
E380
FF80
7980
ENDCHAR
STARTCHAR udieresis
ENCODING 252
SWIDTH 544 0
DWIDTH 13 0
BBX 9 16 2 0
BITMAP
6300
6300
0000
0000
C180
C180
C180
C180
C180
C180
C180
C180
C180
E380
FF80
7980
ENDCHAR
STARTCHAR yacute
ENCODING 253
SWIDTH 467 0
DWIDTH 11 0
BBX 11 24 0 -5
BITMAP
0100
0180
0300
0600
0C00
0000
0000
E060
6040
60C0
30C0
3080
3180
1980
1900
0B00
0F00
0E00
0600
0600
0C00
1C00
7800
7000
ENDCHAR
STARTCHAR thorn
ENCODING 254
SWIDTH 555 0
DWIDTH 13 0
BBX 10 22 2 -5
BITMAP
C000
C000
C000
C000
C000
DF00
FF80
E1C0
C0C0
C0C0
C0C0
C0C0
C0C0
C1C0
E380
FF80
DE00
C000
C000
C000
C000
C000
ENDCHAR
STARTCHAR ydieresis
ENCODING 255
SWIDTH 467 0
DWIDTH 11 0
BBX 11 21 0 -5
BITMAP
3980
3980
0000
0000
E060
6040
60C0
30C0
3080
3180
1980
1900
0B00
0F00
0E00
0600
0600
0C00
1C00
7800
7000
ENDCHAR
STARTCHAR Amacron
ENCODING 256
SWIDTH 544 0
DWIDTH 13 0
BBX 13 18 0 0
BITMAP
1FC0
0000
0700
0700
0500
0D80
0D80
0880
18C0
18C0
1040
3FE0
3FE0
2060
6030
6030
6030
C018
ENDCHAR
STARTCHAR amacron
ENCODING 257
SWIDTH 504 0
DWIDTH 12 0
BBX 9 15 1 0
BITMAP
3F00
0000
0000
1F00
7F80
6180
0180
0780
3F80
7180
E180
C180
E380
7E80
3C80
ENDCHAR
STARTCHAR Abreve
ENCODING 258
SWIDTH 544 0
DWIDTH 13 0
BBX 13 20 0 0
BITMAP
1040
18C0
0F80
0000
0700
0700
0500
0D80
0D80
0880
18C0
18C0
1040
3FE0
3FE0
2060
6030
6030
6030
C018
ENDCHAR
STARTCHAR abreve
ENCODING 259
SWIDTH 504 0
DWIDTH 12 0
BBX 9 18 1 0
BITMAP
2080
2180
3100
1E00
0000
0000
1F00
7F80
6180
0180
0780
3F80
7180
E180
C180
E380
7E80
3C80
ENDCHAR
STARTCHAR Aogonek
ENCODING 260
SWIDTH 544 0
DWIDTH 13 0
BBX 14 21 0 -5
BITMAP
0700
0700
0500
0D80
0D80
0880
18C0
18C0
1040
3FE0
3FE0
2060
6030
6030
6030
C018
0010
0020
0020
0060
003C
ENDCHAR
STARTCHAR aogonek
ENCODING 261
SWIDTH 504 0
DWIDTH 12 0
BBX 10 17 1 -5
BITMAP
1F00
7F80
6180
0180
0180
1F80
7F80
E180
C180
E380
7E80
3C80
0180
0300
0200
0200
03C0
ENDCHAR
STARTCHAR Cacute
ENCODING 262
SWIDTH 571 0
DWIDTH 14 0
BBX 12 21 1 0
BITMAP
0080
01C0
0380
0200
0000
0780
1FE0
3870
7000
6000
6000
C000
C000
C000
C000
6000
6000
7020
3870
1FE0
0F80
ENDCHAR
STARTCHAR cacute
ENCODING 263
SWIDTH 456 0
DWIDTH 11 0
BBX 9 19 1 0
BITMAP
0100
0380
0300
0600
0C00
0000
0000
1F00
3F80
7180
6000
C000
C000
C000
C000
E000
7180
3F80
1F00
ENDCHAR
STARTCHAR Ccircumflex
ENCODING 264
SWIDTH 571 0
DWIDTH 14 0
BBX 12 20 1 0
BITMAP
0700
0CC0
1840
0000
0780
1FE0
3870
7000
6000
6000
C000
C000
C000
C000
6000
6000
7020
3870
1FE0
0F80
ENDCHAR
STARTCHAR ccircumflex
ENCODING 265
SWIDTH 456 0
DWIDTH 11 0
BBX 9 18 1 0
BITMAP
0E00
1F00
1180
2080
0000
0000
1F00
3F80
7180
6000
C000
C000
C000
C000
E000
7180
3F80
1F00
ENDCHAR
STARTCHAR Cdotaccent
ENCODING 266
SWIDTH 571 0
DWIDTH 14 0
BBX 12 20 1 0
BITMAP
0300
0300
0300
0000
0780
1FE0
3870
7000
6000
6000
C000
C000
C000
C000
6000
6000
7020
3870
1FE0
0F80
ENDCHAR
STARTCHAR cdotaccent
ENCODING 267
SWIDTH 456 0
DWIDTH 11 0
BBX 9 17 1 0
BITMAP
0600
0E00
0600
0000
0000
1F00
3F80
7180
6000
C000
C000
C000
C000
E000
7180
3F80
1F00
ENDCHAR
STARTCHAR Ccaron
ENCODING 268
SWIDTH 571 0
DWIDTH 14 0
BBX 12 20 1 0
BITMAP
1840
0CC0
0700
0000
0780
1FE0
3870
7000
6000
6000
C000
C000
C000
C000
6000
6000
7020
3870
1FE0
0F80
ENDCHAR
STARTCHAR ccaron
ENCODING 269
SWIDTH 456 0
DWIDTH 11 0
BBX 9 18 1 0
BITMAP
2080
1180
1F00
0E00
0000
0000
1F00
3F80
7180
6000
C000
C000
C000
C000
E000
7180
3F80
1F00
ENDCHAR
STARTCHAR Dcaron
ENCODING 270
SWIDTH 615 0
DWIDTH 15 0
BBX 12 20 2 0
BITMAP
2180
1B00
0E00
0000
FE00
FF80
C1C0
C0E0
C060
C060
C060
C070
C070
C060
C060
C060
C0E0
C1C0
FF80
FE00
ENDCHAR
STARTCHAR dcaron
ENCODING 271
SWIDTH 573 0
DWIDTH 14 0
BBX 13 18 1 0
BITMAP
0008
00C8
00C8
00C8
00C8
00C0
1EC0
3FC0
71C0
60C0
C0C0
C0C0
C0C0
C0C0
E0C0
71C0
7F40
1E40
ENDCHAR
STARTCHAR Dcroat
ENCODING 272
SWIDTH 638 0
DWIDTH 15 0
BBX 13 16 1 0
BITMAP
3F80
3FE0
30F0
3030
3038
3018
FE18
FE18
3018
3018
3018
3038
3030
30E0
3FE0
3F80
ENDCHAR
STARTCHAR dcroat
ENCODING 273
SWIDTH 555 0
DWIDTH 13 0
BBX 12 17 1 0
BITMAP
00C0
00C0
0FF0
0FF0
00C0
00C0
00C0
1EC0
3FC0
71C0
E0C0
C0C0
C0C0
C0C0
61C0
7FC0
1E40
ENDCHAR
STARTCHAR Emacron
ENCODING 274
SWIDTH 527 0
DWIDTH 13 0
BBX 9 18 2 0
BITMAP
3F00
0000
FF80
FF80
C000
C000
C000
C000
FF00
FF00
C000
C000
C000
C000
C000
C000
FF80
FF80
ENDCHAR
STARTCHAR emacron
ENCODING 275
SWIDTH 496 0
DWIDTH 12 0
BBX 10 15 1 0
BITMAP
3F80
0000
0000
1F00
3F80
61C0
40C0
FFC0
FFC0
C000
C000
6000
7080
3FC0
1F00
ENDCHAR
STARTCHAR Ebreve
ENCODING 276
SWIDTH 527 0
DWIDTH 13 0
BBX 9 20 2 0
BITMAP
6100
2300
1E00
0000
FF80
FF80
C000
C000
C000
C000
FF00
FF00
C000
C000
C000
C000
C000
C000
FF80
FF80
ENDCHAR
STARTCHAR ebreve
ENCODING 277
SWIDTH 496 0
DWIDTH 12 0
BBX 10 18 1 0
BITMAP
2080
2180
3100
1E00
0000
0000
1F00
3F80
61C0
40C0
FFC0
FFC0
C000
C000
6000
7080
3FC0
1F00
ENDCHAR
STARTCHAR Edotaccent
ENCODING 278
SWIDTH 527 0
DWIDTH 13 0
BBX 9 20 2 0
BITMAP
0C00
1C00
0C00
0000
FF80
FF80
C000
C000
C000
C000
FF00
FF00
C000
C000
C000
C000
C000
C000
FF80
FF80
ENDCHAR
STARTCHAR edotaccent
ENCODING 279
SWIDTH 496 0
DWIDTH 12 0
BBX 10 17 1 0
BITMAP
0C00
0E00
0C00
0000
0000
1F00
3F80
61C0
40C0
FFC0
FFC0
C000
C000
6000
7080
3FC0
1F00
ENDCHAR
STARTCHAR Eogonek
ENCODING 280
SWIDTH 527 0
DWIDTH 13 0
BBX 10 21 2 -5
BITMAP
FF80
FF80
C000
C000
C000
C000
FF00
FF00
C000
C000
C000
C000
C000
C000
FF80
FF80
0100
0300
0200
0200
03C0
ENDCHAR
STARTCHAR eogonek
ENCODING 281
SWIDTH 496 0
DWIDTH 12 0
BBX 10 17 1 -5
BITMAP
1F00
3F80
61C0
40C0
FFC0
FFC0
C000
C000
6000
7080
3FC0
1F00
0300
0200
0600
0200
0380
ENDCHAR
STARTCHAR Ecaron
ENCODING 282
SWIDTH 527 0
DWIDTH 13 0
BBX 9 20 2 0
BITMAP
6100
3600
1C00
0000
FF80
FF80
C000
C000
C000
C000
FF00
FF00
C000
C000
C000
C000
C000
C000
FF80
FF80
ENDCHAR
STARTCHAR ecaron
ENCODING 283
SWIDTH 496 0
DWIDTH 12 0
BBX 10 18 1 0
BITMAP
2080
3100
1B00
0E00
0000
0000
1F00
3F80
61C0
40C0
FFC0
FFC0
C000
C000
6000
7080
3FC0
1F00
ENDCHAR
STARTCHAR Gcircumflex
ENCODING 284
SWIDTH 617 0
DWIDTH 15 0
BBX 12 20 1 0
BITMAP
0380
06C0
0860
0000
07C0
1FE0
3830
7000
6000
6000
C000
C1F0
C1F0
C030
6030
6030
7030
3830
1FF0
07C0
ENDCHAR
STARTCHAR gcircumflex
ENCODING 285
SWIDTH 504 0
DWIDTH 12 0
BBX 11 23 1 -5
BITMAP
0E00
1B00
3180
2080
0000
0000
1FE0
7FE0
6180
4180
6180
6180
3F00
7E00
4000
6000
7F80
7FE0
C060
C060
E0C0
7FC0
3F00
ENDCHAR
STARTCHAR Gbreve
ENCODING 286
SWIDTH 617 0
DWIDTH 15 0
BBX 12 20 1 0
BITMAP
0820
0C60
07C0
0000
07C0
1FE0
3830
7000
6000
6000
C000
C1F0
C1F0
C030
6030
6030
7030
3830
1FF0
07C0
ENDCHAR
STARTCHAR gbreve
ENCODING 287
SWIDTH 504 0
DWIDTH 12 0
BBX 11 23 1 -5
BITMAP
2080
2180
3100
1E00
0000
0000
1FE0
7FE0
6180
4180
6180
6180
3F00
7E00
4000
6000
7F80
7FE0
C060
C060
E0C0
7FC0
3F00
ENDCHAR
STARTCHAR Gdotaccent
ENCODING 288
SWIDTH 617 0
DWIDTH 15 0
BBX 12 20 1 0
BITMAP
0300
0380
0380
0000
07C0
1FE0
3830
7000
6000
6000
C000
C1F0
C1F0
C030
6030
6030
7030
3830
1FF0
07C0
ENDCHAR
STARTCHAR gdotaccent
ENCODING 289
SWIDTH 504 0
DWIDTH 12 0
BBX 11 22 1 -5
BITMAP
0C00
0E00
0C00
0000
0000
1FE0
7FE0
6180
4180
6180
6180
3F00
7E00
4000
6000
7F80
7FE0
C060
C060
E0C0
7FC0
3F00
ENDCHAR
STARTCHAR uni0122
ENCODING 290
SWIDTH 617 0
DWIDTH 15 0
BBX 12 21 1 -5
BITMAP
07C0
1FE0
3830
7000
6000
6000
C000
C1F0
C1F0
C030
6030
6030
7030
3830
1FF0
07C0
0000
0300
0080
0180
0700
ENDCHAR
STARTCHAR uni0123
ENCODING 291
SWIDTH 504 0
DWIDTH 12 0
BBX 11 23 1 -5
BITMAP
0700
0800
0800
0E00
0000
0000
1FE0
7FE0
6180
4180
6180
6180
3F00
7E00
4000
6000
7F80
7FE0
C060
C060
E0C0
7FC0
3F00
ENDCHAR
STARTCHAR Hcircumflex
ENCODING 292
SWIDTH 652 0
DWIDTH 16 0
BBX 11 20 2 0
BITMAP
0E00
1900
3080
0000
C060
C060
C060
C060
C060
C060
FFE0
FFE0
C060
C060
C060
C060
C060
C060
C060
C060
ENDCHAR
STARTCHAR hcircumflex
ENCODING 293
SWIDTH 544 0
DWIDTH 13 0
BBX 12 21 -1 0
BITMAP
3C00
6600
C300
0000
1800
1800
1800
1800
1800
19E0
1FF0
1E30
1830
1830
1830
1830
1830
1830
1830
1830
1830
ENDCHAR
STARTCHAR Hbar
ENCODING 294
SWIDTH 687 0
DWIDTH 16 0
BBX 15 16 1 0
BITMAP
3018
3018
FFFE
FFFE
3018
3018
3018
3FF8
3FF8
3018
3018
3018
3018
3018
3018
3018
ENDCHAR
STARTCHAR hbar
ENCODING 295
SWIDTH 544 0
DWIDTH 13 0
BBX 11 17 0 0
BITMAP
3000
3000
FF00
3000
3000
3000
33C0
3FE0
3860
3060
3060
3060
3060
3060
3060
3060
3060
ENDCHAR
STARTCHAR Itilde
ENCODING 296
SWIDTH 263 0
DWIDTH 6 0
BBX 8 19 -1 0
BITMAP
F9
8F
00
18
18
18
18
18
18
18
18
18
18
18
18
18
18
18
18
ENDCHAR
STARTCHAR itilde
ENCODING 297
SWIDTH 246 0
DWIDTH 6 0
BBX 8 17 -1 0
BITMAP
20
FB
8E
00
00
18
18
18
18
18
18
18
18
18
18
18
18
ENDCHAR
STARTCHAR Imacron
ENCODING 298
SWIDTH 263 0
DWIDTH 6 0
BBX 6 18 0 0
BITMAP
FC
00
30
30
30
30
30
30
30
30
30
30
30
30
30
30
30
30
ENDCHAR
STARTCHAR imacron
ENCODING 299
SWIDTH 246 0
DWIDTH 6 0
BBX 6 15 0 0
BITMAP
FC
00
00
30
30
30
30
30
30
30
30
30
30
30
30
ENDCHAR
STARTCHAR uni012C
ENCODING 300
SWIDTH 263 0
DWIDTH 6 0
BBX 7 20 0 0
BITMAP
86
C4
78
00
30
30
30
30
30
30
30
30
30
30
30
30
30
30
30
30
ENDCHAR
STARTCHAR uni012D
ENCODING 301
SWIDTH 246 0
DWIDTH 6 0
BBX 8 18 -1 0
BITMAP
C3
C2
66
3C
00
00
18
18
18
18
18
18
18
18
18
18
18
18
ENDCHAR
STARTCHAR Iogonek
ENCODING 302
SWIDTH 263 0
DWIDTH 6 0
BBX 4 21 1 -5
BITMAP
60
60
60
60
60
60
60
60
60
60
60
60
60
60
60
60
60
C0
C0
C0
70
ENDCHAR
STARTCHAR iogonek
ENCODING 303
SWIDTH 246 0
DWIDTH 6 0
BBX 4 22 1 -5
BITMAP
60
60
60
00
00
60
60
60
60
60
60
60
60
60
60
60
60
40
C0
80
C0
70
ENDCHAR
STARTCHAR Idotaccent
ENCODING 304
SWIDTH 263 0
DWIDTH 6 0
BBX 3 20 2 0
BITMAP
C0
E0
C0
00
C0
C0
C0
C0
C0
C0
C0
C0
C0
C0
C0
C0
C0
C0
C0
C0
ENDCHAR
STARTCHAR dotlessi
ENCODING 305
SWIDTH 246 0
DWIDTH 6 0
BBX 2 12 2 0
BITMAP
C0
C0
C0
C0
C0
C0
C0
C0
C0
C0
C0
C0
ENDCHAR
STARTCHAR uni0132
ENCODING 306
SWIDTH 526 0
DWIDTH 13 0
BBX 8 20 2 -4
BITMAP
C3
C3
C3
C3
C3
C3
C3
C3
C3
C3
C3
C3
C3
C3
C3
C3
03
03
0F
0E
ENDCHAR
STARTCHAR uni0133
ENCODING 307
SWIDTH 493 0
DWIDTH 12 0
BBX 8 22 2 -5
BITMAP
C3
C3
82
00
00
C3
C3
C3
C3
C3
C3
C3
C3
C3
C3
C3
C3
03
03
03
1E
1E
ENDCHAR
STARTCHAR Jcircumflex
ENCODING 308
SWIDTH 480 0
DWIDTH 12 0
BBX 11 20 1 0
BITMAP
0380
06C0
0860
0000
0300
0300
0300
0300
0300
0300
0300
0300
0300
0300
0300
0300
8300
C300
7E00
3C00
ENDCHAR
STARTCHAR jcircumflex
ENCODING 309
SWIDTH 247 0
DWIDTH 6 0
BBX 8 23 -1 -5
BITMAP
18
3C
66
C3
00
00
18
18
18
18
18
18
18
18
18
18
18
18
18
18
18
F0
F0
ENDCHAR
STARTCHAR uni0136
ENCODING 310
SWIDTH 579 0
DWIDTH 14 0
BBX 12 21 2 -5
BITMAP
C0E0
C0C0
C180
C300
C600
CE00
DC00
DE00
F600
E300
E380
C180
C0C0
C0C0
C060
C070
0000
0600
0B00
0300
0C00
ENDCHAR
STARTCHAR uni0137
ENCODING 311
SWIDTH 495 0
DWIDTH 12 0
BBX 10 22 2 -5
BITMAP
C000
C000
C000
C000
C000
C180
C300
C600
CC00
C800
DC00
FC00
E600
C700
C300
C180
C180
0040
1800
0400
0C00
3800
ENDCHAR
STARTCHAR kgreenlandic
ENCODING 312
SWIDTH 495 0
DWIDTH 12 0
BBX 10 12 2 0
BITMAP
C180
C300
C600
CC00
DC00
DC00
FC00
E600
C700
C300
C180
C1C0
ENDCHAR
STARTCHAR Lacute
ENCODING 313
SWIDTH 486 0
DWIDTH 12 0
BBX 9 21 2 0
BITMAP
1000
3000
E000
8000
0000
C000
C000
C000
C000
C000
C000
C000
C000
C000
C000
C000
C000
C000
C000
FF80
FF80
ENDCHAR
STARTCHAR lacute
ENCODING 314
SWIDTH 255 0
DWIDTH 6 0
BBX 4 22 2 0
BITMAP
20
70
C0
80
00
C0
C0
C0
C0
C0
C0
C0
C0
C0
C0
C0
C0
C0
C0
C0
E0
60
ENDCHAR
STARTCHAR uni013B
ENCODING 315
SWIDTH 486 0
DWIDTH 12 0
BBX 9 21 2 -5
BITMAP
C000
C000
C000
C000
C000
C000
C000
C000
C000
C000
C000
C000
C000
C000
FF80
FF80
0000
0C00
0600
0600
1800
ENDCHAR
STARTCHAR uni013C
ENCODING 316
SWIDTH 255 0
DWIDTH 6 0
BBX 5 22 1 -5
BITMAP
60
60
60
60
60
60
60
60
60
60
60
60
60
60
60
70
30
00
30
58
10
E0
ENDCHAR
STARTCHAR Lcaron
ENCODING 317
SWIDTH 486 0
DWIDTH 12 0
BBX 9 17 2 0
BITMAP
0200
C200
C200
C200
C200
C000
C000
C000
C000
C000
C000
C000
C000
C000
C000
FF80
FF80
ENDCHAR
STARTCHAR lcaron
ENCODING 318
SWIDTH 270 0
DWIDTH 6 0
BBX 5 18 2 0
BITMAP
18
D8
D8
D0
D0
C0
C0
C0
C0
C0
C0
C0
C0
C0
C0
C0
E0
60
ENDCHAR
STARTCHAR Ldot
ENCODING 319
SWIDTH 486 0
DWIDTH 12 0
BBX 9 16 2 0
BITMAP
C000
C000
C000
C000
C000
C000
C300
C300
C300
C000
C000
C000
C000
C000
FF80
FF80
ENDCHAR
STARTCHAR ldot
ENCODING 320
SWIDTH 362 0
DWIDTH 9 0
BBX 7 17 2 0
BITMAP
C0
C0
C0
C0
C0
C0
C0
CC
CE
CC
C0
C0
C0
C0
C0
E0
60
ENDCHAR
STARTCHAR Lslash
ENCODING 321
SWIDTH 489 0
DWIDTH 12 0
BBX 11 16 0 0
BITMAP
3000
3000
3000
3000
3000
3180
3780
3E00
3800
F000
B000
3000
3000
3000
3FE0
3FE0
ENDCHAR
STARTCHAR lslash
ENCODING 322
SWIDTH 262 0
DWIDTH 6 0
BBX 6 17 0 0
BITMAP
30
30
30
30
30
34
3C
78
F0
B0
30
30
30
30
30
38
18
ENDCHAR
STARTCHAR Nacute
ENCODING 323
SWIDTH 647 0
DWIDTH 16 0
BBX 11 21 2 0
BITMAP
0100
0380
0600
0400
0000
E060
E060
F060
F060
D860
D860
CC60
CC60
C660
C360
C320
C1A0
C1A0
C0E0
C0E0
C060
ENDCHAR
STARTCHAR nacute
ENCODING 324
SWIDTH 547 0
DWIDTH 13 0
BBX 9 19 2 0
BITMAP
0100
0300
0600
0C00
0800
0000
0000
CF00
FF80
E180
C180
C180
C180
C180
C180
C180
C180
C180
C180
ENDCHAR
STARTCHAR uni0145
ENCODING 325
SWIDTH 647 0
DWIDTH 16 0
BBX 11 21 2 -5
BITMAP
E060
E060
F060
F060
D860
D860
CC60
CC60
C660
C360
C320
C1A0
C1A0
C0E0
C0E0
C060
0000
0600
0B00
0300
0E00
ENDCHAR
STARTCHAR uni0146
ENCODING 326
SWIDTH 547 0
DWIDTH 13 0
BBX 9 17 2 -5
BITMAP
CF00
FF80
E180
C180
C180
C180
C180
C180
C180
C180
C180
C180
0000
0C00
1600
0400
3800
ENDCHAR
STARTCHAR Ncaron
ENCODING 327
SWIDTH 647 0
DWIDTH 16 0
BBX 11 20 2 0
BITMAP
3080
1900
0E00
0000
E060
E060
F060
F060
D860
D860
CC60
CC60
C660
C360
C320
C1A0
C1A0
C0E0
C0E0
C060
ENDCHAR
STARTCHAR ncaron
ENCODING 328
SWIDTH 547 0
DWIDTH 13 0
BBX 9 18 2 0
BITMAP
2100
7380
1E00
0C00
0000
0000
CF00
FF80
E180
C180
C180
C180
C180
C180
C180
C180
C180
C180
ENDCHAR
STARTCHAR napostrophe
ENCODING 329
SWIDTH 775 0
DWIDTH 19 0
BBX 15 17 2 0
BITMAP
C000
E000
6000
4000
C000
8678
07FC
078C
070E
0606
0606
0606
0606
0606
0606
0606
0606
ENDCHAR
STARTCHAR uni014A
ENCODING 330
SWIDTH 635 0
DWIDTH 15 0
BBX 12 16 2 0
BITMAP
CF80
DFC0
F0E0
E060
C070
C030
C030
C030
C030
C030
C030
C030
C060
C060
C3E0
C3C0
ENDCHAR
STARTCHAR uni014B
ENCODING 331
SWIDTH 547 0
DWIDTH 13 0
BBX 9 17 2 -5
BITMAP
CF00
FF80
F180
C180
C180
C180
C180
C180
C180
C180
C180
C180
0180
0180
0180
0780
0F00
ENDCHAR
STARTCHAR Omacron
ENCODING 332
SWIDTH 664 0
DWIDTH 16 0
BBX 14 18 1 0
BITMAP
0FC0
0000
0F80
1FE0
3870
7038
6018
E018
C00C
C00C
C00C
C01C
6018
6018
7038
3870
1FE0
0FC0
ENDCHAR
STARTCHAR omacron
ENCODING 333
SWIDTH 542 0
DWIDTH 13 0
BBX 11 15 1 0
BITMAP
3F80
0000
0000
1F00
3F80
71C0
60C0
C060
C060
C060
C060
60C0
71C0
3F80
1F00
ENDCHAR
STARTCHAR uni014E
ENCODING 334
SWIDTH 664 0
DWIDTH 16 0
BBX 14 20 1 0
BITMAP
1840
08C0
0780
0000
0F80
1FE0
3870
7038
6018
E018
C00C
C00C
C00C
C01C
6018
6018
7038
3870
1FE0
0FC0
ENDCHAR
STARTCHAR uni014F
ENCODING 335
SWIDTH 542 0
DWIDTH 13 0
BBX 11 18 1 0
BITMAP
2080
2080
3180
1E00
0000
0000
1F00
3F80
71C0
60C0
C060
C060
C060
C060
60C0
71C0
3F80
1F00
ENDCHAR
STARTCHAR Ohungarumlaut
ENCODING 336
SWIDTH 664 0
DWIDTH 16 0
BBX 14 21 1 0
BITMAP
0320
0230
0660
04C0
0000
0F80
1FE0
3870
7038
6018
E018
C00C
C00C
C00C
C01C
6018
6018
7038
3870
1FE0
0FC0
ENDCHAR
STARTCHAR ohungarumlaut
ENCODING 337
SWIDTH 542 0
DWIDTH 13 0
BBX 11 18 1 0
BITMAP
04C0
06C0
0D80
0900
1800
0000
1F00
3F80
71C0
60C0
C060
C060
C060
C060
60C0
71C0
3F80
1F00
ENDCHAR
STARTCHAR OE
ENCODING 338
SWIDTH 847 0
DWIDTH 20 0
BBX 18 16 1 0
BITMAP
07FFC0
1FFFC0
386000
706000
606000
E06000
C07F80
C07F80
C06000
C06000
606000
606000
706000
386000
1FFFC0
07FFC0
ENDCHAR
STARTCHAR oe
ENCODING 339
SWIDTH 839 0
DWIDTH 20 0
BBX 18 12 1 0
BITMAP
1E0F00
3F9F80
71B0C0
60E0C0
C0FFC0
C07FC0
C06000
C0E000
E0E000
71B080
3F9FC0
1E0F00
ENDCHAR
STARTCHAR Racute
ENCODING 340
SWIDTH 569 0
DWIDTH 14 0
BBX 11 21 2 0
BITMAP
0200
0700
0E00
0800
0000
FF00
FFC0
C1C0
C0C0
C060
C060
C0C0
C1C0
FF80
FE00
C700
C300
C180
C1C0
C0C0
C0E0
ENDCHAR
STARTCHAR racute
ENCODING 341
SWIDTH 347 0
DWIDTH 8 0
BBX 7 19 2 0
BITMAP
04
0E
18
30
20
00
00
DC
FC
E0
C0
C0
C0
C0
C0
C0
C0
C0
C0
ENDCHAR
STARTCHAR uni0156
ENCODING 342
SWIDTH 569 0
DWIDTH 14 0
BBX 11 21 2 -5
BITMAP
FF00
FFC0
C1C0
C0C0
C060
C060
C0C0
C1C0
FF80
FE00
C700
C300
C180
C1C0
C0C0
C0E0
0000
0C00
0600
0600
1C00
ENDCHAR
STARTCHAR uni0157
ENCODING 343
SWIDTH 347 0
DWIDTH 8 0
BBX 7 17 1 -5
BITMAP
6E
7E
70
60
60
60
60
60
60
60
60
60
00
60
30
30
C0
ENDCHAR
STARTCHAR Rcaron
ENCODING 344
SWIDTH 569 0
DWIDTH 14 0
BBX 11 20 2 0
BITMAP
6100
3200
1C00
0000
FF00
FFC0
C1C0
C0C0
C060
C060
C0C0
C1C0
FF80
FE00
C700
C300
C180
C1C0
C0C0
C0E0
ENDCHAR
STARTCHAR rcaron
ENCODING 345
SWIDTH 347 0
DWIDTH 8 0
BBX 8 18 1 0
BITMAP
41
E6
3C
1C
00
00
6E
7E
70
60
60
60
60
60
60
60
60
60
ENDCHAR
STARTCHAR Sacute
ENCODING 346
SWIDTH 534 0
DWIDTH 13 0
BBX 11 21 1 0
BITMAP
0100
0380
0600
0C00
0000
1F00
3FC0
70C0
6000
6000
6000
3800
1F00
0780
01C0
0060
0060
4060
E0C0
7FC0
1F00
ENDCHAR
STARTCHAR sacute
ENCODING 347
SWIDTH 419 0
DWIDTH 10 0
BBX 8 19 1 0
BITMAP
02
07
0E
18
10
00
00
3C
7F
E2
C0
60
7C
0E
03
03
C3
FF
3C
ENDCHAR
STARTCHAR Scircumflex
ENCODING 348
SWIDTH 534 0
DWIDTH 13 0
BBX 11 20 1 0
BITMAP
0E00
1B00
3080
0000
1F00
3FC0
70C0
6000
6000
6000
3800
1F00
0780
01C0
0060
0060
4060
E0C0
7FC0
1F00
ENDCHAR
STARTCHAR scircumflex
ENCODING 349
SWIDTH 419 0
DWIDTH 10 0
BBX 8 18 1 0
BITMAP
1C
3E
66
41
00
00
3C
7F
E2
C0
60
7C
0E
03
03
C3
FF
3C
ENDCHAR
STARTCHAR uni015E
ENCODING 350
SWIDTH 534 0
DWIDTH 13 0
BBX 11 21 1 -5
BITMAP
1F00
3FC0
70C0
6000
6000
6000
3800
1F00
0780
01C0
0060
0060
4060
E0C0
7FC0
1F00
0400
0E00
0200
0200
1C00
ENDCHAR
STARTCHAR uni015F
ENCODING 351
SWIDTH 419 0
DWIDTH 10 0
BBX 8 17 1 -5
BITMAP
3C
7F
E2
C0
60
7C
0E
03
03
C3
FF
3C
18
1C
0C
0C
38
ENDCHAR
STARTCHAR Scaron
ENCODING 352
SWIDTH 534 0
DWIDTH 13 0
BBX 11 20 1 0
BITMAP
3080
1B00
0E00
0000
1F00
3FC0
70C0
6000
6000
6000
3800
1F00
0780
01C0
0060
0060
4060
E0C0
7FC0
1F00
ENDCHAR
STARTCHAR scaron
ENCODING 353
SWIDTH 419 0
DWIDTH 10 0
BBX 8 18 1 0
BITMAP
41
66
3E
1C
00
00
3C
7F
E2
C0
60
7C
0E
03
03
C3
FF
3C
ENDCHAR
STARTCHAR uni0162
ENCODING 354
SWIDTH 536 0
DWIDTH 13 0
BBX 11 21 1 -5
BITMAP
FFE0
FFE0
0C00
0C00
0C00
0C00
0C00
0C00
0C00
0C00
0C00
0C00
0C00
0C00
0C00
0C00
0C00
0E00
0600
0600
1C00
ENDCHAR
STARTCHAR uni0163
ENCODING 355
SWIDTH 338 0
DWIDTH 8 0
BBX 7 20 1 -5
BITMAP
20
20
60
FC
FC
60
60
60
60
60
60
60
70
3E
1E
18
18
0C
0C
38
ENDCHAR
STARTCHAR Tcaron
ENCODING 356
SWIDTH 536 0
DWIDTH 13 0
BBX 11 20 1 0
BITMAP
2180
1B00
0E00
0000
FFE0
FFE0
0C00
0C00
0C00
0C00
0C00
0C00
0C00
0C00
0C00
0C00
0C00
0C00
0C00
0C00
ENDCHAR
STARTCHAR tcaron
ENCODING 357
SWIDTH 338 0
DWIDTH 8 0
BBX 7 18 1 0
BITMAP
04
04
04
24
24
60
FC
FC
60
60
60
60
60
60
60
70
3E
1E
ENDCHAR
STARTCHAR uni0166
ENCODING 358
SWIDTH 536 0
DWIDTH 13 0
BBX 11 16 1 0
BITMAP
FFE0
FFE0
0C00
0C00
0C00
0C00
0C00
7F80
7F80
0C00
0C00
0C00
0C00
0C00
0C00
0C00
ENDCHAR
STARTCHAR uni0167
ENCODING 359
SWIDTH 338 0
DWIDTH 8 0
BBX 7 15 1 0
BITMAP
20
20
60
FC
FC
60
60
60
FC
60
60
60
70
3E
1E
ENDCHAR
STARTCHAR Utilde
ENCODING 360
SWIDTH 645 0
DWIDTH 15 0
BBX 11 19 2 0
BITMAP
3CC0
2380
4000
C060
C060
C060
C060
C060
C060
C060
C060
C060
C060
C060
C060
6060
70E0
3FC0
1F00
ENDCHAR
STARTCHAR utilde
ENCODING 361
SWIDTH 544 0
DWIDTH 13 0
BBX 9 17 2 0
BITMAP
2000
7980
C700
0000
0000
C180
C180
C180
C180
C180
C180
C180
C180
C180
E380
FF80
7980
ENDCHAR
STARTCHAR Umacron
ENCODING 362
SWIDTH 645 0
DWIDTH 15 0
BBX 11 18 2 0
BITMAP
1F80
0000
C060
C060
C060
C060
C060
C060
C060
C060
C060
C060
C060
C060
6060
70E0
3FC0
1F00
ENDCHAR
STARTCHAR umacron
ENCODING 363
SWIDTH 544 0
DWIDTH 13 0
BBX 9 15 2 0
BITMAP
7F00
0000
0000
C180
C180
C180
C180
C180
C180
C180
C180
C180
E380
FF80
7980
ENDCHAR
STARTCHAR Ubreve
ENCODING 364
SWIDTH 645 0
DWIDTH 15 0
BBX 11 20 2 0
BITMAP
3080
1180
0F00
0000
C060
C060
C060
C060
C060
C060
C060
C060
C060
C060
C060
C060
6060
70E0
3FC0
1F00
ENDCHAR
STARTCHAR ubreve
ENCODING 365
SWIDTH 544 0
DWIDTH 13 0
BBX 9 18 2 0
BITMAP
4100
4100
6300
1E00
0000
0000
C180
C180
C180
C180
C180
C180
C180
C180
C180
E380
FF80
7980
ENDCHAR
STARTCHAR Uring
ENCODING 366
SWIDTH 645 0
DWIDTH 15 0
BBX 11 21 2 0
BITMAP
0E00
1900
1900
0E00
0000
C060
C060
C060
C060
C060
C060
C060
C060
C060
C060
C060
C060
6060
70E0
3FC0
1F00
ENDCHAR
STARTCHAR uring
ENCODING 367
SWIDTH 544 0
DWIDTH 13 0
BBX 9 18 2 0
BITMAP
1C00
3200
2200
2200
1C00
0000
C180
C180
C180
C180
C180
C180
C180
C180
C180
E380
FF80
7980
ENDCHAR
STARTCHAR Uhungarumlaut
ENCODING 368
SWIDTH 645 0
DWIDTH 15 0
BBX 11 21 2 0
BITMAP
0440
06E0
0880
1980
0000
C060
C060
C060
C060
C060
C060
C060
C060
C060
C060
C060
C060
6060
70E0
3FC0
1F00
ENDCHAR
STARTCHAR uhungarumlaut
ENCODING 369
SWIDTH 544 0
DWIDTH 13 0
BBX 9 18 2 0
BITMAP
0880
0D80
1900
1200
3000
0000
C180
C180
C180
C180
C180
C180
C180
C180
C180
E380
FF80
7980
ENDCHAR
STARTCHAR Uogonek
ENCODING 370
SWIDTH 645 0
DWIDTH 15 0
BBX 11 21 2 -5
BITMAP
C060
C060
C060
C060
C060
C060
C060
C060
C060
C060
C060
C060
6060
70C0
3FC0
1F00
0600
0C00
0C00
0C00
0700
ENDCHAR
STARTCHAR uogonek
ENCODING 371
SWIDTH 544 0
DWIDTH 13 0
BBX 10 17 2 -5
BITMAP
C180
C180
C180
C180
C180
C180
C180
C180
C180
C380
FF80
7980
0100
0200
0200
0200
03C0
ENDCHAR
STARTCHAR Wcircumflex
ENCODING 372
SWIDTH 786 0
DWIDTH 19 0
BBX 17 20 1 0
BITMAP
01C000
036000
043000
000000
C1C180
C1C180
C1C180
C14180
C36300
636300
636300
622300
663300
263200
363600
341600
341600
3C1E00
1C1C00
181C00
ENDCHAR
STARTCHAR wcircumflex
ENCODING 373
SWIDTH 718 0
DWIDTH 17 0
BBX 16 18 1 0
BITMAP
0380
06C0
0460
0820
0000
0000
C183
C386
C286
42C6
62C6
66CC
664C
246C
3C68
3C68
3C38
1838
ENDCHAR
STARTCHAR Ycircumflex
ENCODING 374
SWIDTH 476 0
DWIDTH 11 0
BBX 11 20 0 0
BITMAP
0E00
1B00
3080
0000
C060
6060
60C0
30C0
3180
1980
1B00
0B00
0E00
0600
0600
0600
0600
0600
0600
0600
ENDCHAR
STARTCHAR ycircumflex
ENCODING 375
SWIDTH 467 0
DWIDTH 11 0
BBX 11 23 0 -5
BITMAP
0E00
0F00
1980
20C0
0000
0000
E060
6040
60C0
30C0
3080
3180
1980
1900
0B00
0F00
0E00
0600
0600
0C00
1C00
7800
7000
ENDCHAR
STARTCHAR Ydieresis
ENCODING 376
SWIDTH 476 0
DWIDTH 11 0
BBX 11 19 0 0
BITMAP
3180
3180
0000
C060
6060
60C0
30C0
3180
1980
1B00
0B00
0E00
0600
0600
0600
0600
0600
0600
0600
ENDCHAR
STARTCHAR Zacute
ENCODING 377
SWIDTH 539 0
DWIDTH 13 0
BBX 11 21 1 0
BITMAP
0100
0380
0600
0C00
0000
7FE0
7FE0
00C0
0180
0180
0300
0600
0600
0C00
1800
3800
3000
7000
E000
FFE0
FFE0
ENDCHAR
STARTCHAR zacute
ENCODING 378
SWIDTH 425 0
DWIDTH 10 0
BBX 9 19 1 0
BITMAP
0200
0700
0E00
0C00
1800
0000
0000
FF00
FF00
0200
0600
0C00
1800
1800
3000
6000
6000
FF80
FF80
ENDCHAR
STARTCHAR Zdotaccent
ENCODING 379
SWIDTH 539 0
DWIDTH 13 0
BBX 11 20 1 0
BITMAP
0600
0E00
0600
0000
7FE0
7FE0
00C0
0180
0180
0300
0600
0600
0C00
1800
3800
3000
7000
E000
FFE0
FFE0
ENDCHAR
STARTCHAR zdotaccent
ENCODING 380
SWIDTH 425 0
DWIDTH 10 0
BBX 9 17 1 0
BITMAP
1800
1C00
1800
0000
0000
FF00
FF00
0200
0600
0C00
1800
1800
3000
6000
6000
FF80
FF80
ENDCHAR
STARTCHAR Zcaron
ENCODING 381
SWIDTH 539 0
DWIDTH 13 0
BBX 11 20 1 0
BITMAP
3080
1B00
0E00
0000
7FE0
7FE0
00C0
0180
0180
0300
0600
0600
0C00
1800
3800
3000
7000
E000
FFE0
FFE0
ENDCHAR
STARTCHAR zcaron
ENCODING 382
SWIDTH 425 0
DWIDTH 10 0
BBX 9 18 1 0
BITMAP
4100
6300
3600
1C00
0000
0000
FF00
FF00
0200
0600
0C00
1800
1800
3000
6000
6000
FF80
FF80
ENDCHAR
STARTCHAR uni0180
ENCODING 384
SWIDTH 544 0
DWIDTH 13 0
BBX 12 17 0 0
BITMAP
3000
3000
FF00
3000
3000
3000
33C0
3FE0
3870
3030
3030
3030
3030
3030
3860
3FE0
3780
ENDCHAR
STARTCHAR uni018F
ENCODING 399
SWIDTH 658 0
DWIDTH 16 0
BBX 14 16 1 0
BITMAP
0FC0
1FE0
3870
2038
0018
0018
0008
FFFC
FFFC
4018
6018
6018
7038
3870
1FE0
0FC0
ENDCHAR
STARTCHAR uni0192
ENCODING 402
SWIDTH 497 0
DWIDTH 12 0
BBX 11 19 0 -3
BITMAP
01E0
03E0
0300
0600
0600
0600
1FC0
1FC0
0600
0600
0600
0C00
0C00
0C00
0C00
0C00
1C00
7800
F000
ENDCHAR
STARTCHAR uni0193
ENCODING 403
SWIDTH 617 0
DWIDTH 15 0
BBX 14 19 1 0
BITMAP
003C
003C
0020
07E0
1FF0
3820
7000
6000
6000
C000
C1F0
C1F0
C030
6030
6030
7030
3830
1FF0
07C0
ENDCHAR
STARTCHAR Ohorn
ENCODING 416
SWIDTH 664 0
DWIDTH 16 0
BBX 14 19 1 0
BITMAP
000C
000C
000C
0F98
1FF0
3870
7038
6018
6018
C00C
C00C
C00C
C00C
601C
6018
7038
3870
1FE0
07C0
ENDCHAR
STARTCHAR ohorn
ENCODING 417
SWIDTH 542 0
DWIDTH 13 0
BBX 12 16 1 0
BITMAP
0020
0070
0030
0020
1EE0
3F80
71C0
60C0
C060
C060
C060
C060
60E0
71C0
3F80
1F00
ENDCHAR
STARTCHAR Uhorn
ENCODING 431
SWIDTH 659 0
DWIDTH 16 0
BBX 14 20 2 0
BITMAP
000C
000C
000C
000C
C078
C060
C060
C060
C060
C060
C060
C060
C060
C060
C060
C060
6060
70C0
3FC0
1F00
ENDCHAR
STARTCHAR uhorn
ENCODING 432
SWIDTH 544 0
DWIDTH 13 0
BBX 11 16 2 0
BITMAP
0060
0020
0020
0060
C1C0
C180
C180
C180
C180
C180
C180
C180
C180
E380
FF80
7D80
ENDCHAR
STARTCHAR uni01C2
ENCODING 450
SWIDTH 288 0
DWIDTH 7 0
BBX 7 26 0 -7
BITMAP
10
10
10
10
10
10
10
10
10
FE
FE
10
10
10
FE
FE
10
10
10
10
10
10
10
10
10
10
ENDCHAR
STARTCHAR uni01CD
ENCODING 461
SWIDTH 544 0
DWIDTH 13 0
BBX 13 20 0 0
BITMAP
1040
0D80
0700
0000
0700
0700
0500
0D80
0D80
0880
18C0
18C0
1040
3FE0
3FE0
2060
6030
6030
6030
C018
ENDCHAR
STARTCHAR uni01CE
ENCODING 462
SWIDTH 504 0
DWIDTH 12 0
BBX 9 18 1 0
BITMAP
2080
3100
1F00
0E00
0000
0000
1F00
7F80
6180
0180
0780
3F80
7180
E180
C180
E380
7E80
3C80
ENDCHAR
STARTCHAR uni01CF
ENCODING 463
SWIDTH 263 0
DWIDTH 6 0
BBX 7 20 0 0
BITMAP
86
4C
38
00
30
30
30
30
30
30
30
30
30
30
30
30
30
30
30
30
ENDCHAR
STARTCHAR uni01D0
ENCODING 464
SWIDTH 246 0
DWIDTH 6 0
BBX 8 18 -1 0
BITMAP
42
E7
3C
18
00
00
18
18
18
18
18
18
18
18
18
18
18
18
ENDCHAR
STARTCHAR uni01D1
ENCODING 465
SWIDTH 664 0
DWIDTH 16 0
BBX 14 20 1 0
BITMAP
0840
1CE0
0780
0000
0F80
1FE0
3870
7038
6018
E018
C00C
C00C
C00C
C01C
6018
6018
7038
3870
1FE0
0FC0
ENDCHAR
STARTCHAR uni01D2
ENCODING 466
SWIDTH 542 0
DWIDTH 13 0
BBX 11 18 1 0
BITMAP
2080
3180
1B00
0E00
0000
0000
1F00
3F80
71C0
60C0
C060
C060
C060
C060
60C0
71C0
3F80
1F00
ENDCHAR
STARTCHAR uni01D3
ENCODING 467
SWIDTH 645 0
DWIDTH 15 0
BBX 11 20 2 0
BITMAP
3080
1B00
0E00
0000
C060
C060
C060
C060
C060
C060
C060
C060
C060
C060
C060
C060
6060
70E0
3FC0
1F00
ENDCHAR
STARTCHAR uni01D4
ENCODING 468
SWIDTH 544 0
DWIDTH 13 0
BBX 9 18 2 0
BITMAP
4100
6300
3600
1C00
0000
0000
C180
C180
C180
C180
C180
C180
C180
C180
C180
E380
FF80
7980
ENDCHAR
STARTCHAR uni01D5
ENCODING 469
SWIDTH 645 0
DWIDTH 15 0
BBX 11 21 2 0
BITMAP
1F80
0000
3180
3180
0000
C060
C060
C060
C060
C060
C060
C060
C060
C060
C060
C060
C060
6060
70E0
3FC0
1F00
ENDCHAR
STARTCHAR uni01D6
ENCODING 470
SWIDTH 544 0
DWIDTH 13 0
BBX 9 19 2 0
BITMAP
7F00
0000
0000
6300
6300
0000
0000
C180
C180
C180
C180
C180
C180
C180
C180
C180
E380
FF80
7980
ENDCHAR
STARTCHAR uni01D7
ENCODING 471
SWIDTH 645 0
DWIDTH 15 0
BBX 11 23 2 0
BITMAP
0100
0200
0400
0000
3180
3180
0000
C060
C060
C060
C060
C060
C060
C060
C060
C060
C060
C060
C060
6060
70E0
3FC0
1F00
ENDCHAR
STARTCHAR uni01D8
ENCODING 472
SWIDTH 544 0
DWIDTH 13 0
BBX 9 20 2 0
BITMAP
0400
0E00
0800
0000
6300
6300
0000
0000
C180
C180
C180
C180
C180
C180
C180
C180
C180
E380
FF80
7980
ENDCHAR
STARTCHAR uni01D9
ENCODING 473
SWIDTH 645 0
DWIDTH 15 0
BBX 11 23 2 0
BITMAP
1080
3B00
0E00
0000
3180
3180
0000
C060
C060
C060
C060
C060
C060
C060
C060
C060
C060
C060
C060
6060
70E0
3FC0
1F00
ENDCHAR
STARTCHAR uni01DA
ENCODING 474
SWIDTH 544 0
DWIDTH 13 0
BBX 9 20 2 0
BITMAP
2200
7700
1C00
0000
6300
6300
0000
0000
C180
C180
C180
C180
C180
C180
C180
C180
C180
E380
FF80
7980
ENDCHAR
STARTCHAR uni01DB
ENCODING 475
SWIDTH 645 0
DWIDTH 15 0
BBX 11 23 2 0
BITMAP
0800
1C00
0600
0000
3180
3180
0000
C060
C060
C060
C060
C060
C060
C060
C060
C060
C060
C060
C060
6060
70E0
3FC0
1F00
ENDCHAR
STARTCHAR uni01DC
ENCODING 476
SWIDTH 544 0
DWIDTH 13 0
BBX 9 20 2 0
BITMAP
1000
3800
0C00
0000
6300
6300
0000
0000
C180
C180
C180
C180
C180
C180
C180
C180
C180
E380
FF80
7980
ENDCHAR
STARTCHAR uni01E2
ENCODING 482
SWIDTH 822 0
DWIDTH 20 0
BBX 19 18 0 0
BITMAP
003F80
000000
00FFC0
00FFC0
01B000
01B000
033000
023000
063F80
043F80
0C3000
0FF000
1FF000
103000
303000
703000
603FE0
E03FE0
ENDCHAR
STARTCHAR uni01E3
ENCODING 483
SWIDTH 785 0
DWIDTH 19 0
BBX 17 15 1 0
BITMAP
03F000
000000
000000
1E1E00
7F7F00
61E300
01C180
01FF80
1FFF80
7F8000
608000
C1C000
E3E100
7F7F00
3C1E00
ENDCHAR
STARTCHAR Gcaron
ENCODING 486
SWIDTH 617 0
DWIDTH 15 0
BBX 12 20 1 0
BITMAP
0860
06C0
0380
0000
07C0
1FE0
3830
7000
6000
6000
C000
C1F0
C1F0
C030
6030
6030
7030
3830
1FF0
07C0
ENDCHAR
STARTCHAR gcaron
ENCODING 487
SWIDTH 504 0
DWIDTH 12 0
BBX 11 23 1 -5
BITMAP
2080
3180
1B00
0E00
0000
0000
1FE0
7FE0
6180
4180
6180
6180
3F00
7E00
4000
6000
7F80
7FE0
C060
C060
E0C0
7FC0
3F00
ENDCHAR
STARTCHAR uni01EA
ENCODING 490
SWIDTH 664 0
DWIDTH 16 0
BBX 14 21 1 -5
BITMAP
0F80
1FE0
3870
7038
6018
E018
C00C
C00C
C00C
C01C
6018
6018
7038
3870
1FE0
0FC0
0300
0200
0600
0600
03C0
ENDCHAR
STARTCHAR uni01EB
ENCODING 491
SWIDTH 542 0
DWIDTH 13 0
BBX 11 17 1 -5
BITMAP
1F00
3F80
71C0
60C0
C060
C060
C060
C060
60E0
71C0
3F80
1F00
0400
0C00
0800
0C00
0700
ENDCHAR
STARTCHAR uni01F4
ENCODING 500
SWIDTH 617 0
DWIDTH 15 0
BBX 12 21 1 0
BITMAP
0040
00E0
0180
0300
0000
07C0
1FE0
3830
7000
6000
6000
C000
C1F0
C1F0
C030
6030
6030
7030
3830
1FF0
07C0
ENDCHAR
STARTCHAR uni01F5
ENCODING 501
SWIDTH 504 0
DWIDTH 12 0
BBX 11 24 1 -5
BITMAP
0100
0380
0700
0E00
0400
0000
0000
1FE0
7FE0
6180
4180
6180
6180
3F00
7E00
4000
6000
7F80
7FE0
C060
C060
E0C0
7FC0
3F00
ENDCHAR
STARTCHAR uni01F8
ENCODING 504
SWIDTH 647 0
DWIDTH 16 0
BBX 11 21 2 0
BITMAP
1000
1800
0E00
0200
0000
E060
E060
F060
F060
D860
D860
CC60
CC60
C660
C360
C320
C1A0
C1A0
C0E0
C0E0
C060
ENDCHAR
STARTCHAR uni01F9
ENCODING 505
SWIDTH 547 0
DWIDTH 13 0
BBX 9 19 2 0
BITMAP
2000
3000
1800
0C00
0400
0000
0000
CF00
FF80
E180
C180
C180
C180
C180
C180
C180
C180
C180
C180
ENDCHAR
STARTCHAR uni01FC
ENCODING 508
SWIDTH 822 0
DWIDTH 20 0
BBX 19 21 0 0
BITMAP
000100
000380
000600
000C00
000000
00FFC0
00FFC0
01B000
01B000
033000
023000
063F80
043F80
0C3000
0FF000
1FF000
103000
303000
703000
603FE0
E03FE0
ENDCHAR
STARTCHAR uni01FD
ENCODING 509
SWIDTH 785 0
DWIDTH 19 0
BBX 17 19 1 0
BITMAP
002000
003000
006000
00C000
008000
000000
000000
1E1E00
7F7F00
61E300
01C180
01FF80
1FFF80
7F8000
608000
C1C000
E3E100
7F7F00
3C1E00
ENDCHAR
STARTCHAR uni0218
ENCODING 536
SWIDTH 534 0
DWIDTH 13 0
BBX 11 21 1 -5
BITMAP
1F00
3FC0
70C0
6000
6000
6000
3800
1F00
0780
01C0
0060
0060
4060
E0C0
7FC0
1F00
0000
0E00
0200
0200
1C00
ENDCHAR
STARTCHAR uni0219
ENCODING 537
SWIDTH 419 0
DWIDTH 10 0
BBX 8 17 1 -5
BITMAP
3C
7F
E2
C0
60
7C
0E
03
03
C3
FF
3C
00
18
04
0C
38
ENDCHAR
STARTCHAR uni021A
ENCODING 538
SWIDTH 536 0
DWIDTH 13 0
BBX 11 21 1 -5
BITMAP
FFE0
FFE0
0C00
0C00
0C00
0C00
0C00
0C00
0C00
0C00
0C00
0C00
0C00
0C00
0C00
0C00
0000
0E00
0600
0600
1C00
ENDCHAR
STARTCHAR uni021B
ENCODING 539
SWIDTH 338 0
DWIDTH 8 0
BBX 7 20 1 -5
BITMAP
20
20
60
FC
FC
60
60
60
60
60
60
60
70
3E
1E
00
18
0C
0C
38
ENDCHAR
STARTCHAR uni0237
ENCODING 567
SWIDTH 247 0
DWIDTH 6 0
BBX 5 17 -1 -5
BITMAP
18
18
18
18
18
18
18
18
18
18
18
18
18
18
18
F0
F0
ENDCHAR
STARTCHAR uni0243
ENCODING 579
SWIDTH 603 0
DWIDTH 14 0
BBX 13 16 1 0
BITMAP
3F80
3FE0
3060
3030
3030
3060
3FC0
3FE0
3030
3030
FE18
3018
3030
3070
3FE0
3FC0
ENDCHAR
STARTCHAR uni0250
ENCODING 592
SWIDTH 512 0
DWIDTH 12 0
BBX 9 12 2 0
BITMAP
8F00
FF80
E180
C180
C380
FF00
FC00
C000
C000
E100
7F80
3E00
ENDCHAR
STARTCHAR uni0251
ENCODING 593
SWIDTH 555 0
DWIDTH 13 0
BBX 10 12 1 0
BITMAP
1E40
3FC0
71C0
60C0
C0C0
C0C0
C0C0
C0C0
E0C0
71C0
7F40
1E40
ENDCHAR
STARTCHAR uni0252
ENCODING 594
SWIDTH 555 0
DWIDTH 13 0
BBX 10 12 2 0
BITMAP
CF00
FF80
E1C0
C0C0
C0C0
C0C0
C0C0
C0C0
C1C0
E380
FF80
DE00
ENDCHAR
STARTCHAR uni0253
ENCODING 595
SWIDTH 555 0
DWIDTH 13 0
BBX 10 17 2 0
BITMAP
3C00
7C00
E000
C000
C000
CF00
FF80
E1C0
C0C0
C0C0
C0C0
C0C0
C0C0
C1C0
E380
FF80
DE00
ENDCHAR
STARTCHAR uni0254
ENCODING 596
SWIDTH 456 0
DWIDTH 11 0
BBX 9 12 1 0
BITMAP
7C00
FE00
C700
0300
0180
0180
0180
0180
0300
8700
FE00
7C00
ENDCHAR
STARTCHAR uni0255
ENCODING 597
SWIDTH 456 0
DWIDTH 11 0
BBX 9 13 1 -1
BITMAP
1F00
3F80
7180
6000
C000
C000
C700
DF80
7880
7180
7F80
7F00
C000
ENDCHAR
STARTCHAR uni0256
ENCODING 598
SWIDTH 555 0
DWIDTH 13 0
BBX 13 22 1 -5
BITMAP
00C0
00C0
00C0
00C0
00C0
1EC0
3FC0
71C0
60C0
C0C0
C0C0
C0C0
C0C0
E0C0
71C0
7FC0
1EC0
00C0
00C0
0060
0078
0038
ENDCHAR
STARTCHAR uni0257
ENCODING 599
SWIDTH 555 0
DWIDTH 13 0
BBX 13 17 1 0
BITMAP
0038
0078
00E0
00C0
00C0
1EC0
3FC0
71C0
60C0
C0C0
C0C0
C0C0
C0C0
E0C0
71C0
7F40
1E40
ENDCHAR
STARTCHAR uni0258
ENCODING 600
SWIDTH 496 0
DWIDTH 12 0
BBX 10 12 1 0
BITMAP
3E00
7F00
E180
C080
FFC0
FFC0
00C0
00C0
0180
4380
FF00
3E00
ENDCHAR
STARTCHAR uni0259
ENCODING 601
SWIDTH 496 0
DWIDTH 12 0
BBX 10 12 1 0
BITMAP
3E00
7F00
4380
0180
00C0
FFC0
FFC0
C0C0
C180
6380
7F00
3E00
ENDCHAR
STARTCHAR uni025A
ENCODING 602
SWIDTH 648 0
DWIDTH 16 0
BBX 15 12 1 0
BITMAP
3E00
7F00
4390
01F0
03D8
0ECE
70C0
C0C0
C180
6380
7F00
1E00
ENDCHAR
STARTCHAR uni025B
ENCODING 603
SWIDTH 440 0
DWIDTH 11 0
BBX 9 12 1 0
BITMAP
1E00
7F80
6100
6000
6000
3E00
7E00
E000
C000
E180
7F80
3E00
ENDCHAR
STARTCHAR uni025C
ENCODING 604
SWIDTH 456 0
DWIDTH 11 0
BBX 9 12 1 0
BITMAP
3C00
FF00
4300
0300
0300
3E00
3F00
0300
0180
C380
FF00
3E00
ENDCHAR
STARTCHAR uni025E
ENCODING 606
SWIDTH 546 0
DWIDTH 13 0
BBX 11 12 1 0
BITMAP
1F00
7F80
61C0
60E0
6060
3C60
7C60
E060
C0E0
E1C0
7F80
3F00
ENDCHAR
STARTCHAR uni025F
ENCODING 607
SWIDTH 270 0
DWIDTH 6 0
BBX 7 17 -1 -5
BITMAP
18
18
18
18
18
7E
7E
18
18
18
18
18
18
18
18
78
F0
ENDCHAR
STARTCHAR uni0260
ENCODING 608
SWIDTH 559 0
DWIDTH 13 0
BBX 13 20 1 -5
BITMAP
0038
0078
0060
1EC0
3FC0
71C0
60C0
C0C0
C0C0
C0C0
C0C0
60C0
71C0
3FC0
1EC0
00C0
00C0
61C0
7F80
1F00
ENDCHAR
STARTCHAR uni0261
ENCODING 609
SWIDTH 559 0
DWIDTH 13 0
BBX 10 17 1 -5
BITMAP
1E40
3FC0
71C0
60C0
C0C0
C0C0
C0C0
C0C0
60C0
71C0
3FC0
1EC0
00C0
00C0
61C0
7F80
1F00
ENDCHAR
STARTCHAR uni0262
ENCODING 610
SWIDTH 497 0
DWIDTH 12 0
BBX 10 12 1 0
BITMAP
1F00
3F80
70C0
6000
C000
C7C0
C7C0
C0C0
60C0
70C0
3FC0
1F00
ENDCHAR
STARTCHAR uni0263
ENCODING 611
SWIDTH 467 0
DWIDTH 11 0
BBX 11 17 0 -5
BITMAP
E060
60C0
60C0
30C0
3180
3180
1900
1B00
0B00
0E00
0E00
0E00
1B00
1900
1B00
1F00
0E00
ENDCHAR
STARTCHAR uni0264
ENCODING 612
SWIDTH 511 0
DWIDTH 12 0
BBX 12 12 0 0
BITMAP
70F0
FDF0
0F00
0F00
0D80
1980
30C0
30C0
30C0
38C0
1FC0
0F80
ENDCHAR
STARTCHAR uni0265
ENCODING 613
SWIDTH 547 0
DWIDTH 13 0
BBX 9 17 2 -5
BITMAP
C180
C180
C180
C180
C180
C180
C180
C180
C180
E380
FF80
7980
0180
0180
0180
0180
0180
ENDCHAR
STARTCHAR uni0266
ENCODING 614
SWIDTH 544 0
DWIDTH 13 0
BBX 9 17 2 0
BITMAP
3C00
7C00
E000
C000
C000
CF00
DF80
F180
E180
C180
C180
C180
C180
C180
C180
C180
C180
ENDCHAR
STARTCHAR uni0267
ENCODING 615
SWIDTH 544 0
DWIDTH 13 0
BBX 9 22 2 -5
BITMAP
3C00
7C00
E000
C000
C000
CF00
DF80
F180
E180
C180
C180
C180
C180
C180
C180
C180
C180
0180
0180
0180
0780
0F00
ENDCHAR
STARTCHAR uni0268
ENCODING 616
SWIDTH 270 0
DWIDTH 6 0
BBX 6 17 0 0
BITMAP
30
38
30
00
00
30
30
30
30
30
FC
FC
30
30
30
30
30
ENDCHAR
STARTCHAR uni026A
ENCODING 618
SWIDTH 341 0
DWIDTH 8 0
BBX 6 12 1 0
BITMAP
FC
FC
30
30
30
30
30
30
30
30
FC
FC
ENDCHAR
STARTCHAR uni026C
ENCODING 620
SWIDTH 302 0
DWIDTH 7 0
BBX 7 17 0 0
BITMAP
18
18
18
18
18
78
98
98
7E
18
18
18
18
18
18
1C
0C
ENDCHAR
STARTCHAR uni026D
ENCODING 621
SWIDTH 255 0
DWIDTH 6 0
BBX 4 22 2 -5
BITMAP
C0
C0
C0
C0
C0
C0
C0
C0
C0
C0
C0
C0
C0
C0
C0
C0
C0
C0
C0
C0
F0
70
ENDCHAR
STARTCHAR uni026E
ENCODING 622
SWIDTH 577 0
DWIDTH 14 0
BBX 11 22 2 -5
BITMAP
C000
C000
C000
C000
C000
FFE0
FFE0
C0C0
C180
C100
C300
C600
C780
CFC0
C8E0
C060
C060
0060
0060
30E0
3FC0
0F80
ENDCHAR
STARTCHAR uni026F
ENCODING 623
SWIDTH 829 0
DWIDTH 20 0
BBX 16 12 2 0
BITMAP
C183
C183
C183
C183
C183
C183
C183
C183
C383
E7CF
FEFF
7873
ENDCHAR
STARTCHAR uni0270
ENCODING 624
SWIDTH 829 0
DWIDTH 20 0
BBX 16 17 2 -5
BITMAP
C183
C183
C183
C183
C183
C183
C183
C183
C383
E7CF
FEFF
7873
0003
0003
0003
0003
0003
ENDCHAR
STARTCHAR uni0271
ENCODING 625
SWIDTH 829 0
DWIDTH 20 0
BBX 16 17 2 -5
BITMAP
CE1C
FF7E
E3E7
C1C3
C183
C183
C183
C183
C183
C183
C183
C183
0003
0003
0003
000F
001E
ENDCHAR
STARTCHAR uni0272
ENCODING 626
SWIDTH 547 0
DWIDTH 13 0
BBX 11 17 0 -5
BITMAP
33C0
3FE0
3C60
3060
3060
3060
3060
3060
3060
3060
3060
3060
3000
3000
3000
F000
E000
ENDCHAR
STARTCHAR uni0273
ENCODING 627
SWIDTH 547 0
DWIDTH 13 0
BBX 12 17 2 -5
BITMAP
CF00
FF80
F180
C180
C180
C180
C180
C180
C180
C180
C180
C180
0180
0180
01C0
00F0
00F0
ENDCHAR
STARTCHAR uni0274
ENCODING 628
SWIDTH 543 0
DWIDTH 13 0
BBX 9 12 2 0
BITMAP
C180
E180
E180
F180
D980
D980
CD80
C580
C780
C380
C380
C180
ENDCHAR
STARTCHAR uni0275
ENCODING 629
SWIDTH 542 0
DWIDTH 13 0
BBX 11 12 1 0
BITMAP
1F00
3F80
60C0
C040
FFE0
FFE0
C060
C060
E0E0
71C0
3F80
1F00
ENDCHAR
STARTCHAR uni0276
ENCODING 630
SWIDTH 699 0
DWIDTH 17 0
BBX 15 12 1 0
BITMAP
1FFE
3FFE
70C0
60C0
C0FC
C0FC
C0C0
C0C0
60C0
70C0
3FFE
1FFE
ENDCHAR
STARTCHAR uni0278
ENCODING 632
SWIDTH 680 0
DWIDTH 16 0
BBX 14 22 1 -5
BITMAP
0300
0300
0300
0300
0300
0FE0
3FF0
7338
631C
C30C
C30C
C30C
C30C
631C
7338
3FF0
0FE0
0300
0300
0300
0300
0300
ENDCHAR
STARTCHAR uni0279
ENCODING 633
SWIDTH 347 0
DWIDTH 8 0
BBX 6 12 0 0
BITMAP
0C
0C
0C
0C
0C
0C
0C
0C
0C
1C
F4
E4
ENDCHAR
STARTCHAR uni027A
ENCODING 634
SWIDTH 347 0
DWIDTH 8 0
BBX 6 17 0 0
BITMAP
0C
0C
0C
0C
0C
0C
0C
0C
0C
0C
0C
0C
0C
0C
1C
F4
E4
ENDCHAR
STARTCHAR uni027B
ENCODING 635
SWIDTH 347 0
DWIDTH 8 0
BBX 9 17 0 -5
BITMAP
0C00
0C00
0C00
0C00
0C00
0C00
0C00
0C00
0C00
1C00
F400
E400
0400
0400
0600
0780
0380
ENDCHAR
STARTCHAR uni027D
ENCODING 637
SWIDTH 347 0
DWIDTH 8 0
BBX 6 17 2 -5
BITMAP
CC
FC
E0
C0
C0
C0
C0
C0
C0
C0
C0
C0
C0
C0
C0
F0
70
ENDCHAR
STARTCHAR uni027E
ENCODING 638
SWIDTH 334 0
DWIDTH 8 0
BBX 6 12 2 0
BITMAP
3C
7C
E0
C0
C0
C0
C0
C0
C0
C0
C0
C0
ENDCHAR
STARTCHAR uni0280
ENCODING 640
SWIDTH 495 0
DWIDTH 12 0
BBX 9 12 2 0
BITMAP
FE00
FF00
C300
C100
C380
C300
FF00
FC00
CE00
C600
C300
C180
ENDCHAR
STARTCHAR uni0281
ENCODING 641
SWIDTH 495 0
DWIDTH 12 0
BBX 9 12 1 0
BITMAP
C180
6180
6180
3180
3180
1F80
7F80
6180
C180
E180
7F80
3F80
ENDCHAR
STARTCHAR uni0282
ENCODING 642
SWIDTH 419 0
DWIDTH 10 0
BBX 8 17 1 -5
BITMAP
3C
7F
E2
C0
60
7C
0E
03
03
C3
FF
FC
80
C0
C0
F0
70
ENDCHAR
STARTCHAR uni0283
ENCODING 643
SWIDTH 247 0
DWIDTH 6 0
BBX 8 22 -1 -5
BITMAP
0F
1F
18
18
18
18
18
18
18
18
18
18
18
18
18
18
18
18
18
18
F8
F0
ENDCHAR
STARTCHAR uni0284
ENCODING 644
SWIDTH 270 0
DWIDTH 6 0
BBX 8 22 -1 -5
BITMAP
07
0F
1C
18
18
18
18
18
18
18
7E
18
18
18
18
18
18
18
18
18
78
F0
ENDCHAR
STARTCHAR uni0288
ENCODING 648
SWIDTH 338 0
DWIDTH 8 0
BBX 7 20 1 -5
BITMAP
20
60
60
FC
FC
60
60
60
60
60
60
60
60
60
60
60
60
70
3E
1E
ENDCHAR
STARTCHAR uni0289
ENCODING 649
SWIDTH 575 0
DWIDTH 14 0
BBX 14 12 0 0
BITMAP
3030
3030
3030
3030
3030
FFFC
3030
3030
3070
38F0
1FB0
0F30
ENDCHAR
STARTCHAR uni028A
ENCODING 650
SWIDTH 541 0
DWIDTH 13 0
BBX 11 12 1 0
BITMAP
F1E0
F1E0
3180
60C0
6040
C060
C060
C060
E0E0
71C0
3F80
1F00
ENDCHAR
STARTCHAR uni028B
ENCODING 651
SWIDTH 530 0
DWIDTH 13 0
BBX 10 12 2 0
BITMAP
C700
C780
C180
C180
C1C0
C1C0
C180
C180
C180
E300
7F00
3C00
ENDCHAR
STARTCHAR uni028C
ENCODING 652
SWIDTH 467 0
DWIDTH 11 0
BBX 11 12 0 0
BITMAP
0E00
0E00
0B00
1B00
1B00
1180
3180
3180
60C0
60C0
60C0
C060
ENDCHAR
STARTCHAR uni028D
ENCODING 653
SWIDTH 718 0
DWIDTH 17 0
BBX 16 12 1 0
BITMAP
1838
3C38
3C78
3C68
244C
664C
66CC
66C4
C286
C286
C386
C383
ENDCHAR
STARTCHAR uni028E
ENCODING 654
SWIDTH 467 0
DWIDTH 11 0
BBX 11 17 0 0
BITMAP
01E0
03C0
0300
0600
0600
0C00
0E00
0E00
1A00
1B00
1300
3180
3180
2080
60C0
60C0
C060
ENDCHAR
STARTCHAR uni028F
ENCODING 655
SWIDTH 415 0
DWIDTH 10 0
BBX 10 12 0 0
BITMAP
C0C0
6180
6180
3300
3300
1E00
1E00
0C00
0C00
0C00
0C00
0C00
ENDCHAR
STARTCHAR uni0290
ENCODING 656
SWIDTH 425 0
DWIDTH 10 0
BBX 11 17 1 -5
BITMAP
FF00
FF00
0300
0600
0C00
1800
1800
3000
6000
E000
FF00
FF00
0300
0300
0180
01E0
00E0
ENDCHAR
STARTCHAR uni0291
ENCODING 657
SWIDTH 449 0
DWIDTH 11 0
BBX 10 14 1 -2
BITMAP
FF00
FF00
0200
0600
0C00
1800
1800
3380
6640
44C0
FFC0
FF80
0800
0800
ENDCHAR
STARTCHAR uni0292
ENCODING 658
SWIDTH 425 0
DWIDTH 10 0
BBX 10 17 0 -5
BITMAP
7F80
7F80
0300
0200
0400
0C00
1800
1F00
3F80
0180
00C0
00C0
00C0
0180
C380
7F00
3E00
ENDCHAR
STARTCHAR uni0294
ENCODING 660
SWIDTH 417 0
DWIDTH 10 0
BBX 10 17 0 0
BITMAP
3E00
7F00
E380
8180
00C0
0180
0180
0380
0700
0E00
1800
1800
1800
1800
1800
1800
1800
ENDCHAR
STARTCHAR uni0295
ENCODING 661
SWIDTH 443 0
DWIDTH 11 0
BBX 9 17 1 0
BITMAP
3E00
7F00
E180
C100
C000
C000
C000
6000
7000
1C00
0C00
0C00
0C00
0C00
0C00
0C00
0C00
ENDCHAR
STARTCHAR uni0298
ENCODING 664
SWIDTH 525 0
DWIDTH 13 0
BBX 10 17 1 0
BITMAP
1E00
3F00
3180
6180
60C0
60C0
C0C0
CCC0
CCC0
C0C0
C0C0
60C0
60C0
6180
7180
3F00
1E00
ENDCHAR
STARTCHAR uni0299
ENCODING 665
SWIDTH 508 0
DWIDTH 12 0
BBX 9 12 2 0
BITMAP
FE00
FF00
C380
C180
C300
FE00
FF00
C180
C180
C180
FF80
FE00
ENDCHAR
STARTCHAR uni029C
ENCODING 668
SWIDTH 562 0
DWIDTH 13 0
BBX 10 12 2 0
BITMAP
C0C0
C0C0
C0C0
C0C0
C0C0
FFC0
FFC0
C0C0
C0C0
C0C0
C0C0
C0C0
ENDCHAR
STARTCHAR uni029D
ENCODING 669
SWIDTH 284 0
DWIDTH 7 0
BBX 9 23 -2 -6
BITMAP
0600
0E00
0600
0000
0000
0600
0600
0600
0600
0600
0600
0600
0600
0600
0600
0600
0600
7E00
CE00
CE00
FF00
7980
0180
ENDCHAR
STARTCHAR uni029F
ENCODING 671
SWIDTH 411 0
DWIDTH 10 0
BBX 7 12 2 0
BITMAP
C0
C0
C0
C0
C0
C0
C0
C0
C0
C0
FE
FE
ENDCHAR
STARTCHAR uni02A1
ENCODING 673
SWIDTH 441 0
DWIDTH 11 0
BBX 10 17 0 0
BITMAP
1E00
7F80
E1C0
40C0
00C0
00C0
0180
0300
0600
FFC0
FFC0
0C00
0C00
0C00
0C00
0C00
0C00
ENDCHAR
STARTCHAR uni02A2
ENCODING 674
SWIDTH 441 0
DWIDTH 11 0
BBX 10 17 0 0
BITMAP
1F00
3F80
70C0
6080
6000
6000
6000
3000
1C00
FFC0
FFC0
0600
0600
0600
0600
0600
0600
ENDCHAR
STARTCHAR h.sups
ENCODING 688
SWIDTH 366 0
DWIDTH 9 0
BBX 7 12 1 9
BITMAP
C0
C0
C0
C0
DC
E4
C6
C6
C6
C6
C6
C6
ENDCHAR
STARTCHAR j.sups
ENCODING 690
SWIDTH 169 0
DWIDTH 4 0
BBX 4 14 -1 6
BITMAP
30
30
00
30
30
30
30
30
30
30
30
30
30
E0
ENDCHAR
STARTCHAR r.sups
ENCODING 691
SWIDTH 240 0
DWIDTH 6 0
BBX 5 8 1 9
BITMAP
98
E0
C0
C0
C0
C0
C0
C0
ENDCHAR
STARTCHAR w.sups
ENCODING 695
SWIDTH 487 0
DWIDTH 12 0
BBX 11 8 0 9
BITMAP
C620
4620
4660
6A40
2940
2940
29C0
3180
ENDCHAR
STARTCHAR y.sups
ENCODING 696
SWIDTH 319 0
DWIDTH 8 0
BBX 7 11 0 6
BITMAP
C2
42
66
24
24
3C
18
18
10
10
60
ENDCHAR
STARTCHAR uni02B9
ENCODING 697
SWIDTH 249 0
DWIDTH 6 0
BBX 2 6 2 11
BITMAP
C0
C0
C0
C0
C0
80
ENDCHAR
STARTCHAR uni02BB
ENCODING 699
SWIDTH 249 0
DWIDTH 6 0
BBX 3 6 1 11
BITMAP
20
60
40
C0
E0
60
ENDCHAR
STARTCHAR uni02BC
ENCODING 700
SWIDTH 249 0
DWIDTH 6 0
BBX 3 6 2 11
BITMAP
C0
E0
60
40
C0
80
ENDCHAR
STARTCHAR uni02BE
ENCODING 702
SWIDTH 166 0
DWIDTH 4 0
BBX 3 5 1 13
BITMAP
C0
40
60
40
C0
ENDCHAR
STARTCHAR uni02BF
ENCODING 703
SWIDTH 166 0
DWIDTH 4 0
BBX 3 5 0 13
BITMAP
60
C0
C0
40
60
ENDCHAR
STARTCHAR uni02C1
ENCODING 705
SWIDTH 302 0
DWIDTH 7 0
BBX 6 12 1 9
BITMAP
78
FC
C4
80
80
C0
60
30
30
30
30
30
ENDCHAR
STARTCHAR circumflex
ENCODING 710
SWIDTH 542 0
DWIDTH 13 0
BBX 7 4 3 14
BITMAP
38
6C
C6
82
ENDCHAR
STARTCHAR caron
ENCODING 711
SWIDTH 542 0
DWIDTH 13 0
BBX 7 4 3 14
BITMAP
82
C6
6C
38
ENDCHAR
STARTCHAR uni02C8
ENCODING 712
SWIDTH 114 0
DWIDTH 3 0
BBX 1 5 1 13
BITMAP
80
80
80
80
80
ENDCHAR
STARTCHAR uni02C9
ENCODING 713
SWIDTH 277 0
DWIDTH 7 0
BBX 7 1 0 14
BITMAP
FE
ENDCHAR
STARTCHAR uni02CA
ENCODING 714
SWIDTH 225 0
DWIDTH 5 0
BBX 5 5 1 14
BITMAP
10
38
30
60
C0
ENDCHAR
STARTCHAR uni02CB
ENCODING 715
SWIDTH 225 0
DWIDTH 5 0
BBX 5 5 -1 14
BITMAP
40
E0
70
38
10
ENDCHAR
STARTCHAR uni02CC
ENCODING 716
SWIDTH 114 0
DWIDTH 3 0
BBX 1 5 1 -7
BITMAP
80
80
80
80
80
ENDCHAR
STARTCHAR uni02D0
ENCODING 720
SWIDTH 249 0
DWIDTH 6 0
BBX 4 11 1 0
BITMAP
F0
60
40
00
00
00
00
00
40
60
F0
ENDCHAR
STARTCHAR uni02D1
ENCODING 721
SWIDTH 249 0
DWIDTH 6 0
BBX 4 3 1 7
BITMAP
F0
60
40
ENDCHAR
STARTCHAR breve
ENCODING 728
SWIDTH 542 0
DWIDTH 13 0
BBX 7 4 3 14
BITMAP
82
82
C6
78
ENDCHAR
STARTCHAR dotaccent
ENCODING 729
SWIDTH 542 0
DWIDTH 13 0
BBX 3 3 5 14
BITMAP
40
E0
40
ENDCHAR
STARTCHAR ring
ENCODING 730
SWIDTH 542 0
DWIDTH 13 0
BBX 5 5 4 13
BITMAP
70
98
88
88
70
ENDCHAR
STARTCHAR ogonek
ENCODING 731
SWIDTH 542 0
DWIDTH 13 0
BBX 4 5 5 -5
BITMAP
60
C0
C0
C0
F0
ENDCHAR
STARTCHAR tilde
ENCODING 732
SWIDTH 542 0
DWIDTH 13 0
BBX 9 3 2 14
BITMAP
2000
7980
C700
ENDCHAR
STARTCHAR hungarumlaut
ENCODING 733
SWIDTH 542 0
DWIDTH 13 0
BBX 7 5 4 13
BITMAP
26
36
6C
48
C0
ENDCHAR
STARTCHAR uni02DE
ENCODING 734
SWIDTH 151 0
DWIDTH 4 0
BBX 6 5 -2 5
BITMAP
20
E0
B0
1C
1C
ENDCHAR
STARTCHAR uni02E0
ENCODING 736
SWIDTH 318 0
DWIDTH 8 0
BBX 7 11 0 6
BITMAP
C2
46
64
24
2C
38
18
38
2C
2C
38
ENDCHAR
STARTCHAR l.sups
ENCODING 737
SWIDTH 174 0
DWIDTH 4 0
BBX 3 12 1 9
BITMAP
C0
C0
C0
C0
C0
C0
C0
C0
C0
C0
C0
60
ENDCHAR
STARTCHAR s.sups
ENCODING 738
SWIDTH 283 0
DWIDTH 7 0
BBX 6 8 0 9
BITMAP
3C
48
40
70
1C
04
44
F8
ENDCHAR
STARTCHAR x.sups
ENCODING 739
SWIDTH 307 0
DWIDTH 7 0
BBX 7 8 0 9
BITMAP
C6
64
38
18
38
2C
64
C6
ENDCHAR
STARTCHAR uni0300
ENCODING 768
SWIDTH 0 0
DWIDTH 0 0
BBX 4 5 -3 14
BITMAP
80
C0
60
30
10
ENDCHAR
STARTCHAR uni0301
ENCODING 769
SWIDTH 0 0
DWIDTH 0 0
BBX 4 5 -1 14
BITMAP
10
30
60
C0
80
ENDCHAR
STARTCHAR uni0302
ENCODING 770
SWIDTH 0 0
DWIDTH 0 0
BBX 8 4 -4 14
BITMAP
18
3C
66
C3
ENDCHAR
STARTCHAR uni0303
ENCODING 771
SWIDTH 0 0
DWIDTH 0 0
BBX 8 3 -4 14
BITMAP
20
D9
8E
ENDCHAR
STARTCHAR uni0304
ENCODING 772
SWIDTH 0 0
DWIDTH 0 0
BBX 6 1 -3 14
BITMAP
FC
ENDCHAR
STARTCHAR uni0305
ENCODING 773
SWIDTH 0 0
DWIDTH 0 0
BBX 6 1 -3 14
BITMAP
FC
ENDCHAR
STARTCHAR uni0306
ENCODING 774
SWIDTH 0 0
DWIDTH 0 0
BBX 8 4 -4 14
BITMAP
C3
43
66
3C
ENDCHAR
STARTCHAR uni0307
ENCODING 775
SWIDTH 0 0
DWIDTH 0 0
BBX 2 3 -1 14
BITMAP
C0
C0
C0
ENDCHAR
STARTCHAR uni0308
ENCODING 776
SWIDTH 0 0
DWIDTH 0 0
BBX 8 2 -4 14
BITMAP
66
E7
ENDCHAR
STARTCHAR uni0309
ENCODING 777
SWIDTH 0 0
DWIDTH 0 0
BBX 4 4 -2 14
BITMAP
E0
30
30
60
ENDCHAR
STARTCHAR uni030A
ENCODING 778
SWIDTH 0 0
DWIDTH 0 0
BBX 6 5 -3 13
BITMAP
78
48
CC
48
78
ENDCHAR
STARTCHAR uni030B
ENCODING 779
SWIDTH 0 0
DWIDTH 0 0
BBX 7 5 -2 13
BITMAP
26
6C
4C
D8
80
ENDCHAR
STARTCHAR uni030C
ENCODING 780
SWIDTH 0 0
DWIDTH 0 0
BBX 8 4 -4 14
BITMAP
42
E7
3C
18
ENDCHAR
STARTCHAR uni030F
ENCODING 783
SWIDTH 0 0
DWIDTH 0 0
BBX 7 5 -5 14
BITMAP
48
CC
64
26
32
ENDCHAR
STARTCHAR uni0311
ENCODING 785
SWIDTH 0 0
DWIDTH 0 0
BBX 8 4 -4 14
BITMAP
3C
66
C2
C3
ENDCHAR
STARTCHAR uni0312
ENCODING 786
SWIDTH 0 0
DWIDTH 0 0
BBX 2 4 -1 14
BITMAP
C0
80
C0
C0
ENDCHAR
STARTCHAR uni0313
ENCODING 787
SWIDTH 0 0
DWIDTH 0 0
BBX 2 4 -1 14
BITMAP
C0
C0
40
C0
ENDCHAR
STARTCHAR uni0318
ENCODING 792
SWIDTH 0 0
DWIDTH 0 0
BBX 4 6 -2 -7
BITMAP
10
10
F0
F0
10
10
ENDCHAR
STARTCHAR uni0319
ENCODING 793
SWIDTH 0 0
DWIDTH 0 0
BBX 4 6 -2 -7
BITMAP
80
80
F0
F0
80
80
ENDCHAR
STARTCHAR uni031A
ENCODING 794
SWIDTH 0 0
DWIDTH 0 0
BBX 4 4 -2 13
BITMAP
F0
F0
10
10
ENDCHAR
STARTCHAR uni031B
ENCODING 795
SWIDTH 0 0
DWIDTH 0 0
BBX 4 5 0 10
BITMAP
20
70
20
60
C0
ENDCHAR
STARTCHAR uni031C
ENCODING 796
SWIDTH 0 0
DWIDTH 0 0
BBX 3 5 -2 -6
BITMAP
60
40
C0
40
60
ENDCHAR
STARTCHAR uni031D
ENCODING 797
SWIDTH 0 0
DWIDTH 0 0
BBX 4 5 -2 -5
BITMAP
60
60
60
F0
F0
ENDCHAR
STARTCHAR uni031E
ENCODING 798
SWIDTH 0 0
DWIDTH 0 0
BBX 4 5 -2 -7
BITMAP
F0
F0
60
60
60
ENDCHAR
STARTCHAR uni031F
ENCODING 799
SWIDTH 0 0
DWIDTH 0 0
BBX 4 6 -2 -7
BITMAP
60
60
F0
F0
60
60
ENDCHAR
STARTCHAR uni0320
ENCODING 800
SWIDTH 0 0
DWIDTH 0 0
BBX 4 2 -2 -5
BITMAP
F0
F0
ENDCHAR
STARTCHAR uni0323
ENCODING 803
SWIDTH 0 0
DWIDTH 0 0
BBX 2 3 -1 -5
BITMAP
C0
C0
C0
ENDCHAR
STARTCHAR uni0324
ENCODING 804
SWIDTH 0 0
DWIDTH 0 0
BBX 8 2 -4 -5
BITMAP
66
E7
ENDCHAR
STARTCHAR uni0325
ENCODING 805
SWIDTH 0 0
DWIDTH 0 0
BBX 6 5 -3 -6
BITMAP
78
48
CC
48
78
ENDCHAR
STARTCHAR uni0326
ENCODING 806
SWIDTH 0 0
DWIDTH 0 0
BBX 4 4 -2 -5
BITMAP
60
30
30
E0
ENDCHAR
STARTCHAR uni0327
ENCODING 807
SWIDTH 0 0
DWIDTH 0 0
BBX 4 6 -2 -5
BITMAP
60
40
60
B0
30
C0
ENDCHAR
STARTCHAR uni0328
ENCODING 808
SWIDTH 0 0
DWIDTH 0 0
BBX 4 5 -2 -5
BITMAP
30
40
40
C0
70
ENDCHAR
STARTCHAR uni0329
ENCODING 809
SWIDTH 0 0
DWIDTH 0 0
BBX 2 5 -1 -7
BITMAP
C0
C0
C0
C0
C0
ENDCHAR
STARTCHAR uni032A
ENCODING 810
SWIDTH 0 0
DWIDTH 0 0
BBX 6 4 -3 -6
BITMAP
FC
FC
84
84
ENDCHAR
STARTCHAR uni032C
ENCODING 812
SWIDTH 0 0
DWIDTH 0 0
BBX 8 4 -4 -5
BITMAP
42
E7
3C
18
ENDCHAR
STARTCHAR uni032E
ENCODING 814
SWIDTH 0 0
DWIDTH 0 0
BBX 8 4 -4 -5
BITMAP
C3
43
66
3C
ENDCHAR
STARTCHAR uni032F
ENCODING 815
SWIDTH 0 0
DWIDTH 0 0
BBX 8 4 -4 -5
BITMAP
3C
66
C2
C3
ENDCHAR
STARTCHAR uni0330
ENCODING 816
SWIDTH 0 0
DWIDTH 0 0
BBX 8 3 -4 -5
BITMAP
20
D9
8E
ENDCHAR
STARTCHAR uni0331
ENCODING 817
SWIDTH 0 0
DWIDTH 0 0
BBX 6 1 -3 -4
BITMAP
FC
ENDCHAR
STARTCHAR uni0334
ENCODING 820
SWIDTH 0 0
DWIDTH 0 0
BBX 8 3 -4 5
BITMAP
20
D9
8E
ENDCHAR
STARTCHAR uni0339
ENCODING 825
SWIDTH 0 0
DWIDTH 0 0
BBX 3 5 -1 -6
BITMAP
C0
40
60
40
C0
ENDCHAR
STARTCHAR uni033A
ENCODING 826
SWIDTH 0 0
DWIDTH 0 0
BBX 6 4 -3 -6
BITMAP
84
84
FC
FC
ENDCHAR
STARTCHAR uni033B
ENCODING 827
SWIDTH 0 0
DWIDTH 0 0
BBX 6 5 -3 -7
BITMAP
FC
FC
84
FC
FC
ENDCHAR
STARTCHAR uni033C
ENCODING 828
SWIDTH 0 0
DWIDTH 0 0
BBX 8 4 -4 -5
BITMAP
66
FF
99
99
ENDCHAR
STARTCHAR uni033D
ENCODING 829
SWIDTH 0 0
DWIDTH 0 0
BBX 4 4 -2 13
BITMAP
90
60
60
90
ENDCHAR
STARTCHAR uni0342
ENCODING 834
SWIDTH 0 0
DWIDTH 0 0
BBX 8 3 -4 14
BITMAP
20
D9
8E
ENDCHAR
STARTCHAR uni0345
ENCODING 837
SWIDTH 0 0
DWIDTH 0 0
BBX 3 4 -1 -5
BITMAP
C0
C0
E0
60
ENDCHAR
STARTCHAR uni0361
ENCODING 865
SWIDTH 0 0
DWIDTH 0 0
BBX 22 4 -11 13
BITMAP
03FF00
3C00F0
E0001C
800008
ENDCHAR
STARTCHAR uni0374
ENCODING 884
SWIDTH 249 0
DWIDTH 6 0
BBX 2 6 2 11
BITMAP
C0
C0
C0
C0
C0
80
ENDCHAR
STARTCHAR uni0375
ENCODING 885
SWIDTH 249 0
DWIDTH 6 0
BBX 2 6 2 0
BITMAP
40
C0
C0
C0
C0
C0
ENDCHAR
STARTCHAR uni037A
ENCODING 890
SWIDTH 542 0
DWIDTH 13 0
BBX 3 4 6 -5
BITMAP
80
80
E0
60
ENDCHAR
STARTCHAR uni037E
ENCODING 894
SWIDTH 249 0
DWIDTH 6 0
BBX 4 16 1 -4
BITMAP
60
60
60
00
00
00
00
00
00
60
70
70
30
20
60
C0
ENDCHAR
STARTCHAR tonos
ENCODING 900
SWIDTH 542 0
DWIDTH 13 0
BBX 3 5 6 13
BITMAP
60
C0
C0
C0
80
ENDCHAR
STARTCHAR dieresistonos
ENCODING 901
SWIDTH 542 0
DWIDTH 13 0
BBX 7 5 3 14
BITMAP
08
18
18
D6
D2
ENDCHAR
STARTCHAR Alphatonos
ENCODING 902
SWIDTH 566 0
DWIDTH 14 0
BBX 14 16 0 0
BITMAP
6300
4780
C780
C480
CCC0
0CC0
0840
1860
1860
1FE0
3FF0
3030
3030
6018
6018
601C
ENDCHAR
STARTCHAR anoteleia
ENCODING 903
SWIDTH 249 0
DWIDTH 6 0
BBX 2 3 2 9
BITMAP
C0
C0
C0
ENDCHAR
STARTCHAR Epsilontonos
ENCODING 904
SWIDTH 591 0
DWIDTH 14 0
BBX 13 16 0 0
BITMAP
CFF8
CFF8
CC00
8C00
8C00
0C00
0FF0
0FF0
0C00
0C00
0C00
0C00
0C00
0C00
0FF8
0FF8
ENDCHAR
STARTCHAR Etatonos
ENCODING 905
SWIDTH 716 0
DWIDTH 17 0
BBX 15 16 0 0
BITMAP
CC06
CC06
CC06
8C06
8C06
0C06
0FFE
0FFE
0C06
0C06
0C06
0C06
0C06
0C06
0C06
0C06
ENDCHAR
STARTCHAR Iotatonos
ENCODING 906
SWIDTH 327 0
DWIDTH 8 0
BBX 6 16 0 0
BITMAP
CC
CC
CC
8C
8C
0C
0C
0C
0C
0C
0C
0C
0C
0C
0C
0C
ENDCHAR
STARTCHAR Omicrontonos
ENCODING 908
SWIDTH 711 0
DWIDTH 17 0
BBX 16 16 0 0
BITMAP
C1F0
C7F8
CE1C
9C0E
9806
1807
3803
3003
3003
3803
1807
1806
1C0E
0E1C
07F8
03F0
ENDCHAR
STARTCHAR Upsilontonos
ENCODING 910
SWIDTH 600 0
DWIDTH 14 0
BBX 14 16 0 0
BITMAP
D80C
CC0C
CC18
8618
8630
0330
0360
0160
01C0
00C0
00C0
00C0
00C0
00C0
00C0
00C0
ENDCHAR
STARTCHAR Omegatonos
ENCODING 911
SWIDTH 723 0
DWIDTH 17 0
BBX 17 16 -1 0
BITMAP
60F800
63FE00
470E00
4E0300
CC0380
0C0180
0C0180
0C0180
0C0180
0C0180
0C0300
060300
060600
030E00
1F8F80
1F8F80
ENDCHAR
STARTCHAR iotadieresistonos
ENCODING 912
SWIDTH 262 0
DWIDTH 6 0
BBX 8 19 -1 0
BITMAP
0C
08
08
DB
D3
00
00
18
18
18
18
18
18
18
18
18
18
1C
0E
ENDCHAR
STARTCHAR Alpha
ENCODING 913
SWIDTH 544 0
DWIDTH 13 0
BBX 13 16 0 0
BITMAP
0700
0700
0500
0D80
0D80
0880
18C0
18C0
1040
3FE0
3FE0
2060
6030
6030
6030
C018
ENDCHAR
STARTCHAR Beta
ENCODING 914
SWIDTH 588 0
DWIDTH 14 0
BBX 11 16 2 0
BITMAP
FF00
FF80
C1C0
C0C0
C0C0
C1C0
FF80
FF00
C0C0
C060
C060
C060
C060
C0E0
FFC0
FF00
ENDCHAR
STARTCHAR Gamma
ENCODING 915
SWIDTH 498 0
DWIDTH 12 0
BBX 9 16 2 0
BITMAP
FF80
FF80
C000
C000
C000
C000
C000
C000
C000
C000
C000
C000
C000
C000
C000
C000
ENDCHAR
STARTCHAR uni0394
ENCODING 916
SWIDTH 588 0
DWIDTH 14 0
BBX 12 16 1 0
BITMAP
0600
0F00
0F00
0900
1980
1980
1080
30C0
30C0
2060
6060
6060
C030
C030
FFF0
FFF0
ENDCHAR
STARTCHAR Epsilon
ENCODING 917
SWIDTH 527 0
DWIDTH 13 0
BBX 9 16 2 0
BITMAP
FF80
FF80
C000
C000
C000
C000
FF00
FF00
C000
C000
C000
C000
C000
C000
FF80
FF80
ENDCHAR
STARTCHAR Zeta
ENCODING 918
SWIDTH 539 0
DWIDTH 13 0
BBX 11 16 1 0
BITMAP
7FE0
7FE0
00C0
0180
0180
0300
0600
0600
0C00
1800
3800
3000
7000
E000
FFE0
FFE0
ENDCHAR
STARTCHAR Eta
ENCODING 919
SWIDTH 652 0
DWIDTH 16 0
BBX 11 16 2 0
BITMAP
C060
C060
C060
C060
C060
C060
FFE0
FFE0
C060
C060
C060
C060
C060
C060
C060
C060
ENDCHAR
STARTCHAR Theta
ENCODING 920
SWIDTH 664 0
DWIDTH 16 0
BBX 14 16 1 0
BITMAP
0F80
1FE0
3870
7038
6018
E018
C00C
CFCC
CFCC
C01C
6018
6018
7038
3870
1FE0
0FC0
ENDCHAR
STARTCHAR Iota
ENCODING 921
SWIDTH 263 0
DWIDTH 6 0
BBX 2 16 2 0
BITMAP
C0
C0
C0
C0
C0
C0
C0
C0
C0
C0
C0
C0
C0
C0
C0
C0
ENDCHAR
STARTCHAR Kappa
ENCODING 922
SWIDTH 579 0
DWIDTH 14 0
BBX 12 16 2 0
BITMAP
C0E0
C0C0
C180
C300
C600
CE00
DC00
DE00
F600
E300
E380
C180
C0C0
C0C0
C060
C070
ENDCHAR
STARTCHAR Lambda
ENCODING 923
SWIDTH 515 0
DWIDTH 12 0
BBX 12 16 0 0
BITMAP
0600
0700
0F00
0D00
0980
1980
1980
18C0
30C0
30C0
3060
6060
6060
6030
C030
C030
ENDCHAR
STARTCHAR Mu
ENCODING 924
SWIDTH 727 0
DWIDTH 17 0
BBX 13 16 2 0
BITMAP
E018
E038
E038
F028
D068
D078
D858
C8D8
CCD8
CC98
C598
C718
C718
C318
C018
C018
ENDCHAR
STARTCHAR Nu
ENCODING 925
SWIDTH 647 0
DWIDTH 16 0
BBX 11 16 2 0
BITMAP
E060
E060
F060
F060
D860
D860
CC60
CC60
C660
C360
C320
C1A0
C1A0
C0E0
C0E0
C060
ENDCHAR
STARTCHAR Xi
ENCODING 926
SWIDTH 533 0
DWIDTH 13 0
BBX 11 16 1 0
BITMAP
FFC0
FFC0
0000
0000
0000
0000
0000
3F80
3F80
0000
0000
0000
0000
0000
FFE0
FFE0
ENDCHAR
STARTCHAR Omicron
ENCODING 927
SWIDTH 664 0
DWIDTH 16 0
BBX 14 16 1 0
BITMAP
0F80
1FE0
3870
7038
6018
E018
C00C
C00C
C00C
C01C
6018
6018
7038
3870
1FE0
0FC0
ENDCHAR
STARTCHAR Pi
ENCODING 928
SWIDTH 645 0
DWIDTH 15 0
BBX 11 16 2 0
BITMAP
FFE0
FFE0
C060
C060
C060
C060
C060
C060
C060
C060
C060
C060
C060
C060
C060
C060
ENDCHAR
STARTCHAR Rho
ENCODING 929
SWIDTH 566 0
DWIDTH 14 0
BBX 11 16 2 0
BITMAP
FF00
FF80
C1C0
C0C0
C060
C060
C0C0
C1C0
FF80
FF00
C000
C000
C000
C000
C000
C000
ENDCHAR
STARTCHAR Sigma
ENCODING 931
SWIDTH 538 0
DWIDTH 13 0
BBX 11 16 1 0
BITMAP
FFC0
FFC0
6000
3000
1800
0C00
0C00
0600
0700
0C00
1800
1800
3000
6000
FFE0
FFE0
ENDCHAR
STARTCHAR Tau
ENCODING 932
SWIDTH 536 0
DWIDTH 13 0
BBX 11 16 1 0
BITMAP
FFE0
FFE0
0C00
0C00
0C00
0C00
0C00
0C00
0C00
0C00
0C00
0C00
0C00
0C00
0C00
0C00
ENDCHAR
STARTCHAR Upsilon
ENCODING 933
SWIDTH 476 0
DWIDTH 11 0
BBX 11 16 0 0
BITMAP
C060
6060
60C0
30C0
3180
1980
1B00
0B00
0E00
0600
0600
0600
0600
0600
0600
0600
ENDCHAR
STARTCHAR Phi
ENCODING 934
SWIDTH 719 0
DWIDTH 17 0
BBX 15 16 1 0
BITMAP
0180
0180
0FE0
3FF8
799C
618C
E186
C186
C186
C186
E186
618C
799C
3FF8
0FE0
0180
ENDCHAR
STARTCHAR Chi
ENCODING 935
SWIDTH 513 0
DWIDTH 12 0
BBX 12 16 0 0
BITMAP
6070
7060
30C0
18C0
1980
0D80
0F00
0700
0700
0F00
1980
1980
30C0
30E0
6060
E070
ENDCHAR
STARTCHAR Psi
ENCODING 936
SWIDTH 699 0
DWIDTH 17 0
BBX 13 16 2 0
BITMAP
8618
8618
8618
8618
8618
C618
C618
E638
7FF0
3FE0
0600
0600
0600
0600
0600
0600
ENDCHAR
STARTCHAR uni03A9
ENCODING 937
SWIDTH 678 0
DWIDTH 16 0
BBX 14 16 1 0
BITMAP
0FC0
1FE0
3870
7038
6018
601C
E00C
C00C
E00C
600C
6018
6018
3030
1860
FC7C
FC7C
ENDCHAR
STARTCHAR Iotadieresis
ENCODING 938
SWIDTH 263 0
DWIDTH 6 0
BBX 8 19 -1 0
BITMAP
63
E7
00
18
18
18
18
18
18
18
18
18
18
18
18
18
18
18
18
ENDCHAR
STARTCHAR Upsilondieresis
ENCODING 939
SWIDTH 476 0
DWIDTH 11 0
BBX 11 19 0 0
BITMAP
3180
3180
0000
C060
6060
60C0
30C0
3180
1980
1B00
0B00
0E00
0600
0600
0600
0600
0600
0600
0600
ENDCHAR
STARTCHAR alphatonos
ENCODING 940
SWIDTH 560 0
DWIDTH 13 0
BBX 12 18 1 0
BITMAP
0300
0300
0600
0600
0600
0000
1E60
3F60
71E0
60E0
C0C0
C0C0
C0C0
C0C0
E0C0
61C0
7FF0
3E70
ENDCHAR
STARTCHAR epsilontonos
ENCODING 941
SWIDTH 448 0
DWIDTH 11 0
BBX 9 18 1 0
BITMAP
0600
0600
0400
0C00
0C00
0000
1E00
7F80
6100
6000
6000
3E00
7E00
E000
C000
E180
7F80
3F00
ENDCHAR
STARTCHAR etatonos
ENCODING 942
SWIDTH 541 0
DWIDTH 13 0
BBX 9 22 2 -4
BITMAP
0600
0600
0400
0C00
0C00
0000
CF00
DF80
F180
E180
C180
C180
C180
C180
C180
C180
C180
C180
0180
0180
0180
0180
ENDCHAR
STARTCHAR iotatonos
ENCODING 943
SWIDTH 262 0
DWIDTH 6 0
BBX 4 18 2 0
BITMAP
60
60
40
C0
C0
00
C0
C0
C0
C0
C0
C0
C0
C0
C0
C0
E0
70
ENDCHAR
STARTCHAR upsilondieresistonos
ENCODING 944
SWIDTH 510 0
DWIDTH 12 0
BBX 10 19 1 0
BITMAP
0600
0400
0C00
6900
6980
0000
0000
C180
6180
60C0
60C0
40C0
40C0
40C0
40C0
61C0
6180
7F80
1E00
ENDCHAR
STARTCHAR alpha
ENCODING 945
SWIDTH 560 0
DWIDTH 13 0
BBX 12 12 1 0
BITMAP
1E60
3F60
71E0
60E0
C0C0
C0C0
C0C0
C0C0
E0C0
61C0
7FF0
3E70
ENDCHAR
STARTCHAR beta
ENCODING 946
SWIDTH 565 0
DWIDTH 14 0
BBX 11 21 2 -4
BITMAP
3E00
7F00
E380
C180
C180
C180
C700
CE00
CF80
C1C0
C0C0
C0C0
C0E0
C0C0
E1C0
FF80
CF00
C000
C000
C000
C000
ENDCHAR
STARTCHAR gamma
ENCODING 947
SWIDTH 484 0
DWIDTH 12 0
BBX 11 16 0 -4
BITMAP
C060
6060
3060
30C0
10C0
18C0
1980
0D80
0D00
0F00
0600
0600
0600
0600
0600
0600
ENDCHAR
STARTCHAR delta
ENCODING 948
SWIDTH 531 0
DWIDTH 13 0
BBX 11 17 1 0
BITMAP
1F00
3FC0
30C0
2000
3000
1C00
0600
1F80
31C0
60C0
C040
C060
C060
E0C0
71C0
3F80
1F00
ENDCHAR
STARTCHAR epsilon
ENCODING 949
SWIDTH 448 0
DWIDTH 11 0
BBX 9 12 1 0
BITMAP
1E00
7F80
6100
6000
6000
3E00
7E00
E000
C000
E180
7F80
3F00
ENDCHAR
STARTCHAR zeta
ENCODING 950
SWIDTH 424 0
DWIDTH 10 0
BBX 9 21 1 -4
BITMAP
7F80
7F80
0300
0600
0C00
1800
3000
2000
6000
6000
C000
C000
C000
E000
7000
7E00
1F80
0380
0180
0180
0300
ENDCHAR
STARTCHAR eta
ENCODING 951
SWIDTH 541 0
DWIDTH 13 0
BBX 9 16 2 -4
BITMAP
CF00
DF80
F180
E180
C180
C180
C180
C180
C180
C180
C180
C180
0180
0180
0180
0180
ENDCHAR
STARTCHAR theta
ENCODING 952
SWIDTH 522 0
DWIDTH 13 0
BBX 10 17 1 0
BITMAP
1E00
3F00
7180
6180
60C0
40C0
C0C0
FFC0
FFC0
C0C0
C0C0
60C0
60C0
6180
7180
3F00
1E00
ENDCHAR
STARTCHAR iota
ENCODING 953
SWIDTH 262 0
DWIDTH 6 0
BBX 4 12 2 0
BITMAP
C0
C0
C0
C0
C0
C0
C0
C0
C0
C0
E0
70
ENDCHAR
STARTCHAR kappa
ENCODING 954
SWIDTH 494 0
DWIDTH 12 0
BBX 10 12 2 0
BITMAP
C080
C380
C700
CC00
D800
D800
FC00
E600
C600
C300
C180
C1C0
ENDCHAR
STARTCHAR lambda
ENCODING 955
SWIDTH 494 0
DWIDTH 12 0
BBX 12 17 0 0
BITMAP
7800
7C00
0C00
0600
0600
0600
0700
0700
0D80
0980
1980
18C0
30C0
30C0
6060
6060
E070
ENDCHAR
STARTCHAR uni03BC
ENCODING 956
SWIDTH 562 0
DWIDTH 13 0
BBX 11 16 2 -4
BITMAP
C180
C180
C180
C180
C180
C180
C180
C180
C180
E380
FFE0
FCE0
C000
C000
C000
C000
ENDCHAR
STARTCHAR nu
ENCODING 957
SWIDTH 474 0
DWIDTH 11 0
BBX 11 12 0 0
BITMAP
C060
6060
2040
30C0
30C0
18C0
1980
1980
0D00
0F00
0E00
0600
ENDCHAR
STARTCHAR xi
ENCODING 958
SWIDTH 431 0
DWIDTH 10 0
BBX 9 21 1 -4
BITMAP
FF80
FF80
3000
3000
6000
7000
3800
1F00
3F00
7000
6000
C000
C000
E000
7000
7F00
1F80
0180
0180
0180
0300
ENDCHAR
STARTCHAR omicron
ENCODING 959
SWIDTH 535 0
DWIDTH 13 0
BBX 11 12 1 0
BITMAP
1F00
3F80
71C0
E0C0
C060
C060
C060
C060
E0C0
71C0
3F80
1F00
ENDCHAR
STARTCHAR pi
ENCODING 960
SWIDTH 586 0
DWIDTH 14 0
BBX 12 12 1 0
BITMAP
FFF0
FFF0
30C0
30C0
30C0
30C0
30C0
30C0
30C0
30C0
30F0
6070
ENDCHAR
STARTCHAR rho
ENCODING 961
SWIDTH 549 0
DWIDTH 13 0
BBX 10 16 2 -4
BITMAP
1E00
7F80
6180
C0C0
C0C0
C0C0
C0C0
C0C0
C1C0
E380
FF00
DE00
C000
C000
C000
C000
ENDCHAR
STARTCHAR uni03C2
ENCODING 962
SWIDTH 432 0
DWIDTH 10 0
BBX 9 16 1 -4
BITMAP
1E00
3F80
7100
E000
C000
C000
C000
C000
E000
7000
3E00
1F00
0300
0300
0300
0600
ENDCHAR
STARTCHAR sigma
ENCODING 963
SWIDTH 546 0
DWIDTH 13 0
BBX 12 12 1 0
BITMAP
1FF0
3FF0
7180
E0C0
C0C0
C0C0
C0C0
C0C0
E0C0
71C0
3F80
1F00
ENDCHAR
STARTCHAR tau
ENCODING 964
SWIDTH 460 0
DWIDTH 11 0
BBX 9 12 1 0
BITMAP
FF80
FF80
0800
0800
0800
0800
0800
0800
0800
0800
0F00
0F00
ENDCHAR
STARTCHAR upsilon
ENCODING 965
SWIDTH 510 0
DWIDTH 12 0
BBX 10 12 1 0
BITMAP
C180
6180
60C0
60C0
40C0
40C0
40C0
40C0
61C0
6180
7F80
1E00
ENDCHAR
STARTCHAR phi
ENCODING 966
SWIDTH 680 0
DWIDTH 16 0
BBX 14 19 1 -4
BITMAP
0300
0300
0300
0FE0
3FF0
7338
631C
C30C
C30C
C30C
C30C
631C
7338
3FF0
0FE0
0300
0300
0300
0300
ENDCHAR
STARTCHAR chi
ENCODING 967
SWIDTH 481 0
DWIDTH 12 0
BBX 12 17 0 -5
BITMAP
E060
60C0
30C0
3180
1980
1B00
0F00
0600
0E00
0F00
1B00
1980
31C0
30C0
60E0
C060
0030
ENDCHAR
STARTCHAR psi
ENCODING 968
SWIDTH 689 0
DWIDTH 17 0
BBX 14 19 1 -4
BITMAP
0300
0300
0300
C318
630C
630C
630C
630C
430C
430C
630C
631C
7338
3FF0
0FE0
0300
0300
0300
0300
ENDCHAR
STARTCHAR omega
ENCODING 969
SWIDTH 701 0
DWIDTH 17 0
BBX 15 12 1 0
BITMAP
2018
7018
600C
600C
C30C
C306
C306
C30E
C30C
638C
7EFC
3C70
ENDCHAR
STARTCHAR iotadieresis
ENCODING 970
SWIDTH 262 0
DWIDTH 6 0
BBX 7 16 -1 0
BITMAP
66
E6
00
00
18
18
18
18
18
18
18
18
18
18
1C
0E
ENDCHAR
STARTCHAR upsilondieresis
ENCODING 971
SWIDTH 510 0
DWIDTH 12 0
BBX 10 16 1 0
BITMAP
3300
7300
0000
0000
C180
6180
60C0
60C0
40C0
40C0
40C0
40C0
61C0
6180
7F80
1E00
ENDCHAR
STARTCHAR omicrontonos
ENCODING 972
SWIDTH 535 0
DWIDTH 13 0
BBX 11 18 1 0
BITMAP
0300
0600
0600
0600
0400
0000
1F00
3F80
71C0
E0C0
C060
C060
C060
C060
E0C0
71C0
3F80
1F00
ENDCHAR
STARTCHAR upsilontonos
ENCODING 973
SWIDTH 510 0
DWIDTH 12 0
BBX 10 18 1 0
BITMAP
0600
0600
0400
0C00
0C00
0000
C180
6180
60C0
60C0
40C0
40C0
40C0
40C0
61C0
6180
7F80
1E00
ENDCHAR
STARTCHAR omegatonos
ENCODING 974
SWIDTH 701 0
DWIDTH 17 0
BBX 15 18 1 0
BITMAP
00C0
0180
0180
0180
0100
0000
2018
7018
600C
600C
C30C
C306
C306
C30E
C30C
638C
7EFC
3C70
ENDCHAR
STARTCHAR uni03D0
ENCODING 976
SWIDTH 560 0
DWIDTH 13 0
BBX 10 17 2 0
BITMAP
3E00
7F00
E380
C180
C180
C180
C300
CE00
FF00
C180
C0C0
C0C0
C0C0
C0C0
61C0
7F80
1F00
ENDCHAR
STARTCHAR uni03D1
ENCODING 977
SWIDTH 522 0
DWIDTH 13 0
BBX 9 17 2 0
BITMAP
3C00
FE00
C300
C300
C180
C180
E180
7F80
1F80
C180
C180
C180
C180
C300
E300
7F00
3C00
ENDCHAR
STARTCHAR uni03D5
ENCODING 981
SWIDTH 680 0
DWIDTH 16 0
BBX 14 16 1 -4
BITMAP
20F0
31F8
619C
630C
C30C
C30C
C30C
C30C
631C
7338
3FF0
0FC0
0300
0300
0300
0300
ENDCHAR
STARTCHAR uni03D7
ENCODING 983
SWIDTH 494 0
DWIDTH 12 0
BBX 10 16 2 -4
BITMAP
C080
C380
C700
CC00
D800
DC00
FC00
E600
C600
C300
C380
C1C0
01C0
0180
0300
0E00
ENDCHAR
STARTCHAR uni03D9
ENCODING 985
SWIDTH 535 0
DWIDTH 13 0
BBX 11 16 1 -4
BITMAP
1F00
3F80
71C0
E0C0
C0E0
C060
C060
C060
E0C0
71C0
3F80
1F00
0400
0400
0400
0600
ENDCHAR
STARTCHAR uni03DB
ENCODING 987
SWIDTH 466 0
DWIDTH 11 0
BBX 10 16 1 -4
BITMAP
1FC0
3FC0
7000
E000
C000
C000
C000
C000
6000
7000
3E00
1F00
0380
0180
0100
0300
ENDCHAR
STARTCHAR uni03DD
ENCODING 989
SWIDTH 413 0
DWIDTH 10 0
BBX 7 16 2 -4
BITMAP
FE
FE
C0
C0
C0
C0
C0
FE
FE
C0
C0
C0
C0
C0
C0
C0
ENDCHAR
STARTCHAR uni03E1
ENCODING 993
SWIDTH 498 0
DWIDTH 12 0
BBX 11 21 0 -4
BITMAP
2000
7800
1C00
0E00
0700
0300
0180
0380
0FC0
3CC0
F060
4060
01E0
0FE0
3C60
1060
0060
0060
0060
0060
0060
ENDCHAR
STARTCHAR uni0400
ENCODING 1024
SWIDTH 527 0
DWIDTH 13 0
BBX 9 21 2 0
BITMAP
2000
3000
1C00
0400
0000
FF80
FF80
C000
C000
C000
C000
FF00
FF00
C000
C000
C000
C000
C000
C000
FF80
FF80
ENDCHAR
STARTCHAR uni0401
ENCODING 1025
SWIDTH 527 0
DWIDTH 13 0
BBX 9 19 2 0
BITMAP
6300
7300
0000
FF80
FF80
C000
C000
C000
C000
FF00
FF00
C000
C000
C000
C000
C000
C000
FF80
FF80
ENDCHAR
STARTCHAR uni0402
ENCODING 1026
SWIDTH 687 0
DWIDTH 16 0
BBX 14 16 1 0
BITMAP
FFE0
FFE0
0C00
0C00
0C00
0C00
0FF0
0FF8
0C1C
0C0C
0C0C
0C0C
0C0C
0C1C
0C78
0CF0
ENDCHAR
STARTCHAR uni0403
ENCODING 1027
SWIDTH 498 0
DWIDTH 12 0
BBX 9 21 2 0
BITMAP
0300
0700
0E00
0800
0000
FF80
FF80
C000
C000
C000
C000
C000
C000
C000
C000
C000
C000
C000
C000
C000
C000
ENDCHAR
STARTCHAR uni0404
ENCODING 1028
SWIDTH 571 0
DWIDTH 14 0
BBX 12 16 1 0
BITMAP
0F80
1FE0
3870
6000
6000
C000
FF80
FF80
C000
C000
E000
6000
7020
3870
1FE0
0F80
ENDCHAR
STARTCHAR uni0405
ENCODING 1029
SWIDTH 534 0
DWIDTH 13 0
BBX 11 16 1 0
BITMAP
1F00
3FC0
70C0
6000
6000
6000
3800
1F00
0780
01C0
0060
0060
4060
E0C0
7FC0
1F00
ENDCHAR
STARTCHAR uni0406
ENCODING 1030
SWIDTH 263 0
DWIDTH 6 0
BBX 2 16 2 0
BITMAP
C0
C0
C0
C0
C0
C0
C0
C0
C0
C0
C0
C0
C0
C0
C0
C0
ENDCHAR
STARTCHAR uni0407
ENCODING 1031
SWIDTH 263 0
DWIDTH 6 0
BBX 8 19 -1 0
BITMAP
63
E7
00
18
18
18
18
18
18
18
18
18
18
18
18
18
18
18
18
ENDCHAR
STARTCHAR uni0408
ENCODING 1032
SWIDTH 480 0
DWIDTH 12 0
BBX 8 16 1 0
BITMAP
03
03
03
03
03
03
03
03
03
03
03
03
83
C3
7E
3C
ENDCHAR
STARTCHAR uni0409
ENCODING 1033
SWIDTH 903 0
DWIDTH 22 0
BBX 21 16 0 0
BITMAP
07F800
07F800
061800
061800
0C1800
0C1800
0C1800
0C1FC0
0C1FF0
181870
181838
181818
181830
301870
F01FE0
E01FC0
ENDCHAR
STARTCHAR uni040A
ENCODING 1034
SWIDTH 929 0
DWIDTH 22 0
BBX 19 16 2 0
BITMAP
C06000
C06000
C06000
C06000
C06000
C06000
FFFF00
FFFFC0
C060E0
C06060
C06060
C06060
C06060
C060E0
C07FC0
C07F00
ENDCHAR
STARTCHAR uni040B
ENCODING 1035
SWIDTH 696 0
DWIDTH 17 0
BBX 14 16 1 0
BITMAP
FFE0
FFE0
0C00
0C00
0C00
0C00
0FE0
0FF8
0C1C
0C0C
0C0C
0C0C
0C0C
0C0C
0C0C
0C0C
ENDCHAR
STARTCHAR uni040C
ENCODING 1036
SWIDTH 580 0
DWIDTH 14 0
BBX 12 21 2 0
BITMAP
0100
0380
0600
0C00
0000
C060
C0E0
C1C0
C180
C300
C300
C600
FE00
FE00
C700
C300
C180
C1C0
C0C0
C060
C070
ENDCHAR
STARTCHAR uni040D
ENCODING 1037
SWIDTH 656 0
DWIDTH 16 0
BBX 12 21 2 0
BITMAP
1000
1C00
0E00
0200
0000
C070
C070
C0F0
C1B0
C1B0
C330
C330
C630
C630
CC30
D830
D830
F030
F030
E030
E030
ENDCHAR
STARTCHAR uni040E
ENCODING 1038
SWIDTH 514 0
DWIDTH 12 0
BBX 12 20 0 0
BITMAP
10C0
1980
0F00
0000
C030
6030
6060
3060
3060
18C0
18C0
1980
0D80
0D80
0700
0700
0600
0600
3C00
3800
ENDCHAR
STARTCHAR uni040F
ENCODING 1039
SWIDTH 645 0
DWIDTH 15 0
BBX 11 20 2 -4
BITMAP
C060
C060
C060
C060
C060
C060
C060
C060
C060
C060
C060
C060
C060
C060
FFE0
FFE0
0600
0600
0600
0600
ENDCHAR
STARTCHAR uni0410
ENCODING 1040
SWIDTH 544 0
DWIDTH 13 0
BBX 13 16 0 0
BITMAP
0700
0700
0500
0D80
0D80
0880
18C0
18C0
1040
3FE0
3FE0
2060
6030
6030
6030
C018
ENDCHAR
STARTCHAR uni0411
ENCODING 1041
SWIDTH 580 0
DWIDTH 14 0
BBX 11 16 2 0
BITMAP
FFC0
FFC0
C000
C000
C000
C000
FE00
FF80
C1C0
C060
C060
C060
C060
C0C0
FFC0
FF00
ENDCHAR
STARTCHAR uni0412
ENCODING 1042
SWIDTH 588 0
DWIDTH 14 0
BBX 11 16 2 0
BITMAP
FF00
FF80
C1C0
C0C0
C0C0
C1C0
FF80
FF00
C0C0
C060
C060
C060
C060
C0E0
FFC0
FF00
ENDCHAR
STARTCHAR uni0413
ENCODING 1043
SWIDTH 498 0
DWIDTH 12 0
BBX 9 16 2 0
BITMAP
FF80
FF80
C000
C000
C000
C000
C000
C000
C000
C000
C000
C000
C000
C000
C000
C000
ENDCHAR
STARTCHAR uni0414
ENCODING 1044
SWIDTH 638 0
DWIDTH 15 0
BBX 14 20 1 -4
BITMAP
0FF0
0FF0
0830
1830
1830
1830
1830
1830
3030
3030
3030
3030
6030
6030
FFFC
FFFC
C00C
C00C
C00C
C00C
ENDCHAR
STARTCHAR uni0415
ENCODING 1045
SWIDTH 527 0
DWIDTH 13 0
BBX 9 16 2 0
BITMAP
FF80
FF80
C000
C000
C000
C000
FF00
FF00
C000
C000
C000
C000
C000
C000
FF80
FF80
ENDCHAR
STARTCHAR uni0416
ENCODING 1046
SWIDTH 805 0
DWIDTH 19 0
BBX 19 16 0 0
BITMAP
E060E0
7061E0
386180
186300
186300
0C6600
0C6600
07FE00
07FE00
0C6600
1C6300
186380
306180
3061C0
6060C0
E06060
ENDCHAR
STARTCHAR uni0417
ENCODING 1047
SWIDTH 554 0
DWIDTH 13 0
BBX 11 16 1 0
BITMAP
1F00
7FC0
61C0
00C0
0060
00C0
01C0
1F80
1FC0
00E0
0060
0060
4060
E0E0
7FC0
1F00
ENDCHAR
STARTCHAR uni0418
ENCODING 1048
SWIDTH 656 0
DWIDTH 16 0
BBX 12 16 2 0
BITMAP
C070
C070
C0F0
C1B0
C1B0
C330
C330
C630
C630
CC30
D830
D830
F030
F030
E030
E030
ENDCHAR
STARTCHAR uni0419
ENCODING 1049
SWIDTH 656 0
DWIDTH 16 0
BBX 12 20 2 0
BITMAP
30C0
1980
0F00
0000
C070
C070
C0F0
C1B0
C1B0
C330
C330
C630
C630
CC30
D830
D830
F030
F030
E030
E030
ENDCHAR
STARTCHAR uni041A
ENCODING 1050
SWIDTH 580 0
DWIDTH 14 0
BBX 12 16 2 0
BITMAP
C060
C0E0
C1C0
C180
C300
C300
C600
FE00
FE00
C700
C300
C180
C1C0
C0C0
C060
C070
ENDCHAR
STARTCHAR uni041B
ENCODING 1051
SWIDTH 630 0
DWIDTH 15 0
BBX 13 16 0 0
BITMAP
07F8
07F8
0618
0C18
0C18
0C18
0C18
0C18
0818
1818
1818
1818
1818
3018
F018
E018
ENDCHAR
STARTCHAR uni041C
ENCODING 1052
SWIDTH 727 0
DWIDTH 17 0
BBX 13 16 2 0
BITMAP
E018
E038
E038
F028
D068
D078
D858
C8D8
CCD8
CC98
C598
C718
C718
C318
C018
C018
ENDCHAR
STARTCHAR uni041D
ENCODING 1053
SWIDTH 652 0
DWIDTH 16 0
BBX 11 16 2 0
BITMAP
C060
C060
C060
C060
C060
C060
FFE0
FFE0
C060
C060
C060
C060
C060
C060
C060
C060
ENDCHAR
STARTCHAR uni041E
ENCODING 1054
SWIDTH 664 0
DWIDTH 16 0
BBX 14 16 1 0
BITMAP
0F80
1FE0
3870
7038
6018
E018
C00C
C00C
C00C
C01C
6018
6018
7038
3870
1FE0
0FC0
ENDCHAR
STARTCHAR uni041F
ENCODING 1055
SWIDTH 645 0
DWIDTH 15 0
BBX 11 16 2 0
BITMAP
FFE0
FFE0
C060
C060
C060
C060
C060
C060
C060
C060
C060
C060
C060
C060
C060
C060
ENDCHAR
STARTCHAR uni0420
ENCODING 1056
SWIDTH 566 0
DWIDTH 14 0
BBX 11 16 2 0
BITMAP
FF00
FF80
C1C0
C0C0
C060
C060
C0C0
C1C0
FF80
FF00
C000
C000
C000
C000
C000
C000
ENDCHAR
STARTCHAR uni0421
ENCODING 1057
SWIDTH 571 0
DWIDTH 14 0
BBX 12 16 1 0
BITMAP
0780
1FE0
3870
7000
6000
6000
C000
C000
C000
C000
6000
6000
7020
3870
1FE0
0F80
ENDCHAR
STARTCHAR uni0422
ENCODING 1058
SWIDTH 536 0
DWIDTH 13 0
BBX 11 16 1 0
BITMAP
FFE0
FFE0
0C00
0C00
0C00
0C00
0C00
0C00
0C00
0C00
0C00
0C00
0C00
0C00
0C00
0C00
ENDCHAR
STARTCHAR uni0423
ENCODING 1059
SWIDTH 514 0
DWIDTH 12 0
BBX 12 16 0 0
BITMAP
C030
6030
6060
3060
3060
18C0
18C0
1980
0D80
0D80
0700
0700
0600
0600
3C00
3800
ENDCHAR
STARTCHAR uni0424
ENCODING 1060
SWIDTH 732 0
DWIDTH 18 0
BBX 15 16 1 0
BITMAP
0180
0180
0FF0
3FFC
719C
6186
C186
C186
C186
C186
6186
719C
3FF8
0FF0
0180
0180
ENDCHAR
STARTCHAR uni0425
ENCODING 1061
SWIDTH 513 0
DWIDTH 12 0
BBX 12 16 0 0
BITMAP
6070
7060
30C0
18C0
1980
0D80
0F00
0700
0700
0F00
1980
1980
30C0
30E0
6060
E070
ENDCHAR
STARTCHAR uni0426
ENCODING 1062
SWIDTH 642 0
DWIDTH 15 0
BBX 13 20 2 -4
BITMAP
C060
C060
C060
C060
C060
C060
C060
C060
C060
C060
C060
C060
C060
C060
FFF8
FFF8
0018
0018
0018
0018
ENDCHAR
STARTCHAR uni0427
ENCODING 1063
SWIDTH 598 0
DWIDTH 14 0
BBX 10 16 2 0
BITMAP
C0C0
C0C0
C0C0
C0C0
C0C0
C0C0
E0C0
7FC0
3FC0
00C0
00C0
00C0
00C0
00C0
00C0
00C0
ENDCHAR
STARTCHAR uni0428
ENCODING 1064
SWIDTH 865 0
DWIDTH 21 0
BBX 17 16 2 0
BITMAP
C18180
C18180
C18180
C18180
C18180
C18180
C18180
C18180
C18180
C18180
C18180
C18180
C18180
C18180
FFFF80
FFFF80
ENDCHAR
STARTCHAR uni0429
ENCODING 1065
SWIDTH 874 0
DWIDTH 21 0
BBX 18 20 2 -4
BITMAP
C18180
C18180
C18180
C18180
C18180
C18180
C18180
C18180
C18180
C18180
C18180
C18180
C18180
C18180
FFFFC0
FFFFC0
0000C0
0000C0
0000C0
0000C0
ENDCHAR
STARTCHAR uni042A
ENCODING 1066
SWIDTH 720 0
DWIDTH 17 0
BBX 15 16 1 0
BITMAP
FE00
FE00
0600
0600
0600
0600
0600
07F0
07FC
060E
0606
0606
0606
060E
07FC
07F8
ENDCHAR
STARTCHAR uni042B
ENCODING 1067
SWIDTH 798 0
DWIDTH 19 0
BBX 15 16 2 0
BITMAP
C006
C006
C006
C006
C006
C006
C006
FF06
FF86
C1C6
C0C6
C0C6
C0C6
C1C6
FF86
FF06
ENDCHAR
STARTCHAR uni042C
ENCODING 1068
SWIDTH 580 0
DWIDTH 14 0
BBX 11 16 2 0
BITMAP
C000
C000
C000
C000
C000
C000
C000
FF00
FFC0
C0E0
C060
C060
C060
C0C0
FFC0
FF00
ENDCHAR
STARTCHAR uni042D
ENCODING 1069
SWIDTH 571 0
DWIDTH 14 0
BBX 11 16 1 0
BITMAP
3F00
7F80
E1C0
00E0
0060
0060
1FE0
1FE0
0060
0060
0060
0060
80E0
E1C0
7F80
3E00
ENDCHAR
STARTCHAR uni042E
ENCODING 1070
SWIDTH 908 0
DWIDTH 22 0
BBX 19 16 2 0
BITMAP
C03E00
C0FF00
C1C380
C181C0
C300C0
C300C0
C300C0
FF00E0
FF00E0
C300C0
C300C0
C300C0
C381C0
C1C380
C0FF00
C07E00
ENDCHAR
STARTCHAR uni042F
ENCODING 1071
SWIDTH 582 0
DWIDTH 14 0
BBX 11 16 1 0
BITMAP
1FE0
7FE0
7060
E060
C060
C060
6060
7060
3FE0
1FE0
1C60
1860
3060
7060
6060
C060
ENDCHAR
STARTCHAR uni0430
ENCODING 1072
SWIDTH 504 0
DWIDTH 12 0
BBX 9 12 1 0
BITMAP
1F00
7F80
6180
0180
0780
3F80
7180
E180
C180
E380
7E80
3C80
ENDCHAR
STARTCHAR uni0431
ENCODING 1073
SWIDTH 544 0
DWIDTH 13 0
BBX 11 18 1 0
BITMAP
0040
07C0
1FC0
3C00
7000
6000
6000
CF00
DFC0
F0C0
E0E0
C060
C060
4060
60E0
71C0
3F80
1F00
ENDCHAR
STARTCHAR uni0432
ENCODING 1074
SWIDTH 508 0
DWIDTH 12 0
BBX 9 12 2 0
BITMAP
FE00
FF00
C380
C180
C300
FE00
FF00
C180
C180
C180
FF80
FE00
ENDCHAR
STARTCHAR uni0433
ENCODING 1075
SWIDTH 411 0
DWIDTH 10 0
BBX 7 12 2 0
BITMAP
FE
FE
C0
C0
C0
C0
C0
C0
C0
C0
C0
C0
ENDCHAR
STARTCHAR uni0434
ENCODING 1076
SWIDTH 532 0
DWIDTH 13 0
BBX 12 16 0 -4
BITMAP
1FE0
1FE0
1860
1860
1860
1060
3060
3060
3060
2060
FFF0
FFF0
4030
4030
4030
4030
ENDCHAR
STARTCHAR uni0435
ENCODING 1077
SWIDTH 496 0
DWIDTH 12 0
BBX 10 12 1 0
BITMAP
1F00
3F80
61C0
40C0
FFC0
FFC0
C000
C000
6000
7080
3FC0
1F00
ENDCHAR
STARTCHAR uni0436
ENCODING 1078
SWIDTH 681 0
DWIDTH 16 0
BBX 16 12 0 0
BITMAP
6187
718E
318C
1998
1998
0FF8
0FF8
1998
398C
318E
6186
E183
ENDCHAR
STARTCHAR uni0437
ENCODING 1079
SWIDTH 456 0
DWIDTH 11 0
BBX 9 12 1 0
BITMAP
3E00
FF00
4300
0180
0300
3E00
3F00
0380
0180
C380
FF00
3E00
ENDCHAR
STARTCHAR uni0438
ENCODING 1080
SWIDTH 565 0
DWIDTH 14 0
BBX 10 12 2 0
BITMAP
C1C0
C1C0
C3C0
C6C0
C6C0
CCC0
C8C0
D8C0
F0C0
E0C0
E0C0
C0C0
ENDCHAR
STARTCHAR uni0439
ENCODING 1081
SWIDTH 565 0
DWIDTH 14 0
BBX 10 18 2 0
BITMAP
6180
6100
3300
1E00
0000
0000
C1C0
C1C0
C3C0
C6C0
C6C0
CCC0
C8C0
D8C0
F0C0
E0C0
E0C0
C0C0
ENDCHAR
STARTCHAR uni043A
ENCODING 1082
SWIDTH 498 0
DWIDTH 12 0
BBX 10 12 2 0
BITMAP
C180
C380
C600
C600
CC00
FC00
FC00
C600
C600
C300
C180
C1C0
ENDCHAR
STARTCHAR uni043B
ENCODING 1083
SWIDTH 531 0
DWIDTH 13 0
BBX 11 12 0 0
BITMAP
0FE0
1FE0
1860
1860
1860
1860
1860
1060
1060
3060
F060
E060
ENDCHAR
STARTCHAR uni043C
ENCODING 1084
SWIDTH 633 0
DWIDTH 15 0
BBX 11 12 2 0
BITMAP
C060
E0E0
E0E0
F0A0
F1E0
D160
DB60
CB60
CE60
CE60
C460
C060
ENDCHAR
STARTCHAR uni043D
ENCODING 1085
SWIDTH 562 0
DWIDTH 13 0
BBX 10 12 2 0
BITMAP
C0C0
C0C0
C0C0
C0C0
C0C0
FFC0
FFC0
C0C0
C0C0
C0C0
C0C0
C0C0
ENDCHAR
STARTCHAR uni043E
ENCODING 1086
SWIDTH 542 0
DWIDTH 13 0
BBX 11 12 1 0
BITMAP
1F00
3F80
71C0
60C0
C060
C060
C060
C060
60C0
71C0
3F80
1F00
ENDCHAR
STARTCHAR uni043F
ENCODING 1087
SWIDTH 553 0
DWIDTH 13 0
BBX 9 12 2 0
BITMAP
FF80
FF80
C180
C180
C180
C180
C180
C180
C180
C180
C180
C180
ENDCHAR
STARTCHAR uni0440
ENCODING 1088
SWIDTH 555 0
DWIDTH 13 0
BBX 10 17 2 -5
BITMAP
CF00
FF80
E1C0
C0C0
C0C0
C0C0
C0C0
C0C0
C1C0
E380
FF80
DE00
C000
C000
C000
C000
C000
ENDCHAR
STARTCHAR uni0441
ENCODING 1089
SWIDTH 456 0
DWIDTH 11 0
BBX 9 12 1 0
BITMAP
1F00
3F80
7180
6000
C000
C000
C000
C000
E000
7180
3F80
1F00
ENDCHAR
STARTCHAR uni0442
ENCODING 1090
SWIDTH 460 0
DWIDTH 11 0
BBX 9 12 1 0
BITMAP
FF80
FF80
0C00
0C00
0C00
0C00
0C00
0C00
0C00
0C00
0C00
0C00
ENDCHAR
STARTCHAR uni0443
ENCODING 1091
SWIDTH 467 0
DWIDTH 11 0
BBX 11 17 0 -5
BITMAP
E060
6040
60C0
30C0
3080
3180
1980
1900
0B00
0F00
0E00
0600
0600
0C00
1C00
7800
7000
ENDCHAR
STARTCHAR uni0444
ENCODING 1092
SWIDTH 734 0
DWIDTH 18 0
BBX 15 22 1 -5
BITMAP
0180
0180
0180
0180
0180
1DF8
3FFC
738E
E186
C186
C186
C186
C186
E186
638E
7FFC
3DF8
0180
0180
0180
0180
0180
ENDCHAR
STARTCHAR uni0445
ENCODING 1093
SWIDTH 446 0
DWIDTH 11 0
BBX 10 12 0 0
BITMAP
60C0
3180
3180
1B00
1A00
0E00
0E00
1B00
3300
3180
6180
E0C0
ENDCHAR
STARTCHAR uni0446
ENCODING 1094
SWIDTH 554 0
DWIDTH 13 0
BBX 11 16 2 -4
BITMAP
C180
C180
C180
C180
C180
C180
C180
C180
C180
C180
FFE0
FFE0
0060
0060
0060
0060
ENDCHAR
STARTCHAR uni0447
ENCODING 1095
SWIDTH 512 0
DWIDTH 12 0
BBX 9 12 1 0
BITMAP
C180
C180
C180
C180
E180
6180
7F80
3F80
0180
0180
0180
0180
ENDCHAR
STARTCHAR uni0448
ENCODING 1096
SWIDTH 749 0
DWIDTH 18 0
BBX 14 12 2 0
BITMAP
C30C
C30C
C30C
C30C
C30C
C30C
C30C
C30C
C30C
C30C
FFFC
FFFC
ENDCHAR
STARTCHAR uni0449
ENCODING 1097
SWIDTH 757 0
DWIDTH 18 0
BBX 16 16 2 -4
BITMAP
C30C
C30C
C30C
C30C
C30C
C30C
C30C
C30C
C30C
C30C
FFFF
FFFF
0003
0003
0003
0003
ENDCHAR
STARTCHAR uni044A
ENCODING 1098
SWIDTH 596 0
DWIDTH 14 0
BBX 12 12 1 0
BITMAP
FC00
FC00
0C00
0C00
0FC0
0FF0
0C30
0C30
0C30
0C30
0FF0
0FC0
ENDCHAR
STARTCHAR uni044B
ENCODING 1099
SWIDTH 674 0
DWIDTH 16 0
BBX 12 12 2 0
BITMAP
C030
C030
C030
C030
FC30
FE30
C330
C330
C330
C330
FE30
FC30
ENDCHAR
STARTCHAR uni044C
ENCODING 1100
SWIDTH 491 0
DWIDTH 12 0
BBX 9 12 2 0
BITMAP
C000
C000
C000
C000
FE00
FF00
C380
C180
C180
C380
FF00
FE00
ENDCHAR
STARTCHAR uni044D
ENCODING 1101
SWIDTH 456 0
DWIDTH 11 0
BBX 9 12 1 0
BITMAP
7C00
FE00
C700
0300
0180
3F80
3F80
0180
0300
8700
FE00
7C00
ENDCHAR
STARTCHAR uni044E
ENCODING 1102
SWIDTH 738 0
DWIDTH 18 0
BBX 15 12 2 0
BITMAP
C1F0
C3F8
C71C
C60C
C60C
FC06
FC06
C40C
C60C
C71C
C3F8
C1F0
ENDCHAR
STARTCHAR uni044F
ENCODING 1103
SWIDTH 514 0
DWIDTH 12 0
BBX 9 12 1 0
BITMAP
1F80
7F80
6180
6180
6180
7180
3F80
1F80
1980
3180
6180
C180
ENDCHAR
STARTCHAR uni0450
ENCODING 1104
SWIDTH 496 0
DWIDTH 12 0
BBX 10 19 1 0
BITMAP
1000
3800
1800
0C00
0600
0000
0000
1F00
3F80
61C0
40C0
FFC0
FFC0
C000
C000
6000
7080
3FC0
1F00
ENDCHAR
STARTCHAR uni0451
ENCODING 1105
SWIDTH 496 0
DWIDTH 12 0
BBX 10 16 1 0
BITMAP
3180
3380
0000
0000
1F00
3F80
61C0
40C0
FFC0
FFC0
C000
C000
6000
7080
3FC0
1F00
ENDCHAR
STARTCHAR uni0452
ENCODING 1106
SWIDTH 548 0
DWIDTH 13 0
BBX 12 22 0 -5
BITMAP
3000
3000
FF00
3000
3000
3000
33C0
3FE0
3860
3070
3030
3030
3030
3030
3030
3030
3030
0070
0060
00E0
03C0
0380
ENDCHAR
STARTCHAR uni0453
ENCODING 1107
SWIDTH 411 0
DWIDTH 10 0
BBX 7 19 2 0
BITMAP
02
06
0C
18
10
00
00
FE
FE
C0
C0
C0
C0
C0
C0
C0
C0
C0
C0
ENDCHAR
STARTCHAR uni0454
ENCODING 1108
SWIDTH 456 0
DWIDTH 11 0
BBX 9 12 1 0
BITMAP
1F00
3F80
7180
E000
C000
FE00
FE00
C000
C000
6080
3F80
1F00
ENDCHAR
STARTCHAR uni0455
ENCODING 1109
SWIDTH 419 0
DWIDTH 10 0
BBX 8 12 1 0
BITMAP
3C
7F
E2
C0
60
7C
0E
03
03
C3
FF
3C
ENDCHAR
STARTCHAR uni0456
ENCODING 1110
SWIDTH 246 0
DWIDTH 6 0
BBX 2 17 2 0
BITMAP
80
C0
C0
00
00
C0
C0
C0
C0
C0
C0
C0
C0
C0
C0
C0
C0
ENDCHAR
STARTCHAR uni0457
ENCODING 1111
SWIDTH 246 0
DWIDTH 6 0
BBX 7 16 -1 0
BITMAP
66
E6
00
00
18
18
18
18
18
18
18
18
18
18
18
18
ENDCHAR
STARTCHAR uni0458
ENCODING 1112
SWIDTH 247 0
DWIDTH 6 0
BBX 5 22 -1 -5
BITMAP
10
18
18
00
00
18
18
18
18
18
18
18
18
18
18
18
18
18
18
18
F0
F0
ENDCHAR
STARTCHAR uni0459
ENCODING 1113
SWIDTH 735 0
DWIDTH 18 0
BBX 17 12 0 0
BITMAP
1FC000
1FC000
18C000
18C000
18FE00
18FF00
18C300
18C180
18C180
30C300
70FF00
E0FE00
ENDCHAR
STARTCHAR uni045A
ENCODING 1114
SWIDTH 758 0
DWIDTH 18 0
BBX 15 12 2 0
BITMAP
C180
C180
C180
C180
C1F8
FFFC
FF86
C186
C186
C186
C1FC
C1F8
ENDCHAR
STARTCHAR uni045B
ENCODING 1115
SWIDTH 544 0
DWIDTH 13 0
BBX 11 17 0 0
BITMAP
3000
3000
FF00
3000
3000
3000
33C0
3FE0
3860
3060
3060
3060
3060
3060
3060
3060
3060
ENDCHAR
STARTCHAR uni045C
ENCODING 1116
SWIDTH 498 0
DWIDTH 12 0
BBX 10 19 2 0
BITMAP
0200
0700
0600
0C00
1800
0000
0000
C180
C380
C600
C600
CC00
FC00
FC00
C600
C600
C300
C180
C1C0
ENDCHAR
STARTCHAR uni045D
ENCODING 1117
SWIDTH 565 0
DWIDTH 14 0
BBX 10 19 2 0
BITMAP
2000
7000
1800
0C00
0400
0000
0000
C1C0
C1C0
C3C0
C6C0
C6C0
CCC0
C8C0
D8C0
F0C0
E0C0
E0C0
C0C0
ENDCHAR
STARTCHAR uni045E
ENCODING 1118
SWIDTH 467 0
DWIDTH 11 0
BBX 11 23 0 -5
BITMAP
30C0
3080
1180
0F00
0000
0000
E060
6040
60C0
30C0
3080
3180
1980
1900
0B00
0F00
0E00
0600
0600
0C00
1C00
7800
7000
ENDCHAR
STARTCHAR uni045F
ENCODING 1119
SWIDTH 558 0
DWIDTH 13 0
BBX 9 16 2 -4
BITMAP
C180
C180
C180
C180
C180
C180
C180
C180
C180
C180
FF80
FF80
0C00
0C00
0C00
0C00
ENDCHAR
STARTCHAR uni0462
ENCODING 1122
SWIDTH 614 0
DWIDTH 15 0
BBX 13 17 1 0
BITMAP
1800
1800
1800
FFE0
FFE0
1800
1800
1800
1FC0
1FF0
1830
1818
1818
1838
1870
1FF0
1FC0
ENDCHAR
STARTCHAR uni0463
ENCODING 1123
SWIDTH 576 0
DWIDTH 14 0
BBX 12 15 1 0
BITMAP
1800
1800
1800
FFC0
FFC0
1800
1800
1FC0
1FE0
1870
1830
1830
1870
1FE0
1FC0
ENDCHAR
STARTCHAR uni0472
ENCODING 1138
SWIDTH 664 0
DWIDTH 16 0
BBX 14 16 1 0
BITMAP
0FC0
1FE0
3870
7038
6018
E018
C00C
FFFC
FFFC
C00C
C018
6018
6018
3870
1FE0
0FC0
ENDCHAR
STARTCHAR uni0473
ENCODING 1139
SWIDTH 542 0
DWIDTH 13 0
BBX 11 12 1 0
BITMAP
1F00
3F80
60C0
C040
FFE0
FFE0
C060
C060
E0E0
71C0
3F80
1F00
ENDCHAR
STARTCHAR uni0474
ENCODING 1140
SWIDTH 529 0
DWIDTH 13 0
BBX 13 16 0 0
BITMAP
C018
E038
6070
6060
6060
3060
30C0
30C0
18C0
1980
1980
0980
0D80
0F00
0700
0700
ENDCHAR
STARTCHAR uni0475
ENCODING 1141
SWIDTH 477 0
DWIDTH 11 0
BBX 12 12 0 0
BITMAP
C070
60F0
60C0
20C0
3180
3180
1180
1B00
1B00
0B00
0E00
0E00
ENDCHAR
STARTCHAR uni0490
ENCODING 1168
SWIDTH 498 0
DWIDTH 12 0
BBX 9 20 2 0
BITMAP
0080
0080
0080
0180
FF80
FF80
C000
C000
C000
C000
C000
C000
C000
C000
C000
C000
C000
C000
C000
C000
ENDCHAR
STARTCHAR uni0491
ENCODING 1169
SWIDTH 416 0
DWIDTH 10 0
BBX 8 16 2 0
BITMAP
03
03
03
02
FE
FE
C0
C0
C0
C0
C0
C0
C0
C0
C0
C0
ENDCHAR
STARTCHAR uni0492
ENCODING 1170
SWIDTH 521 0
DWIDTH 13 0
BBX 11 16 1 0
BITMAP
3FE0
3FE0
3000
3000
3000
3000
3000
FE00
FE00
3000
3000
3000
3000
3000
3000
3000
ENDCHAR
STARTCHAR uni0493
ENCODING 1171
SWIDTH 424 0
DWIDTH 10 0
BBX 9 12 1 0
BITMAP
7F80
7F80
6000
6000
6000
FC00
FC00
6000
6000
6000
6000
6000
ENDCHAR
STARTCHAR uni0496
ENCODING 1174
SWIDTH 847 0
DWIDTH 20 0
BBX 20 20 0 -4
BITMAP
E060E0
7061E0
386180
186300
186300
0C6600
0C6600
07FE00
07FE00
0C6600
1C6300
186380
306180
3061C0
6060F0
E06070
000030
000030
000030
000030
ENDCHAR
STARTCHAR uni0497
ENCODING 1175
SWIDTH 718 0
DWIDTH 17 0
BBX 17 16 0 -4
BITMAP
618700
718E00
318C00
199800
199800
0FF800
0FF800
199800
398C00
318E00
618780
618380
800180
000180
000180
000180
ENDCHAR
STARTCHAR uni0498
ENCODING 1176
SWIDTH 554 0
DWIDTH 13 0
BBX 11 20 1 -4
BITMAP
1F00
7FC0
61C0
00C0
0060
00C0
01C0
1F80
1FC0
00E0
0060
0060
4060
E0E0
7FC0
1F80
0600
0600
0600
0600
ENDCHAR
STARTCHAR uni0499
ENCODING 1177
SWIDTH 456 0
DWIDTH 11 0
BBX 9 16 1 -4
BITMAP
3E00
FF00
4300
0180
0300
3E00
3F00
0380
0180
C380
FF00
3E00
1800
1800
1800
1800
ENDCHAR
STARTCHAR uni049A
ENCODING 1178
SWIDTH 628 0
DWIDTH 15 0
BBX 12 20 2 -4
BITMAP
C060
C0E0
C1C0
C180
C300
C300
C600
FE00
FE00
C700
C300
C180
C1C0
C0C0
C070
C070
0030
0030
0030
0030
ENDCHAR
STARTCHAR uni049B
ENCODING 1179
SWIDTH 536 0
DWIDTH 13 0
BBX 10 16 2 -4
BITMAP
C180
C380
C600
C600
CC00
FC00
FC00
C600
C700
C300
C1C0
C1C0
0040
0040
0040
0040
ENDCHAR
STARTCHAR uni04A0
ENCODING 1184
SWIDTH 716 0
DWIDTH 17 0
BBX 16 16 1 0
BITMAP
FC07
FC0F
0C0C
0C18
0C30
0C30
0C60
0FE0
0FE0
0C70
0C38
0C18
0C0C
0C0E
0C06
0C03
ENDCHAR
STARTCHAR uni04A1
ENCODING 1185
SWIDTH 614 0
DWIDTH 15 0
BBX 13 12 1 0
BITMAP
FC38
FC38
0C60
0C60
0CC0
0FC0
0FC0
0CE0
0C60
0C30
0C30
0C18
ENDCHAR
STARTCHAR uni04A2
ENCODING 1186
SWIDTH 661 0
DWIDTH 16 0
BBX 13 20 2 -4
BITMAP
C060
C060
C060
C060
C060
C060
FFE0
FFE0
C060
C060
C060
C060
C060
C060
C078
C078
0018
0018
0018
0018
ENDCHAR
STARTCHAR uni04A3
ENCODING 1187
SWIDTH 570 0
DWIDTH 14 0
BBX 11 16 2 -4
BITMAP
C0C0
C0C0
C0C0
C0C0
C0C0
FFC0
FFC0
C0C0
C0C0
C0C0
C0E0
C0E0
0060
0060
0060
0060
ENDCHAR
STARTCHAR uni04AA
ENCODING 1194
SWIDTH 571 0
DWIDTH 14 0
BBX 12 20 1 -4
BITMAP
0780
1FE0
3870
7000
6000
6000
C000
C000
C000
C000
E000
6000
7020
3870
1FE0
0FC0
0300
0300
0300
0300
ENDCHAR
STARTCHAR uni04AB
ENCODING 1195
SWIDTH 456 0
DWIDTH 11 0
BBX 9 16 1 -4
BITMAP
1F00
3F80
7180
6000
C000
C000
C000
C000
E000
7180
3F80
1F00
0400
0400
0400
0400
ENDCHAR
STARTCHAR uni04AE
ENCODING 1198
SWIDTH 476 0
DWIDTH 11 0
BBX 11 16 0 0
BITMAP
C060
6060
60C0
30C0
3180
1980
1B00
0B00
0E00
0600
0600
0600
0600
0600
0600
0600
ENDCHAR
STARTCHAR uni04AF
ENCODING 1199
SWIDTH 467 0
DWIDTH 11 0
BBX 11 17 0 -5
BITMAP
E060
60C0
60C0
30C0
3180
3180
1980
1B00
1B00
0B00
0E00
0E00
0600
0600
0600
0600
0600
ENDCHAR
STARTCHAR uni04B0
ENCODING 1200
SWIDTH 476 0
DWIDTH 11 0
BBX 11 16 0 0
BITMAP
C060
6060
60C0
30C0
3180
1980
1B00
0B00
0E00
7FC0
7FC0
0600
0600
0600
0600
0600
ENDCHAR
STARTCHAR uni04B1
ENCODING 1201
SWIDTH 467 0
DWIDTH 11 0
BBX 11 17 0 -5
BITMAP
E060
60C0
60C0
30C0
3180
3180
1980
1B00
1B00
0B00
0E00
7FC0
0600
0600
0600
0600
0600
ENDCHAR
STARTCHAR uni04B2
ENCODING 1202
SWIDTH 551 0
DWIDTH 13 0
BBX 13 20 0 -4
BITMAP
6070
7060
30C0
18C0
1980
0D80
0F00
0700
0700
0F00
1980
19C0
30C0
30E0
6078
6078
8018
0018
0010
0010
ENDCHAR
STARTCHAR uni04B3
ENCODING 1203
SWIDTH 482 0
DWIDTH 12 0
BBX 11 16 0 -4
BITMAP
60C0
3180
3180
1B00
1A00
0E00
0E00
1B00
3300
3180
61E0
60E0
8060
0060
0060
0060
ENDCHAR
STARTCHAR uni04B6
ENCODING 1206
SWIDTH 607 0
DWIDTH 15 0
BBX 12 20 2 -4
BITMAP
C0C0
C0C0
C0C0
C0C0
C0C0
C0C0
E0C0
7FC0
3FC0
00C0
00C0
00C0
00C0
00C0
00F0
00F0
0030
0030
0030
0030
ENDCHAR
STARTCHAR uni04B7
ENCODING 1207
SWIDTH 520 0
DWIDTH 12 0
BBX 11 16 1 -4
BITMAP
C180
C180
C180
C180
E180
6180
7F80
3F80
0180
0180
01E0
01E0
0060
0060
0060
0060
ENDCHAR
STARTCHAR uni04BA
ENCODING 1210
SWIDTH 598 0
DWIDTH 14 0
BBX 11 16 2 0
BITMAP
C000
C000
C000
C000
C000
C000
FF00
FFC0
C1C0
C0E0
C060
C060
C060
C060
C060
C060
ENDCHAR
STARTCHAR uni04BB
ENCODING 1211
SWIDTH 544 0
DWIDTH 13 0
BBX 9 17 2 0
BITMAP
C000
C000
C000
C000
C000
CF00
FF80
F180
C180
C180
C180
C180
C180
C180
C180
C180
C180
ENDCHAR
STARTCHAR uni04C0
ENCODING 1216
SWIDTH 263 0
DWIDTH 6 0
BBX 2 16 2 0
BITMAP
C0
C0
C0
C0
C0
C0
C0
C0
C0
C0
C0
C0
C0
C0
C0
C0
ENDCHAR
STARTCHAR uni04C1
ENCODING 1217
SWIDTH 805 0
DWIDTH 19 0
BBX 19 20 0 0
BITMAP
031800
031800
01F000
000000
E060E0
7061E0
386180
186300
186300
0C6600
0C6600
07FE00
07FE00
0C6600
1C6300
186380
306180
3061C0
6060C0
E06060
ENDCHAR
STARTCHAR uni04C2
ENCODING 1218
SWIDTH 681 0
DWIDTH 16 0
BBX 16 18 0 0
BITMAP
0C30
0430
0660
03C0
0000
0000
6187
718E
318C
1998
1998
0FF8
0FF8
1998
398C
318E
6186
E183
ENDCHAR
STARTCHAR uni04CF
ENCODING 1231
SWIDTH 255 0
DWIDTH 6 0
BBX 3 17 2 0
BITMAP
C0
C0
C0
C0
C0
C0
C0
C0
C0
C0
C0
C0
C0
C0
C0
E0
60
ENDCHAR
STARTCHAR uni04D0
ENCODING 1232
SWIDTH 544 0
DWIDTH 13 0
BBX 13 20 0 0
BITMAP
18C0
18C0
0F80
0000
0700
0700
0500
0D80
0D80
0880
18C0
18C0
1040
3FE0
3FE0
2060
6030
6030
6030
C018
ENDCHAR
STARTCHAR uni04D1
ENCODING 1233
SWIDTH 504 0
DWIDTH 12 0
BBX 9 18 1 0
BITMAP
2180
2180
3100
1E00
0000
0000
1F00
7F80
6180
0180
0780
3F80
7180
E180
C180
E380
7E80
3C80
ENDCHAR
STARTCHAR uni04D4
ENCODING 1236
SWIDTH 822 0
DWIDTH 20 0
BBX 19 16 0 0
BITMAP
00FFC0
00FFC0
01B000
01B000
033000
023000
063F80
043F80
0C3000
0FF000
1FF000
103000
303000
703000
603FE0
E03FE0
ENDCHAR
STARTCHAR uni04D5
ENCODING 1237
SWIDTH 785 0
DWIDTH 19 0
BBX 17 12 1 0
BITMAP
1E1E00
7F7F00
61E300
01C180
01FF80
1FFF80
7F8000
608000
C1C000
E3E100
7F7F00
3C1E00
ENDCHAR
STARTCHAR uni04D6
ENCODING 1238
SWIDTH 527 0
DWIDTH 13 0
BBX 9 20 2 0
BITMAP
6100
2300
1E00
0000
FF80
FF80
C000
C000
C000
C000
FF00
FF00
C000
C000
C000
C000
C000
C000
FF80
FF80
ENDCHAR
STARTCHAR uni04D7
ENCODING 1239
SWIDTH 496 0
DWIDTH 12 0
BBX 10 18 1 0
BITMAP
2180
2180
3100
1E00
0000
0000
1F00
3F80
61C0
40C0
FFC0
FFC0
C000
C000
6000
7080
3FC0
1F00
ENDCHAR
STARTCHAR uni04D8
ENCODING 1240
SWIDTH 658 0
DWIDTH 16 0
BBX 14 16 1 0
BITMAP
0FC0
1FE0
3870
2038
0018
0018
0008
FFFC
FFFC
4018
6018
6018
7038
3870
1FE0
0FC0
ENDCHAR
STARTCHAR uni04D9
ENCODING 1241
SWIDTH 496 0
DWIDTH 12 0
BBX 10 12 1 0
BITMAP
3E00
7F00
4380
0180
00C0
FFC0
FFC0
C0C0
C180
6380
7F00
3E00
ENDCHAR
STARTCHAR uni04E2
ENCODING 1250
SWIDTH 656 0
DWIDTH 16 0
BBX 12 18 2 0
BITMAP
1F80
0000
C070
C070
C0F0
C1B0
C1B0
C330
C330
C630
C630
CC30
D830
D830
F030
F030
E030
E030
ENDCHAR
STARTCHAR uni04E3
ENCODING 1251
SWIDTH 565 0
DWIDTH 14 0
BBX 10 15 2 0
BITMAP
3F00
0000
0000
C1C0
C1C0
C3C0
C6C0
C6C0
CCC0
C8C0
D8C0
F0C0
E0C0
E0C0
C0C0
ENDCHAR
STARTCHAR uni04E6
ENCODING 1254
SWIDTH 664 0
DWIDTH 16 0
BBX 14 19 1 0
BITMAP
1CC0
1CE0
0000
0F80
1FE0
3870
7038
6018
E018
C00C
C00C
C00C
C01C
6018
6018
7038
3870
1FE0
0FC0
ENDCHAR
STARTCHAR uni04E7
ENCODING 1255
SWIDTH 542 0
DWIDTH 13 0
BBX 11 16 1 0
BITMAP
3180
3180
0000
0000
1F00
3F80
71C0
60C0
C060
C060
C060
C060
60C0
71C0
3F80
1F00
ENDCHAR
STARTCHAR uni04E8
ENCODING 1256
SWIDTH 664 0
DWIDTH 16 0
BBX 14 16 1 0
BITMAP
0FC0
1FE0
3870
7038
6018
E018
C00C
FFFC
FFFC
C00C
C018
6018
6018
3870
1FE0
0FC0
ENDCHAR
STARTCHAR uni04E9
ENCODING 1257
SWIDTH 542 0
DWIDTH 13 0
BBX 11 12 1 0
BITMAP
1F00
3F80
60C0
C040
FFE0
FFE0
C060
C060
E0E0
71C0
3F80
1F00
ENDCHAR
STARTCHAR uni04EE
ENCODING 1262
SWIDTH 514 0
DWIDTH 12 0
BBX 12 18 0 0
BITMAP
1F80
0000
C030
6030
6060
3060
3060
18C0
18C0
1980
0D80
0D80
0700
0700
0600
0600
3C00
3800
ENDCHAR
STARTCHAR uni04EF
ENCODING 1263
SWIDTH 467 0
DWIDTH 11 0
BBX 11 20 0 -5
BITMAP
1F80
0000
0000
E060
6040
60C0
30C0
3080
3180
1980
1900
0B00
0F00
0E00
0600
0600
0C00
1C00
7800
7000
ENDCHAR
STARTCHAR uni04F2
ENCODING 1266
SWIDTH 514 0
DWIDTH 12 0
BBX 12 21 0 0
BITMAP
0660
0640
0CC0
0980
0000
C030
6030
6060
3060
3060
18C0
18C0
1980
0D80
0D80
0700
0700
0600
0600
3C00
3800
ENDCHAR
STARTCHAR uni04F3
ENCODING 1267
SWIDTH 467 0
DWIDTH 11 0
BBX 11 23 0 -5
BITMAP
0660
06C0
0C80
0980
0800
0000
E060
6040
60C0
30C0
3080
3180
1980
1900
0B00
0F00
0E00
0600
0600
0C00
1C00
7800
7000
ENDCHAR
STARTCHAR a.sups
ENCODING 7491
SWIDTH 345 0
DWIDTH 8 0
BBX 6 8 1 9
BITMAP
78
8C
04
3C
C4
84
CC
74
ENDCHAR
STARTCHAR b.sups
ENCODING 7495
SWIDTH 374 0
DWIDTH 9 0
BBX 7 12 1 9
BITMAP
C0
C0
C0
C0
FC
C6
C6
C2
C2
C6
C4
BC
ENDCHAR
STARTCHAR d.sups
ENCODING 7496
SWIDTH 374 0
DWIDTH 9 0
BBX 7 12 1 9
BITMAP
06
06
06
06
7E
C6
C6
86
86
C6
C6
7E
ENDCHAR
STARTCHAR e.sups
ENCODING 7497
SWIDTH 336 0
DWIDTH 8 0
BBX 6 8 1 9
BITMAP
78
C4
84
FC
80
80
C4
7C
ENDCHAR
STARTCHAR g.sups
ENCODING 7501
SWIDTH 343 0
DWIDTH 8 0
BBX 7 11 1 6
BITMAP
7E
CC
84
CC
78
80
C0
7C
86
86
78
ENDCHAR
STARTCHAR k.sups
ENCODING 7503
SWIDTH 337 0
DWIDTH 8 0
BBX 7 12 1 9
BITMAP
C0
C0
C0
C0
C6
C8
D0
F0
F8
C8
CC
C6
ENDCHAR
STARTCHAR m.sups
ENCODING 7504
SWIDTH 559 0
DWIDTH 13 0
BBX 11 8 1 9
BITMAP
9DC0
E660
C420
C420
C420
C420
C420
C420
ENDCHAR
STARTCHAR o.sups
ENCODING 7506
SWIDTH 365 0
DWIDTH 9 0
BBX 7 8 1 9
BITMAP
78
C4
86
86
86
C6
C4
78
ENDCHAR
STARTCHAR p.sups
ENCODING 7510
SWIDTH 374 0
DWIDTH 9 0
BBX 7 11 1 6
BITMAP
FC
C6
C6
C2
C2
C6
C4
FC
C0
C0
C0
ENDCHAR
STARTCHAR t.sups
ENCODING 7511
SWIDTH 232 0
DWIDTH 6 0
BBX 5 10 0 9
BITMAP
20
20
F8
20
20
20
20
20
20
38
ENDCHAR
STARTCHAR u.sups
ENCODING 7512
SWIDTH 370 0
DWIDTH 9 0
BBX 7 8 1 9
BITMAP
C6
C6
C6
C6
C6
C6
CE
76
ENDCHAR
STARTCHAR v.sups
ENCODING 7515
SWIDTH 321 0
DWIDTH 8 0
BBX 8 8 0 9
BITMAP
C3
42
46
64
24
2C
38
18
ENDCHAR
STARTCHAR c.sups
ENCODING 7580
SWIDTH 306 0
DWIDTH 7 0
BBX 6 8 1 9
BITMAP
38
C8
80
80
80
80
C8
7C
ENDCHAR
STARTCHAR f.sups
ENCODING 7584
SWIDTH 201 0
DWIDTH 5 0
BBX 5 12 0 9
BITMAP
38
20
20
20
F8
20
20
20
20
20
20
20
ENDCHAR
STARTCHAR z.sups
ENCODING 7611
SWIDTH 290 0
DWIDTH 7 0
BBX 7 8 0 9
BITMAP
7C
0C
08
18
30
20
60
FE
ENDCHAR
STARTCHAR uni1E06
ENCODING 7686
SWIDTH 588 0
DWIDTH 14 0
BBX 11 20 2 -4
BITMAP
FF00
FF80
C1C0
C0C0
C0C0
C1C0
FF80
FF00
C0C0
C060
C060
C060
C060
C0E0
FFC0
FF00
0000
0000
0000
3F00
ENDCHAR
STARTCHAR uni1E07
ENCODING 7687
SWIDTH 553 0
DWIDTH 13 0
BBX 10 21 2 -4
BITMAP
C000
C000
C000
C000
C000
CF00
FF80
E1C0
C0C0
C0C0
C0C0
C0C0
C0C0
C1C0
E380
FF80
DE00
0000
0000
0000
3F00
ENDCHAR
STARTCHAR uni1E0C
ENCODING 7692
SWIDTH 615 0
DWIDTH 15 0
BBX 12 21 2 -5
BITMAP
FE00
FF80
C1C0
C0E0
C060
C060
C060
C070
C070
C060
C060
C060
C0E0
C1C0
FF80
FE00
0000
0000
0C00
0E00
0C00
ENDCHAR
STARTCHAR uni1E0D
ENCODING 7693
SWIDTH 555 0
DWIDTH 13 0
BBX 10 22 1 -5
BITMAP
00C0
00C0
00C0
00C0
00C0
1EC0
3FC0
71C0
60C0
C0C0
C0C0
C0C0
C0C0
E0C0
71C0
7F40
1E40
0000
0000
0600
0700
0600
ENDCHAR
STARTCHAR uni1E0E
ENCODING 7694
SWIDTH 615 0
DWIDTH 15 0
BBX 12 20 2 -4
BITMAP
FE00
FF80
C1C0
C0E0
C060
C060
C060
C070
C070
C060
C060
C060
C0E0
C1C0
FF80
FE00
0000
0000
0000
3F00
ENDCHAR
STARTCHAR uni1E0F
ENCODING 7695
SWIDTH 555 0
DWIDTH 13 0
BBX 10 21 1 -4
BITMAP
00C0
00C0
00C0
00C0
00C0
1EC0
3FC0
71C0
60C0
C0C0
C0C0
C0C0
C0C0
E0C0
71C0
7F40
1E40
0000
0000
0000
1F80
ENDCHAR
STARTCHAR uni1E16
ENCODING 7702
SWIDTH 527 0
DWIDTH 13 0
BBX 9 22 2 0
BITMAP
0200
0E00
0800
0000
3F00
0000
FF80
FF80
C000
C000
C000
C000
FF00
FF00
C000
C000
C000
C000
C000
C000
FF80
FF80
ENDCHAR
STARTCHAR uni1E17
ENCODING 7703
SWIDTH 496 0
DWIDTH 12 0
BBX 10 20 1 0
BITMAP
0200
0700
0800
0000
3F80
0000
0000
0000
1F00
3F80
61C0
40C0
FFC0
FFC0
C000
C000
6000
7080
3FC0
1F00
ENDCHAR
STARTCHAR uni1E20
ENCODING 7712
SWIDTH 617 0
DWIDTH 15 0
BBX 12 18 1 0
BITMAP
0FE0
0000
07C0
1FE0
3830
7000
6000
6000
C000
C1F0
C1F0
C030
6030
6030
7030
3830
1FF0
07C0
ENDCHAR
STARTCHAR uni1E21
ENCODING 7713
SWIDTH 504 0
DWIDTH 12 0
BBX 11 20 1 -5
BITMAP
3F80
0000
0000
1FE0
7FE0
6180
4180
6180
6180
3F00
7E00
4000
6000
7F80
7FE0
C060
C060
E0C0
7FC0
3F00
ENDCHAR
STARTCHAR uni1E24
ENCODING 7716
SWIDTH 652 0
DWIDTH 16 0
BBX 11 21 2 -5
BITMAP
C060
C060
C060
C060
C060
C060
FFE0
FFE0
C060
C060
C060
C060
C060
C060
C060
C060
0000
0000
0600
0600
0600
ENDCHAR
STARTCHAR uni1E25
ENCODING 7717
SWIDTH 544 0
DWIDTH 13 0
BBX 9 22 2 -5
BITMAP
C000
C000
C000
C000
C000
CF00
FF80
F180
C180
C180
C180
C180
C180
C180
C180
C180
C180
0000
0000
0C00
0C00
0C00
ENDCHAR
STARTCHAR uni1E2A
ENCODING 7722
SWIDTH 652 0
DWIDTH 16 0
BBX 11 21 2 -5
BITMAP
C060
C060
C060
C060
C060
C060
FFE0
FFE0
C060
C060
C060
C060
C060
C060
C060
C060
0000
20C0
3080
1180
0F00
ENDCHAR
STARTCHAR uni1E2B
ENCODING 7723
SWIDTH 544 0
DWIDTH 13 0
BBX 9 22 2 -5
BITMAP
C000
C000
C000
C000
C000
CF00
FF80
F180
C180
C180
C180
C180
C180
C180
C180
C180
C180
0000
4180
6100
2300
1E00
ENDCHAR
STARTCHAR uni1E32
ENCODING 7730
SWIDTH 579 0
DWIDTH 14 0
BBX 12 21 2 -5
BITMAP
C0E0
C0C0
C180
C300
C600
CE00
DC00
DE00
F600
E300
E380
C180
C0C0
C0C0
C060
C070
0000
0000
0600
0600
0600
ENDCHAR
STARTCHAR uni1E33
ENCODING 7731
SWIDTH 495 0
DWIDTH 12 0
BBX 10 22 2 -5
BITMAP
C000
C000
C000
C000
C000
C180
C300
C600
CC00
C800
DC00
FC00
E600
C700
C300
C180
C180
0040
0000
0800
1C00
0800
ENDCHAR
STARTCHAR uni1E34
ENCODING 7732
SWIDTH 579 0
DWIDTH 14 0
BBX 12 20 2 -4
BITMAP
C0E0
C0C0
C180
C300
C600
CE00
DC00
DE00
F600
E300
E380
C180
C0C0
C0C0
C060
C070
0000
0000
0000
1F80
ENDCHAR
STARTCHAR uni1E35
ENCODING 7733
SWIDTH 495 0
DWIDTH 12 0
BBX 10 21 2 -4
BITMAP
C000
C000
C000
C000
C000
C180
C300
C600
CC00
C800
DC00
FC00
E600
C700
C300
C180
C180
0040
0000
0000
7F00
ENDCHAR
STARTCHAR uni1E36
ENCODING 7734
SWIDTH 486 0
DWIDTH 12 0
BBX 9 21 2 -5
BITMAP
C000
C000
C000
C000
C000
C000
C000
C000
C000
C000
C000
C000
C000
C000
FF80
FF80
0000
0000
0C00
0C00
0C00
ENDCHAR
STARTCHAR uni1E37
ENCODING 7735
SWIDTH 255 0
DWIDTH 6 0
BBX 3 22 2 -5
BITMAP
C0
C0
C0
C0
C0
C0
C0
C0
C0
C0
C0
C0
C0
C0
C0
E0
60
00
00
60
E0
60
ENDCHAR
STARTCHAR uni1E38
ENCODING 7736
SWIDTH 486 0
DWIDTH 12 0
BBX 11 23 0 -5
BITMAP
FC00
0000
3000
3000
3000
3000
3000
3000
3000
3000
3000
3000
3000
3000
3000
3000
3FE0
3FE0
0000
0000
0300
0300
0300
ENDCHAR
STARTCHAR uni1E39
ENCODING 7737
SWIDTH 255 0
DWIDTH 6 0
BBX 6 25 0 -5
BITMAP
FC
00
00
30
30
30
30
30
30
30
30
30
30
30
30
30
30
30
38
18
00
00
18
38
18
ENDCHAR
STARTCHAR uni1E3A
ENCODING 7738
SWIDTH 486 0
DWIDTH 12 0
BBX 9 20 2 -4
BITMAP
C000
C000
C000
C000
C000
C000
C000
C000
C000
C000
C000
C000
C000
C000
FF80
FF80
0000
0000
0000
3F00
ENDCHAR
STARTCHAR uni1E3B
ENCODING 7739
SWIDTH 255 0
DWIDTH 6 0
BBX 6 21 1 -4
BITMAP
60
60
60
60
60
60
60
60
60
60
60
60
60
60
60
70
30
00
00
00
FC
ENDCHAR
STARTCHAR uni1E3E
ENCODING 7742
SWIDTH 727 0
DWIDTH 17 0
BBX 13 21 2 0
BITMAP
0080
01C0
0300
0600
0000
E018
E038
E038
F028
D068
D078
D858
C8D8
CCD8
CC98
C598
C718
C718
C318
C018
C018
ENDCHAR
STARTCHAR uni1E3F
ENCODING 7743
SWIDTH 829 0
DWIDTH 20 0
BBX 16 19 2 0
BITMAP
0020
0070
00C0
0180
0100
0000
0000
DE1C
FF7E
E3E7
C183
C183
C183
C183
C183
C183
C183
C183
C183
ENDCHAR
STARTCHAR uni1E40
ENCODING 7744
SWIDTH 727 0
DWIDTH 17 0
BBX 13 20 2 0
BITMAP
0300
0700
0300
0000
E018
E038
E038
F028
D068
D078
D858
C8D8
CCD8
CC98
C598
C718
C718
C318
C018
C018
ENDCHAR
STARTCHAR uni1E41
ENCODING 7745
SWIDTH 829 0
DWIDTH 20 0
BBX 16 17 2 0
BITMAP
0180
0180
0180
0000
0000
DE1C
FF7E
E3E7
C183
C183
C183
C183
C183
C183
C183
C183
C183
ENDCHAR
STARTCHAR uni1E42
ENCODING 7746
SWIDTH 727 0
DWIDTH 17 0
BBX 13 21 2 -5
BITMAP
E018
E038
E038
F028
D068
D078
D858
C8D8
CCD8
CC98
C598
C718
C718
C318
C018
C018
0000
0000
0300
0700
0300
ENDCHAR
STARTCHAR uni1E43
ENCODING 7747
SWIDTH 829 0
DWIDTH 20 0
BBX 16 17 2 -5
BITMAP
DE1C
FF7E
E3E7
C183
C183
C183
C183
C183
C183
C183
C183
C183
0000
0000
0180
01C0
0180
ENDCHAR
STARTCHAR uni1E44
ENCODING 7748
SWIDTH 647 0
DWIDTH 16 0
BBX 11 20 2 0
BITMAP
0600
0E00
0600
0000
E060
E060
F060
F060
D860
D860
CC60
CC60
C660
C360
C320
C1A0
C1A0
C0E0
C0E0
C060
ENDCHAR
STARTCHAR uni1E45
ENCODING 7749
SWIDTH 547 0
DWIDTH 13 0
BBX 9 17 2 0
BITMAP
0C00
0C00
0C00
0000
0000
CF00
FF80
E180
C180
C180
C180
C180
C180
C180
C180
C180
C180
ENDCHAR
STARTCHAR uni1E46
ENCODING 7750
SWIDTH 647 0
DWIDTH 16 0
BBX 11 21 2 -5
BITMAP
E060
E060
F060
F060
D860
D860
CC60
CC60
C660
C360
C320
C1A0
C1A0
C0E0
C0E0
C060
0000
0000
0600
0600
0600
ENDCHAR
STARTCHAR uni1E47
ENCODING 7751
SWIDTH 547 0
DWIDTH 13 0
BBX 9 17 2 -5
BITMAP
CF00
FF80
E180
C180
C180
C180
C180
C180
C180
C180
C180
C180
0000
0000
0C00
1C00
0C00
ENDCHAR
STARTCHAR uni1E48
ENCODING 7752
SWIDTH 647 0
DWIDTH 16 0
BBX 11 20 2 -4
BITMAP
E060
E060
F060
F060
D860
D860
CC60
CC60
C660
C360
C320
C1A0
C1A0
C0E0
C0E0
C060
0000
0000
0000
1F80
ENDCHAR
STARTCHAR uni1E49
ENCODING 7753
SWIDTH 547 0
DWIDTH 13 0
BBX 9 16 2 -4
BITMAP
CF00
FF80
E180
C180
C180
C180
C180
C180
C180
C180
C180
C180
0000
0000
0000
3F00
ENDCHAR
STARTCHAR uni1E52
ENCODING 7762
SWIDTH 664 0
DWIDTH 16 0
BBX 14 22 1 0
BITMAP
0080
01C0
0200
0000
0FC0
0000
0F80
1FE0
3870
7038
6018
E018
C00C
C00C
C00C
C01C
6018
6018
7038
3870
1FE0
0FC0
ENDCHAR
STARTCHAR uni1E53
ENCODING 7763
SWIDTH 542 0
DWIDTH 13 0
BBX 11 20 1 0
BITMAP
0300
0600
0C00
0000
3F80
0000
0000
0000
1F00
3F80
71C0
60C0
C060
C060
C060
C060
60C0
71C0
3F80
1F00
ENDCHAR
STARTCHAR uni1E58
ENCODING 7768
SWIDTH 569 0
DWIDTH 14 0
BBX 11 20 2 0
BITMAP
0C00
0C00
0C00
0000
FF00
FFC0
C1C0
C0C0
C060
C060
C0C0
C1C0
FF80
FE00
C700
C300
C180
C1C0
C0C0
C0E0
ENDCHAR
STARTCHAR uni1E59
ENCODING 7769
SWIDTH 347 0
DWIDTH 8 0
BBX 6 17 2 0
BITMAP
30
30
30
00
00
DC
FC
E0
C0
C0
C0
C0
C0
C0
C0
C0
C0
ENDCHAR
STARTCHAR uni1E5A
ENCODING 7770
SWIDTH 569 0
DWIDTH 14 0
BBX 11 21 2 -5
BITMAP
FF00
FFC0
C1C0
C0C0
C060
C060
C0C0
C1C0
FF80
FE00
C700
C300
C180
C1C0
C0C0
C0E0
0000
0000
0C00
0E00
0C00
ENDCHAR
STARTCHAR uni1E5B
ENCODING 7771
SWIDTH 347 0
DWIDTH 8 0
BBX 6 17 2 -5
BITMAP
DC
FC
E0
C0
C0
C0
C0
C0
C0
C0
C0
C0
00
00
C0
C0
C0
ENDCHAR
STARTCHAR uni1E5C
ENCODING 7772
SWIDTH 569 0
DWIDTH 14 0
BBX 11 23 2 -5
BITMAP
3F00
0000
FF00
FFC0
C1C0
C0C0
C060
C060
C0C0
C1C0
FF80
FE00
C700
C300
C180
C1C0
C0C0
C0E0
0000
0000
0C00
0E00
0C00
ENDCHAR
STARTCHAR uni1E5D
ENCODING 7773
SWIDTH 347 0
DWIDTH 8 0
BBX 6 20 2 -5
BITMAP
FC
00
00
DC
FC
E0
C0
C0
C0
C0
C0
C0
C0
C0
C0
00
00
C0
C0
C0
ENDCHAR
STARTCHAR uni1E5E
ENCODING 7774
SWIDTH 569 0
DWIDTH 14 0
BBX 11 20 2 -4
BITMAP
FF00
FFC0
C1C0
C0C0
C060
C060
C0C0
C1C0
FF80
FE00
C700
C300
C180
C1C0
C0C0
C0E0
0000
0000
0000
3F00
ENDCHAR
STARTCHAR uni1E5F
ENCODING 7775
SWIDTH 347 0
DWIDTH 8 0
BBX 8 16 0 -4
BITMAP
37
3F
38
30
30
30
30
30
30
30
30
30
00
00
00
FC
ENDCHAR
STARTCHAR uni1E60
ENCODING 7776
SWIDTH 534 0
DWIDTH 13 0
BBX 11 20 1 0
BITMAP
0600
0E00
0600
0000
1F00
3FC0
70C0
6000
6000
6000
3800
1F00
0780
01C0
0060
0060
4060
E0C0
7FC0
1F00
ENDCHAR
STARTCHAR uni1E61
ENCODING 7777
SWIDTH 419 0
DWIDTH 10 0
BBX 8 17 1 0
BITMAP
18
1C
18
00
00
3C
7F
E2
C0
60
7C
0E
03
03
C3
FF
3C
ENDCHAR
STARTCHAR uni1E62
ENCODING 7778
SWIDTH 534 0
DWIDTH 13 0
BBX 11 21 1 -5
BITMAP
1F00
3FC0
70C0
6000
6000
6000
3800
1F00
0780
01C0
0060
0060
4060
E0C0
7FC0
1F00
0000
0000
0600
0E00
0600
ENDCHAR
STARTCHAR uni1E63
ENCODING 7779
SWIDTH 419 0
DWIDTH 10 0
BBX 8 17 1 -5
BITMAP
3C
7F
E2
C0
60
7C
0E
03
03
C3
FF
3C
00
00
18
1C
18
ENDCHAR
STARTCHAR uni1E6C
ENCODING 7788
SWIDTH 536 0
DWIDTH 13 0
BBX 11 21 1 -5
BITMAP
FFE0
FFE0
0C00
0C00
0C00
0C00
0C00
0C00
0C00
0C00
0C00
0C00
0C00
0C00
0C00
0C00
0000
0000
0C00
0E00
0C00
ENDCHAR
STARTCHAR uni1E6D
ENCODING 7789
SWIDTH 338 0
DWIDTH 8 0
BBX 7 20 1 -5
BITMAP
20
20
60
FC
FC
60
60
60
60
60
60
60
70
3E
1E
00
00
18
18
18
ENDCHAR
STARTCHAR uni1E6E
ENCODING 7790
SWIDTH 536 0
DWIDTH 13 0
BBX 11 20 1 -4
BITMAP
FFE0
FFE0
0C00
0C00
0C00
0C00
0C00
0C00
0C00
0C00
0C00
0C00
0C00
0C00
0C00
0C00
0000
0000
0000
3F80
ENDCHAR
STARTCHAR uni1E6F
ENCODING 7791
SWIDTH 338 0
DWIDTH 8 0
BBX 7 19 1 -4
BITMAP
20
20
60
FC
FC
60
60
60
60
60
60
60
70
3E
1E
00
00
00
7E
ENDCHAR
STARTCHAR Wgrave
ENCODING 7808
SWIDTH 786 0
DWIDTH 19 0
BBX 17 21 1 0
BITMAP
020000
070000
018000
00C000
000000
C1C180
C1C180
C1C180
C14180
C36300
636300
636300
622300
663300
263200
363600
341600
341600
3C1E00
1C1C00
181C00
ENDCHAR
STARTCHAR wgrave
ENCODING 7809
SWIDTH 718 0
DWIDTH 17 0
BBX 16 19 1 0
BITMAP
0400
0E00
0700
0380
0180
0000
0000
C183
C386
C286
42C6
62C6
66CC
664C
246C
3C68
3C68
3C38
1838
ENDCHAR
STARTCHAR Wacute
ENCODING 7810
SWIDTH 786 0
DWIDTH 19 0
BBX 17 21 1 0
BITMAP
002000
007000
00C000
018000
000000
C1C180
C1C180
C1C180
C14180
C36300
636300
636300
622300
663300
263200
363600
341600
341600
3C1E00
1C1C00
181C00
ENDCHAR
STARTCHAR wacute
ENCODING 7811
SWIDTH 718 0
DWIDTH 17 0
BBX 16 19 1 0
BITMAP
0040
00E0
00C0
0180
0300
0000
0000
C183
C386
C286
42C6
62C6
66CC
664C
246C
3C68
3C68
3C38
1838
ENDCHAR
STARTCHAR Wdieresis
ENCODING 7812
SWIDTH 786 0
DWIDTH 19 0
BBX 17 19 1 0
BITMAP
063000
063000
000000
C1C180
C1C180
C1C180
C14180
C36300
636300
636300
622300
663300
263200
363600
341600
341600
3C1E00
1C1C00
181C00
ENDCHAR
STARTCHAR wdieresis
ENCODING 7813
SWIDTH 718 0
DWIDTH 17 0
BBX 16 16 1 0
BITMAP
0C60
0E60
0000
0000
C183
C386
C286
42C6
62C6
66CC
664C
246C
3C68
3C68
3C38
1838
ENDCHAR
STARTCHAR uni1E8E
ENCODING 7822
SWIDTH 476 0
DWIDTH 11 0
BBX 11 20 0 0
BITMAP
0600
0E00
0600
0000
C060
6060
60C0
30C0
3180
1980
1B00
0B00
0E00
0600
0600
0600
0600
0600
0600
0600
ENDCHAR
STARTCHAR uni1E8F
ENCODING 7823
SWIDTH 467 0
DWIDTH 11 0
BBX 11 22 0 -5
BITMAP
0600
0600
0600
0000
0000
E060
6040
60C0
30C0
3080
3180
1980
1900
0B00
0F00
0E00
0600
0600
0C00
1C00
7800
7000
ENDCHAR
STARTCHAR uni1E92
ENCODING 7826
SWIDTH 539 0
DWIDTH 13 0
BBX 11 21 1 -5
BITMAP
7FE0
7FE0
00C0
0180
0180
0300
0600
0600
0C00
1800
3800
3000
7000
E000
FFE0
FFE0
0000
0000
0600
0E00
0600
ENDCHAR
STARTCHAR uni1E93
ENCODING 7827
SWIDTH 425 0
DWIDTH 10 0
BBX 9 17 1 -5
BITMAP
FF00
FF00
0200
0600
0C00
1800
1800
3000
6000
6000
FF80
FF80
0000
0000
1800
1C00
1800
ENDCHAR
STARTCHAR uni1E94
ENCODING 7828
SWIDTH 539 0
DWIDTH 13 0
BBX 11 20 1 -4
BITMAP
7FE0
7FE0
00C0
0180
0180
0300
0600
0600
0C00
1800
3800
3000
7000
E000
FFE0
FFE0
0000
0000
0000
1F80
ENDCHAR
STARTCHAR uni1E95
ENCODING 7829
SWIDTH 425 0
DWIDTH 10 0
BBX 9 16 1 -4
BITMAP
FF00
FF00
0200
0600
0C00
1800
1800
3000
6000
6000
FF80
FF80
0000
0000
0000
7F00
ENDCHAR
STARTCHAR uni1E96
ENCODING 7830
SWIDTH 544 0
DWIDTH 13 0
BBX 9 21 2 -4
BITMAP
C000
C000
C000
C000
C000
CF00
FF80
F180
C180
C180
C180
C180
C180
C180
C180
C180
C180
0000
0000
0000
3F00
ENDCHAR
STARTCHAR uni1E97
ENCODING 7831
SWIDTH 338 0
DWIDTH 8 0
BBX 8 19 0 0
BITMAP
C6
C6
00
00
10
10
30
7E
7E
30
30
30
30
30
30
30
38
1F
0F
ENDCHAR
STARTCHAR uni1E9E
ENCODING 7838
SWIDTH 667 0
DWIDTH 16 0
BBX 13 16 2 0
BITMAP
1F80
3FC0
70E0
6060
C070
C0C0
C180
C380
C1E0
C030
C018
C018
C018
CC38
C7F0
C3E0
ENDCHAR
STARTCHAR uni1EA0
ENCODING 7840
SWIDTH 544 0
DWIDTH 13 0
BBX 13 21 0 -5
BITMAP
0700
0700
0500
0D80
0D80
0880
18C0
18C0
1040
3FE0
3FE0
2060
6030
6030
6030
C018
0000
0000
0200
0700
0200
ENDCHAR
STARTCHAR uni1EA1
ENCODING 7841
SWIDTH 504 0
DWIDTH 12 0
BBX 9 17 1 -5
BITMAP
1F00
7F80
6180
0180
0780
3F80
7180
E180
C180
E380
7E80
3C80
0000
0000
0C00
0C00
0C00
ENDCHAR
STARTCHAR uni1EA2
ENCODING 7842
SWIDTH 544 0
DWIDTH 13 0
BBX 13 21 0 0
BITMAP
0700
0100
0100
0200
0000
0700
0700
0500
0D80
0D80
0880
18C0
18C0
1040
3FE0
3FE0
2060
6030
6030
6030
C018
ENDCHAR
STARTCHAR uni1EA3
ENCODING 7843
SWIDTH 504 0
DWIDTH 12 0
BBX 9 18 1 0
BITMAP
0C00
0600
0600
0C00
0000
0000
1F00
7F80
6180
0180
0780
3F80
7180
E180
C180
E380
7E80
3C80
ENDCHAR
STARTCHAR uni1EA4
ENCODING 7844
SWIDTH 544 0
DWIDTH 13 0
BBX 13 22 0 0
BITMAP
0020
0070
0740
0D80
18C0
0000
0700
0700
0500
0D80
0D80
0880
18C0
18C0
1040
3FE0
3FE0
2060
6030
6030
6030
C018
ENDCHAR
STARTCHAR uni1EA5
ENCODING 7845
SWIDTH 504 0
DWIDTH 12 0
BBX 11 19 1 0
BITMAP
0040
0060
0EC0
1B80
2100
0000
0000
1F00
7F80
6180
0180
0780
3F80
7180
E180
C180
E380
7E80
3C80
ENDCHAR
STARTCHAR uni1EA6
ENCODING 7846
SWIDTH 544 0
DWIDTH 13 0
BBX 13 22 0 0
BITMAP
2000
7000
1700
0D80
18C0
0000
0700
0700
0500
0D80
0D80
0880
18C0
18C0
1040
3FE0
3FE0
2060
6030
6030
6030
C018
ENDCHAR
STARTCHAR uni1EA7
ENCODING 7847
SWIDTH 504 0
DWIDTH 12 0
BBX 10 19 0 0
BITMAP
4000
E000
2700
1D80
10C0
0000
0000
0F80
3FC0
30C0
00C0
03C0
1FC0
38C0
70C0
60C0
71C0
3F40
1E40
ENDCHAR
STARTCHAR uni1EA8
ENCODING 7848
SWIDTH 544 0
DWIDTH 13 0
BBX 13 22 0 0
BITMAP
00E0
0020
0720
0DE0
1880
0000
0700
0700
0500
0D80
0D80
0880
18C0
18C0
1040
3FE0
3FE0
2060
6030
6030
6030
C018
ENDCHAR
STARTCHAR uni1EA9
ENCODING 7849
SWIDTH 504 0
DWIDTH 12 0
BBX 10 20 1 0
BITMAP
01C0
0040
0040
0E80
1B00
2180
0000
0000
1F00
7F80
6180
0180
0780
3F80
7180
E180
C180
E380
7E80
3C80
ENDCHAR
STARTCHAR uni1EAA
ENCODING 7850
SWIDTH 544 0
DWIDTH 13 0
BBX 13 23 0 0
BITMAP
0E40
1380
0000
0700
0D80
18C0
0000
0700
0700
0500
0D80
0D80
0880
18C0
18C0
1040
3FE0
3FE0
2060
6030
6030
6030
C018
ENDCHAR
STARTCHAR uni1EAB
ENCODING 7851
SWIDTH 504 0
DWIDTH 12 0
BBX 9 19 1 0
BITMAP
1980
2700
0000
0E00
1B00
2180
0000
1F00
7F80
6180
0180
0780
3F80
7180
E180
C180
E380
7E80
3C80
ENDCHAR
STARTCHAR uni1EAC
ENCODING 7852
SWIDTH 544 0
DWIDTH 13 0
BBX 13 25 0 -5
BITMAP
0700
0D80
1040
0000
0700
0700
0500
0D80
0D80
0880
18C0
18C0
1040
3FE0
3FE0
2060
6030
6030
6030
C018
0000
0000
0200
0700
0200
ENDCHAR
STARTCHAR uni1EAD
ENCODING 7853
SWIDTH 504 0
DWIDTH 12 0
BBX 9 23 1 -5
BITMAP
0E00
1F00
3100
2080
0000
0000
1F00
7F80
6180
0180
0780
3F80
7180
E180
C180
E380
7E80
3C80
0000
0000
0C00
0C00
0C00
ENDCHAR
STARTCHAR uni1EAE
ENCODING 7854
SWIDTH 544 0
DWIDTH 13 0
BBX 13 22 0 0
BITMAP
0180
0300
1240
18C0
0F80
0000
0700
0700
0500
0D80
0D80
0880
18C0
18C0
1040
3FE0
3FE0
2060
6030
6030
6030
C018
ENDCHAR
STARTCHAR uni1EAF
ENCODING 7855
SWIDTH 504 0
DWIDTH 12 0
BBX 9 20 1 0
BITMAP
0200
0700
0400
2C80
3180
1E00
0000
0000
1F00
7F80
6180
0180
0780
3F80
7180
E180
C180
E380
7E80
3C80
ENDCHAR
STARTCHAR uni1EB0
ENCODING 7856
SWIDTH 544 0
DWIDTH 13 0
BBX 13 22 0 0
BITMAP
0C00
0600
1240
18C0
0F80
0000
0700
0700
0500
0D80
0D80
0880
18C0
18C0
1040
3FE0
3FE0
2060
6030
6030
6030
C018
ENDCHAR
STARTCHAR uni1EB1
ENCODING 7857
SWIDTH 504 0
DWIDTH 12 0
BBX 9 20 1 0
BITMAP
0800
1800
0C00
2480
3180
1E00
0000
0000
1F00
7F80
6180
0180
0780
3F80
7180
E180
C180
E380
7E80
3C80
ENDCHAR
STARTCHAR uni1EB2
ENCODING 7858
SWIDTH 544 0
DWIDTH 13 0
BBX 13 23 0 0
BITMAP
0600
0100
0100
1240
18C0
0F80
0000
0700
0700
0500
0D80
0D80
0880
18C0
18C0
1040
3FE0
3FE0
2060
6030
6030
6030
C018
ENDCHAR
STARTCHAR uni1EB3
ENCODING 7859
SWIDTH 504 0
DWIDTH 12 0
BBX 9 20 1 0
BITMAP
0C00
0600
0600
2C80
3180
1E00
0000
0000
1F00
7F80
6180
0180
0780
3F80
7180
E180
C180
E380
7E80
3C80
ENDCHAR
STARTCHAR uni1EB4
ENCODING 7860
SWIDTH 544 0
DWIDTH 13 0
BBX 13 23 0 0
BITMAP
0E40
1380
0000
1040
1880
0F80
0000
0700
0700
0500
0D80
0D80
0880
18C0
18C0
1040
3FE0
3FE0
2060
6030
6030
6030
C018
ENDCHAR
STARTCHAR uni1EB5
ENCODING 7861
SWIDTH 504 0
DWIDTH 12 0
BBX 9 19 1 0
BITMAP
1980
2700
0000
2180
1F00
0000
0000
1F00
7F80
6180
0180
0780
3F80
7180
E180
C180
E380
7E80
3C80
ENDCHAR
STARTCHAR uni1EB6
ENCODING 7862
SWIDTH 544 0
DWIDTH 13 0
BBX 13 25 0 -5
BITMAP
1040
18C0
0F80
0000
0700
0700
0500
0D80
0D80
0880
18C0
18C0
1040
3FE0
3FE0
2060
6030
6030
6030
C018
0000
0000
0200
0700
0200
ENDCHAR
STARTCHAR uni1EB7
ENCODING 7863
SWIDTH 504 0
DWIDTH 12 0
BBX 9 23 1 -5
BITMAP
2080
2180
3100
1E00
0000
0000
1F00
7F80
6180
0180
0780
3F80
7180
E180
C180
E380
7E80
3C80
0000
0000
0C00
0C00
0C00
ENDCHAR
STARTCHAR uni1EB8
ENCODING 7864
SWIDTH 527 0
DWIDTH 13 0
BBX 9 21 2 -5
BITMAP
FF80
FF80
C000
C000
C000
C000
FF00
FF00
C000
C000
C000
C000
C000
C000
FF80
FF80
0000
0000
0C00
0C00
0C00
ENDCHAR
STARTCHAR uni1EB9
ENCODING 7865
SWIDTH 496 0
DWIDTH 12 0
BBX 10 17 1 -5
BITMAP
1F00
3F80
61C0
40C0
FFC0
FFC0
C000
C000
6000
7080
3FC0
1F00
0000
0000
0C00
0E00
0C00
ENDCHAR
STARTCHAR uni1EBA
ENCODING 7866
SWIDTH 527 0
DWIDTH 13 0
BBX 9 21 2 0
BITMAP
1C00
0600
0600
0C00
0000
FF80
FF80
C000
C000
C000
C000
FF00
FF00
C000
C000
C000
C000
C000
C000
FF80
FF80
ENDCHAR
STARTCHAR uni1EBB
ENCODING 7867
SWIDTH 496 0
DWIDTH 12 0
BBX 10 18 1 0
BITMAP
0C00
0600
0600
0C00
0000
0000
1F00
3F80
61C0
40C0
FFC0
FFC0
C000
C000
6000
7080
3FC0
1F00
ENDCHAR
STARTCHAR uni1EBC
ENCODING 7868
SWIDTH 527 0
DWIDTH 13 0
BBX 9 19 2 0
BITMAP
7980
4700
0000
FF80
FF80
C000
C000
C000
C000
FF00
FF00
C000
C000
C000
C000
C000
C000
FF80
FF80
ENDCHAR
STARTCHAR uni1EBD
ENCODING 7869
SWIDTH 496 0
DWIDTH 12 0
BBX 10 17 1 0
BITMAP
1000
3CC0
6380
0000
0000
1F00
3F80
61C0
40C0
FFC0
FFC0
C000
C000
6000
7080
3FC0
1F00
ENDCHAR
STARTCHAR uni1EBE
ENCODING 7870
SWIDTH 527 0
DWIDTH 13 0
BBX 10 22 2 0
BITMAP
0040
00C0
1D00
1600
2100
0000
FF80
FF80
C000
C000
C000
C000
FF00
FF00
C000
C000
C000
C000
C000
C000
FF80
FF80
ENDCHAR
STARTCHAR uni1EBF
ENCODING 7871
SWIDTH 496 0
DWIDTH 12 0
BBX 11 19 1 0
BITMAP
0040
0060
0EC0
1B80
2100
0000
0000
1F00
3F80
61C0
40C0
FFC0
FFC0
C000
C000
6000
7080
3FC0
1F00
ENDCHAR
STARTCHAR uni1EC0
ENCODING 7872
SWIDTH 527 0
DWIDTH 13 0
BBX 9 22 2 0
BITMAP
8000
C000
7C00
1600
2100
0000
FF80
FF80
C000
C000
C000
C000
FF00
FF00
C000
C000
C000
C000
C000
C000
FF80
FF80
ENDCHAR
STARTCHAR uni1EC1
ENCODING 7873
SWIDTH 496 0
DWIDTH 12 0
BBX 11 19 0 0
BITMAP
4000
E000
3700
1D80
10C0
0000
0000
0F80
1FC0
30E0
2060
7FE0
7FE0
6000
6000
3000
3840
1FE0
0F80
ENDCHAR
STARTCHAR uni1EC2
ENCODING 7874
SWIDTH 527 0
DWIDTH 13 0
BBX 10 22 2 0
BITMAP
0180
00C0
1CC0
1780
2100
0000
FF80
FF80
C000
C000
C000
C000
FF00
FF00
C000
C000
C000
C000
C000
C000
FF80
FF80
ENDCHAR
STARTCHAR uni1EC3
ENCODING 7875
SWIDTH 496 0
DWIDTH 12 0
BBX 10 20 1 0
BITMAP
01C0
0040
0040
0E80
1B00
2180
0000
0000
1F00
3F80
61C0
40C0
FFC0
FFC0
C000
C000
6000
7080
3FC0
1F00
ENDCHAR
STARTCHAR uni1EC4
ENCODING 7876
SWIDTH 527 0
DWIDTH 13 0
BBX 9 23 2 0
BITMAP
3900
6700
0000
1C00
3600
2100
0000
FF80
FF80
C000
C000
C000
C000
FF00
FF00
C000
C000
C000
C000
C000
C000
FF80
FF80
ENDCHAR
STARTCHAR uni1EC5
ENCODING 7877
SWIDTH 496 0
DWIDTH 12 0
BBX 10 19 1 0
BITMAP
1980
2700
0000
0E00
1B00
2180
0000
1F00
3F80
61C0
40C0
FFC0
FFC0
C000
C000
6000
7080
3FC0
1F00
ENDCHAR
STARTCHAR uni1EC6
ENCODING 7878
SWIDTH 527 0
DWIDTH 13 0
BBX 9 25 2 -5
BITMAP
1C00
3600
6100
0000
FF80
FF80
C000
C000
C000
C000
FF00
FF00
C000
C000
C000
C000
C000
C000
FF80
FF80
0000
0000
0C00
0C00
0C00
ENDCHAR
STARTCHAR uni1EC7
ENCODING 7879
SWIDTH 496 0
DWIDTH 12 0
BBX 10 23 1 -5
BITMAP
0E00
1B00
3100
2080
0000
0000
1F00
3F80
61C0
40C0
FFC0
FFC0
C000
C000
6000
7080
3FC0
1F00
0000
0000
0C00
0E00
0C00
ENDCHAR
STARTCHAR uni1EC8
ENCODING 7880
SWIDTH 263 0
DWIDTH 6 0
BBX 3 21 2 0
BITMAP
C0
60
60
C0
00
C0
C0
C0
C0
C0
C0
C0
C0
C0
C0
C0
C0
C0
C0
C0
C0
ENDCHAR
STARTCHAR uni1EC9
ENCODING 7881
SWIDTH 246 0
DWIDTH 6 0
BBX 4 18 1 0
BITMAP
E0
30
30
60
00
00
60
60
60
60
60
60
60
60
60
60
60
60
ENDCHAR
STARTCHAR uni1ECA
ENCODING 7882
SWIDTH 263 0
DWIDTH 6 0
BBX 2 21 2 -5
BITMAP
C0
C0
C0
C0
C0
C0
C0
C0
C0
C0
C0
C0
C0
C0
C0
C0
00
00
C0
C0
C0
ENDCHAR
STARTCHAR uni1ECB
ENCODING 7883
SWIDTH 246 0
DWIDTH 6 0
BBX 2 22 2 -5
BITMAP
80
C0
C0
00
00
C0
C0
C0
C0
C0
C0
C0
C0
C0
C0
C0
C0
00
00
C0
C0
C0
ENDCHAR
STARTCHAR uni1ECC
ENCODING 7884
SWIDTH 664 0
DWIDTH 16 0
BBX 14 21 1 -5
BITMAP
0F80
1FE0
3870
7038
6018
E018
C00C
C00C
C00C
C01C
6018
6018
7038
3870
1FE0
0FC0
0000
0000
0300
0300
0300
ENDCHAR
STARTCHAR uni1ECD
ENCODING 7885
SWIDTH 542 0
DWIDTH 13 0
BBX 11 17 1 -5
BITMAP
1F00
3F80
71C0
60C0
C060
C060
C060
C060
60C0
71C0
3F80
1F00
0000
0000
0400
0E00
0600
ENDCHAR
STARTCHAR uni1ECE
ENCODING 7886
SWIDTH 664 0
DWIDTH 16 0
BBX 14 21 1 0
BITMAP
0700
0180
0180
0300
0000
0F80
1FE0
3870
7038
6018
E018
C00C
C00C
C00C
C01C
6018
6018
7038
3870
1FE0
0FC0
ENDCHAR
STARTCHAR uni1ECF
ENCODING 7887
SWIDTH 542 0
DWIDTH 13 0
BBX 11 18 1 0
BITMAP
0C00
0200
0200
0400
0000
0000
1F00
3F80
71C0
60C0
C060
C060
C060
C060
60C0
71C0
3F80
1F00
ENDCHAR
STARTCHAR uni1ED0
ENCODING 7888
SWIDTH 664 0
DWIDTH 16 0
BBX 14 22 1 0
BITMAP
0010
0030
0340
0480
0840
0000
0F80
1FE0
3870
7038
6018
E018
C00C
C00C
C00C
C01C
6018
6018
7038
3870
1FE0
0FC0
ENDCHAR
STARTCHAR uni1ED1
ENCODING 7889
SWIDTH 542 0
DWIDTH 13 0
BBX 11 19 1 0
BITMAP
0020
0060
0EC0
1B80
2100
0000
0000
1F00
3F80
71C0
60C0
C060
C060
C060
C060
60C0
71C0
3F80
1F00
ENDCHAR
STARTCHAR uni1ED2
ENCODING 7890
SWIDTH 664 0
DWIDTH 16 0
BBX 14 22 1 0
BITMAP
2000
1000
0B00
0480
0840
0000
0F80
1FE0
3870
7038
6018
E018
C00C
C00C
C00C
C01C
6018
6018
7038
3870
1FE0
0FC0
ENDCHAR
STARTCHAR uni1ED3
ENCODING 7891
SWIDTH 542 0
DWIDTH 13 0
BBX 11 19 1 0
BITMAP
8000
C000
6E00
3B00
2180
0000
0000
1F00
3F80
71C0
60C0
C060
C060
C060
C060
60C0
71C0
3F80
1F00
ENDCHAR
STARTCHAR uni1ED4
ENCODING 7892
SWIDTH 664 0
DWIDTH 16 0
BBX 14 22 1 0
BITMAP
0060
0030
0330
04E0
0840
0000
0F80
1FE0
3870
7038
6018
E018
C00C
C00C
C00C
C01C
6018
6018
7038
3870
1FE0
0FC0
ENDCHAR
STARTCHAR uni1ED5
ENCODING 7893
SWIDTH 542 0
DWIDTH 13 0
BBX 11 20 1 0
BITMAP
00C0
0140
0060
0EC0
1B00
2180
0000
0000
1F00
3F80
71C0
60C0
C060
C060
C060
C060
60C0
71C0
3F80
1F00
ENDCHAR
STARTCHAR uni1ED6
ENCODING 7894
SWIDTH 664 0
DWIDTH 16 0
BBX 14 23 1 0
BITMAP
0E40
19C0
0000
0300
0480
0840
0000
0F80
1FE0
3870
7038
6018
E018
C00C
C00C
C00C
C01C
6018
6018
7038
3870
1FE0
0FC0
ENDCHAR
STARTCHAR uni1ED7
ENCODING 7895
SWIDTH 542 0
DWIDTH 13 0
BBX 11 19 1 0
BITMAP
1880
2700
0000
0E00
1B00
2180
0000
1F00
3F80
71C0
60C0
C060
C060
C060
C060
60C0
71C0
3F80
1F00
ENDCHAR
STARTCHAR uni1ED8
ENCODING 7896
SWIDTH 664 0
DWIDTH 16 0
BBX 14 25 1 -5
BITMAP
0780
0CC0
1860
0000
0F80
1FE0
3870
7038
6018
E018
C00C
C00C
C00C
C01C
6018
6018
7038
3870
1FE0
0FC0
0000
0000
0300
0300
0300
ENDCHAR
STARTCHAR uni1ED9
ENCODING 7897
SWIDTH 542 0
DWIDTH 13 0
BBX 11 23 1 -5
BITMAP
0E00
1B00
3180
2080
0000
0000
1F00
3F80
71C0
60C0
C060
C060
C060
C060
60C0
71C0
3F80
1F00
0000
0000
0400
0E00
0600
ENDCHAR
STARTCHAR uni1EDA
ENCODING 7898
SWIDTH 664 0
DWIDTH 16 0
BBX 14 21 1 0
BITMAP
00C0
01C0
038C
020C
000C
0F98
1FF0
3870
7038
6018
6018
C00C
C00C
C00C
C00C
601C
6018
7038
3870
1FE0
07C0
ENDCHAR
STARTCHAR uni1EDB
ENCODING 7899
SWIDTH 542 0
DWIDTH 13 0
BBX 12 19 1 0
BITMAP
0100
0380
0700
0620
0C70
0030
0020
1EE0
3F80
71C0
60C0
C060
C060
C060
C060
60E0
71C0
3F80
1F00
ENDCHAR
STARTCHAR uni1EDC
ENCODING 7900
SWIDTH 664 0
DWIDTH 16 0
BBX 14 21 1 0
BITMAP
0800
0E00
070C
010C
000C
0F98
1FF0
3870
7038
6018
6018
C00C
C00C
C00C
C00C
601C
6018
7038
3870
1FE0
07C0
ENDCHAR
STARTCHAR uni1EDD
ENCODING 7901
SWIDTH 542 0
DWIDTH 13 0
BBX 12 19 1 0
BITMAP
1000
3800
1C00
0C20
0670
0030
0020
1EE0
3F80
71C0
60C0
C060
C060
C060
C060
60E0
71C0
3F80
1F00
ENDCHAR
STARTCHAR uni1EDE
ENCODING 7902
SWIDTH 664 0
DWIDTH 16 0
BBX 14 21 1 0
BITMAP
0700
0180
018C
030C
000C
0F98
1FF0
3870
7038
6018
6018
C00C
C00C
C00C
C00C
601C
6018
7038
3870
1FE0
07C0
ENDCHAR
STARTCHAR uni1EDF
ENCODING 7903
SWIDTH 542 0
DWIDTH 13 0
BBX 12 18 1 0
BITMAP
0C00
0200
0220
0470
0030
0020
1EE0
3F80
71C0
60C0
C060
C060
C060
C060
60E0
71C0
3F80
1F00
ENDCHAR
STARTCHAR uni1EE0
ENCODING 7904
SWIDTH 664 0
DWIDTH 16 0
BBX 14 19 1 0
BITMAP
1E6C
11CC
000C
0F98
1FF0
3870
7038
6018
6018
C00C
C00C
C00C
C00C
601C
6018
7038
3870
1FE0
07C0
ENDCHAR
STARTCHAR uni1EE1
ENCODING 7905
SWIDTH 542 0
DWIDTH 13 0
BBX 12 17 1 0
BITMAP
1000
6CA0
4770
0030
0020
1EE0
3F80
71C0
60C0
C060
C060
C060
C060
60E0
71C0
3F80
1F00
ENDCHAR
STARTCHAR uni1EE2
ENCODING 7906
SWIDTH 664 0
DWIDTH 16 0
BBX 14 24 1 -5
BITMAP
000C
000C
000C
0F98
1FF0
3870
7038
6018
6018
C00C
C00C
C00C
C00C
601C
6018
7038
3870
1FE0
07C0
0000
0000
0300
0300
0300
ENDCHAR
STARTCHAR uni1EE3
ENCODING 7907
SWIDTH 542 0
DWIDTH 13 0
BBX 12 21 1 -5
BITMAP
0020
0070
0030
0020
1EE0
3F80
71C0
60C0
C060
C060
C060
C060
60E0
71C0
3F80
1F00
0000
0000
0400
0E00
0600
ENDCHAR
STARTCHAR uni1EE4
ENCODING 7908
SWIDTH 645 0
DWIDTH 15 0
BBX 11 21 2 -5
BITMAP
C060
C060
C060
C060
C060
C060
C060
C060
C060
C060
C060
C060
6060
70E0
3FC0
1F00
0000
0000
0600
0E00
0600
ENDCHAR
STARTCHAR uni1EE5
ENCODING 7909
SWIDTH 544 0
DWIDTH 13 0
BBX 9 17 2 -5
BITMAP
C180
C180
C180
C180
C180
C180
C180
C180
C180
E380
FF80
7980
0000
0000
0C00
0C00
0C00
ENDCHAR
STARTCHAR uni1EE6
ENCODING 7910
SWIDTH 645 0
DWIDTH 15 0
BBX 11 21 2 0
BITMAP
0E00
0300
0300
0600
0000
C060
C060
C060
C060
C060
C060
C060
C060
C060
C060
C060
C060
6060
70E0
3FC0
1F00
ENDCHAR
STARTCHAR uni1EE7
ENCODING 7911
SWIDTH 544 0
DWIDTH 13 0
BBX 9 18 2 0
BITMAP
1800
0400
0400
0800
0000
0000
C180
C180
C180
C180
C180
C180
C180
C180
C180
E380
FF80
7980
ENDCHAR
STARTCHAR uni1EE8
ENCODING 7912
SWIDTH 659 0
DWIDTH 16 0
BBX 14 21 2 0
BITMAP
0100
038C
060C
0C0C
000C
C078
C060
C060
C060
C060
C060
C060
C060
C060
C060
C060
C060
6060
70C0
3FC0
1F00
ENDCHAR
STARTCHAR uni1EE9
ENCODING 7913
SWIDTH 544 0
DWIDTH 13 0
BBX 11 19 2 0
BITMAP
0200
0700
0E00
1C60
0820
0020
0060
C1C0
C180
C180
C180
C180
C180
C180
C180
C180
E380
FF80
7D80
ENDCHAR
STARTCHAR uni1EEA
ENCODING 7914
SWIDTH 659 0
DWIDTH 16 0
BBX 14 21 2 0
BITMAP
1000
380C
0C0C
060C
000C
C078
C060
C060
C060
C060
C060
C060
C060
C060
C060
C060
C060
6060
70C0
3FC0
1F00
ENDCHAR
STARTCHAR uni1EEB
ENCODING 7915
SWIDTH 544 0
DWIDTH 13 0
BBX 11 19 2 0
BITMAP
2000
7000
3000
1860
0C20
0020
0060
C1C0
C180
C180
C180
C180
C180
C180
C180
C180
E380
FF80
7D80
ENDCHAR
STARTCHAR uni1EEC
ENCODING 7916
SWIDTH 659 0
DWIDTH 16 0
BBX 14 21 2 0
BITMAP
0E00
030C
030C
060C
000C
C078
C060
C060
C060
C060
C060
C060
C060
C060
C060
C060
C060
6060
70C0
3FC0
1F00
ENDCHAR
STARTCHAR uni1EED
ENCODING 7917
SWIDTH 544 0
DWIDTH 13 0
BBX 11 18 2 0
BITMAP
1800
0C00
0460
1820
0020
0060
C1C0
C180
C180
C180
C180
C180
C180
C180
C180
E380
FF80
7D80
ENDCHAR
STARTCHAR uni1EEE
ENCODING 7918
SWIDTH 659 0
DWIDTH 16 0
BBX 14 20 2 0
BITMAP
000C
3CCC
238C
400C
C078
C060
C060
C060
C060
C060
C060
C060
C060
C060
C060
C060
6060
70C0
3FC0
1F00
ENDCHAR
STARTCHAR uni1EEF
ENCODING 7919
SWIDTH 544 0
DWIDTH 13 0
BBX 11 17 2 0
BITMAP
2000
79E0
C720
0020
0060
C1C0
C180
C180
C180
C180
C180
C180
C180
C180
E380
FF80
7D80
ENDCHAR
STARTCHAR uni1EF0
ENCODING 7920
SWIDTH 659 0
DWIDTH 16 0
BBX 14 25 2 -5
BITMAP
000C
000C
000C
000C
C078
C060
C060
C060
C060
C060
C060
C060
C060
C060
C060
C060
6060
70C0
3FC0
1F00
0000
0000
0600
0E00
0600
ENDCHAR
STARTCHAR uni1EF1
ENCODING 7921
SWIDTH 544 0
DWIDTH 13 0
BBX 11 21 2 -5
BITMAP
0060
0020
0020
0060
C1C0
C180
C180
C180
C180
C180
C180
C180
C180
E380
FF80
7D80
0000
0000
0C00
0C00
0C00
ENDCHAR
STARTCHAR Ygrave
ENCODING 7922
SWIDTH 476 0
DWIDTH 11 0
BBX 11 21 0 0
BITMAP
1000
3800
0C00
0600
0000
C060
6060
60C0
30C0
3180
1980
1B00
0B00
0E00
0600
0600
0600
0600
0600
0600
0600
ENDCHAR
STARTCHAR ygrave
ENCODING 7923
SWIDTH 467 0
DWIDTH 11 0
BBX 11 24 0 -5
BITMAP
1000
3800
0C00
0600
0200
0000
0000
E060
6040
60C0
30C0
3080
3180
1980
1900
0B00
0F00
0E00
0600
0600
0C00
1C00
7800
7000
ENDCHAR
STARTCHAR uni1EF4
ENCODING 7924
SWIDTH 476 0
DWIDTH 11 0
BBX 11 21 0 -5
BITMAP
C060
6060
60C0
30C0
3180
1980
1B00
0B00
0E00
0600
0600
0600
0600
0600
0600
0600
0000
0000
0600
0E00
0600
ENDCHAR
STARTCHAR uni1EF5
ENCODING 7925
SWIDTH 467 0
DWIDTH 11 0
BBX 11 17 0 -5
BITMAP
E060
6040
60C0
30C0
3080
3180
1980
1900
0B00
0F00
0E00
0600
0600
0C00
1CC0
78E0
70C0
ENDCHAR
STARTCHAR uni1EF6
ENCODING 7926
SWIDTH 476 0
DWIDTH 11 0
BBX 11 21 0 0
BITMAP
0E00
0300
0200
0600
0000
C060
6060
60C0
30C0
3180
1980
1B00
0B00
0E00
0600
0600
0600
0600
0600
0600
0600
ENDCHAR
STARTCHAR uni1EF7
ENCODING 7927
SWIDTH 467 0
DWIDTH 11 0
BBX 11 23 0 -5
BITMAP
0E00
0300
0300
0600
0000
0000
E060
6040
60C0
30C0
3080
3180
1980
1900
0B00
0F00
0E00
0600
0600
0C00
1C00
7800
7000
ENDCHAR
STARTCHAR uni1EF8
ENCODING 7928
SWIDTH 476 0
DWIDTH 11 0
BBX 11 19 0 0
BITMAP
3CC0
6380
0000
C060
6060
60C0
30C0
3180
1980
1B00
0B00
0E00
0600
0600
0600
0600
0600
0600
0600
ENDCHAR
STARTCHAR uni1EF9
ENCODING 7929
SWIDTH 467 0
DWIDTH 11 0
BBX 11 22 0 -5
BITMAP
1000
3CC0
2380
0000
0000
E060
6040
60C0
30C0
3080
3180
1980
1900
0B00
0F00
0E00
0600
0600
0C00
1C00
7800
7000
ENDCHAR
STARTCHAR uni1F00
ENCODING 7936
SWIDTH 560 0
DWIDTH 13 0
BBX 12 18 1 0
BITMAP
0E00
0300
0300
0600
0000
0000
1E60
3F60
71E0
60E0
C0C0
C0C0
C0C0
C0C0
E0C0
61C0
7FF0
3E70
ENDCHAR
STARTCHAR uni1F01
ENCODING 7937
SWIDTH 560 0
DWIDTH 13 0
BBX 12 18 1 0
BITMAP
0600
0C00
0C00
0600
0000
0000
1E60
3F60
71E0
60E0
C0C0
C0C0
C0C0
C0C0
E0C0
61C0
7FF0
3E70
ENDCHAR
STARTCHAR uni1F02
ENCODING 7938
SWIDTH 560 0
DWIDTH 13 0
BBX 12 18 1 0
BITMAP
3300
0B00
0900
1100
0180
0000
1E60
3F60
71E0
60E0
C0C0
C0C0
C0C0
C0C0
E0C0
61C0
7FF0
3E70
ENDCHAR
STARTCHAR uni1F03
ENCODING 7939
SWIDTH 560 0
DWIDTH 13 0
BBX 12 18 1 0
BITMAP
1B00
3300
3300
1100
0100
0000
1E60
3F60
71E0
60E0
C0C0
C0C0
C0C0
C0C0
E0C0
61C0
7FF0
3E70
ENDCHAR
STARTCHAR uni1F04
ENCODING 7940
SWIDTH 560 0
DWIDTH 13 0
BBX 12 18 1 0
BITMAP
3180
0980
0900
1300
0200
0000
1E60
3F60
71E0
60E0
C0C0
C0C0
C0C0
C0C0
E0C0
61C0
7FF0
3E70
ENDCHAR
STARTCHAR uni1F05
ENCODING 7941
SWIDTH 560 0
DWIDTH 13 0
BBX 12 18 1 0
BITMAP
1980
3100
3300
1B00
0200
0000
1E60
3F60
71E0
60E0
C0C0
C0C0
C0C0
C0C0
E0C0
61C0
7FF0
3E70
ENDCHAR
STARTCHAR uni1F06
ENCODING 7942
SWIDTH 560 0
DWIDTH 13 0
BBX 12 19 1 0
BITMAP
1C80
3780
0000
0E00
0200
0600
0000
1E60
3F60
71E0
60E0
C0C0
C0C0
C0C0
C0C0
E0C0
61C0
7FF0
3E70
ENDCHAR
STARTCHAR uni1F07
ENCODING 7943
SWIDTH 560 0
DWIDTH 13 0
BBX 12 19 1 0
BITMAP
1C80
3780
0000
0600
0C00
0600
0000
1E60
3F60
71E0
60E0
C0C0
C0C0
C0C0
C0C0
E0C0
61C0
7FF0
3E70
ENDCHAR
STARTCHAR uni1F08
ENCODING 7944
SWIDTH 580 0
DWIDTH 14 0
BBX 14 16 0 0
BITMAP
C380
E380
6680
26C0
64C0
CC40
0C60
0C60
1820
1FF0
1FF0
3030
3018
3018
6018
600C
ENDCHAR
STARTCHAR uni1F09
ENCODING 7945
SWIDTH 573 0
DWIDTH 14 0
BBX 14 16 0 0
BITMAP
6380
E380
C780
86C0
C4C0
6CC0
0C60
0860
1860
1FF0
1FF0
3030
3038
3018
6018
601C
ENDCHAR
STARTCHAR uni1F0A
ENCODING 7946
SWIDTH 714 0
DWIDTH 17 0
BBX 17 16 0 0
BITMAP
8C7000
CC7000
6C5800
6CD800
44D800
808C00
018C00
018C00
010600
03FE00
03FE00
030300
060300
060300
060380
0C0180
ENDCHAR
STARTCHAR uni1F0B
ENCODING 7947
SWIDTH 710 0
DWIDTH 17 0
BBX 17 16 0 0
BITMAP
687000
EC7000
8C5000
8CD800
C4D800
408800
018C00
018C00
010400
03FE00
03FE00
020600
060300
060300
060300
0C0180
ENDCHAR
STARTCHAR uni1F0C
ENCODING 7948
SWIDTH 709 0
DWIDTH 17 0
BBX 17 16 0 0
BITMAP
8C7000
CC7000
6C5000
68D800
48D800
808800
018C00
018C00
010400
03FE00
03FE00
020600
060300
060300
060300
0C0180
ENDCHAR
STARTCHAR uni1F0D
ENCODING 7949
SWIDTH 705 0
DWIDTH 17 0
BBX 17 16 0 0
BITMAP
6C7000
EC7000
88D000
88D800
C89800
418800
018C00
018C00
030400
03FE00
03FE00
060600
060300
060300
0C0300
0C0180
ENDCHAR
STARTCHAR uni1F0E
ENCODING 7950
SWIDTH 613 0
DWIDTH 15 0
BBX 16 17 -1 0
BITMAP
6400
74C0
DCE0
B9E0
39A0
1930
3330
0310
0218
0618
07F8
07FC
0C0C
0C0C
0C06
1806
1807
ENDCHAR
STARTCHAR uni1F0F
ENCODING 7951
SWIDTH 613 0
DWIDTH 15 0
BBX 16 17 -1 0
BITMAP
6400
74C0
DCE0
99E0
39A0
2130
3330
0310
0218
0618
07F8
07FC
0C0C
0C0C
0C06
1806
1807
ENDCHAR
STARTCHAR uni1F10
ENCODING 7952
SWIDTH 448 0
DWIDTH 11 0
BBX 9 18 1 0
BITMAP
1C00
0600
0600
0C00
0000
0000
1E00
7F80
6100
6000
6000
3E00
7E00
E000
C000
E180
7F80
3F00
ENDCHAR
STARTCHAR uni1F11
ENCODING 7953
SWIDTH 448 0
DWIDTH 11 0
BBX 9 18 1 0
BITMAP
0E00
1800
1800
0C00
0000
0000
1E00
7F80
6100
6000
6000
3E00
7E00
E000
C000
E180
7F80
3F00
ENDCHAR
STARTCHAR uni1F12
ENCODING 7954
SWIDTH 448 0
DWIDTH 11 0
BBX 9 18 1 0
BITMAP
7600
1600
1200
2200
0300
0000
1E00
7F80
6100
6000
6000
3E00
7E00
E000
C000
E180
7F80
3F00
ENDCHAR
STARTCHAR uni1F13
ENCODING 7955
SWIDTH 448 0
DWIDTH 11 0
BBX 9 18 1 0
BITMAP
3600
6600
6200
3200
0200
0100
1E00
7F80
6100
6000
6000
3E00
7E00
E000
C000
E180
7F80
3F00
ENDCHAR
STARTCHAR uni1F14
ENCODING 7956
SWIDTH 448 0
DWIDTH 11 0
BBX 9 18 1 0
BITMAP
7300
1300
1200
2600
0600
0000
1E00
7F80
6100
6000
6000
3E00
7E00
E000
C000
E180
7F80
3F00
ENDCHAR
STARTCHAR uni1F15
ENCODING 7957
SWIDTH 448 0
DWIDTH 11 0
BBX 9 18 1 0
BITMAP
3300
6200
6200
3600
0400
0000
1E00
7F80
6100
6000
6000
3E00
7E00
E000
C000
E180
7F80
3F00
ENDCHAR
STARTCHAR uni1F18
ENCODING 7960
SWIDTH 645 0
DWIDTH 15 0
BBX 14 16 0 0
BITMAP
C7FC
E7FC
6600
2600
6600
8600
07F8
07F8
0600
0600
0600
0600
0600
0600
07FC
07FC
ENDCHAR
STARTCHAR uni1F19
ENCODING 7961
SWIDTH 645 0
DWIDTH 15 0
BBX 14 16 0 0
BITMAP
67FC
E7FC
C600
8600
C600
6600
07F8
07F8
0600
0600
0600
0600
0600
0600
07FC
07FC
ENDCHAR
STARTCHAR uni1F1A
ENCODING 7962
SWIDTH 764 0
DWIDTH 18 0
BBX 17 16 0 0
BITMAP
8CFF80
CCFF80
6CC000
6CC000
44C000
80C000
00FF00
00FF00
00C000
00C000
00C000
00C000
00C000
00C000
00FF80
00FF80
ENDCHAR
STARTCHAR uni1F1B
ENCODING 7963
SWIDTH 761 0
DWIDTH 18 0
BBX 17 16 0 0
BITMAP
68FF80
ECFF80
8CC000
8CC000
C4C000
40C000
00FF00
00FF00
00C000
00C000
00C000
00C000
00C000
00C000
00FF80
00FF80
ENDCHAR
STARTCHAR uni1F1C
ENCODING 7964
SWIDTH 760 0
DWIDTH 18 0
BBX 17 16 0 0
BITMAP
8CFF80
CCFF80
6CC000
68C000
48C000
80C000
00FF00
00FF00
00C000
00C000
00C000
00C000
00C000
00C000
00FF80
00FF80
ENDCHAR
STARTCHAR uni1F1D
ENCODING 7965
SWIDTH 756 0
DWIDTH 18 0
BBX 17 16 0 0
BITMAP
6CFF80
ECFF80
88C000
88C000
C8C000
40C000
00FF00
00FF00
00C000
00C000
00C000
00C000
00C000
00C000
00FF80
00FF80
ENDCHAR
STARTCHAR uni1F20
ENCODING 7968
SWIDTH 541 0
DWIDTH 13 0
BBX 9 22 2 -4
BITMAP
1C00
0600
0600
0C00
0000
0000
CF00
DF80
F180
E180
C180
C180
C180
C180
C180
C180
C180
C180
0180
0180
0180
0180
ENDCHAR
STARTCHAR uni1F21
ENCODING 7969
SWIDTH 541 0
DWIDTH 13 0
BBX 9 22 2 -4
BITMAP
0E00
1800
1800
0C00
0000
0000
CF00
DF80
F180
E180
C180
C180
C180
C180
C180
C180
C180
C180
0180
0180
0180
0180
ENDCHAR
STARTCHAR uni1F22
ENCODING 7970
SWIDTH 541 0
DWIDTH 13 0
BBX 9 22 2 -4
BITMAP
7600
1600
1200
2200
0300
0000
CF00
DF80
F180
E180
C180
C180
C180
C180
C180
C180
C180
C180
0180
0180
0180
0180
ENDCHAR
STARTCHAR uni1F23
ENCODING 7971
SWIDTH 541 0
DWIDTH 13 0
BBX 9 22 2 -4
BITMAP
3600
6600
6200
3200
0200
0100
CF00
DF80
F180
E180
C180
C180
C180
C180
C180
C180
C180
C180
0180
0180
0180
0180
ENDCHAR
STARTCHAR uni1F24
ENCODING 7972
SWIDTH 541 0
DWIDTH 13 0
BBX 9 22 2 -4
BITMAP
7300
1300
1200
2600
0600
0000
CF00
DF80
F180
E180
C180
C180
C180
C180
C180
C180
C180
C180
0180
0180
0180
0180
ENDCHAR
STARTCHAR uni1F25
ENCODING 7973
SWIDTH 541 0
DWIDTH 13 0
BBX 9 22 2 -4
BITMAP
3300
6A00
6200
3600
0400
0000
CF00
DF80
F180
E180
C180
C180
C180
C180
C180
C180
C180
C180
0180
0180
0180
0180
ENDCHAR
STARTCHAR uni1F26
ENCODING 7974
SWIDTH 541 0
DWIDTH 13 0
BBX 9 23 2 -4
BITMAP
3900
2700
0000
0C00
1600
0C00
0000
CF00
DF80
F180
E180
C180
C180
C180
C180
C180
C180
C180
C180
0180
0180
0180
0180
ENDCHAR
STARTCHAR uni1F27
ENCODING 7975
SWIDTH 541 0
DWIDTH 13 0
BBX 9 23 2 -4
BITMAP
3900
2700
0000
0C00
1800
0C00
0000
CF00
DF80
F180
E180
C180
C180
C180
C180
C180
C180
C180
C180
0180
0180
0180
0180
ENDCHAR
STARTCHAR uni1F28
ENCODING 7976
SWIDTH 770 0
DWIDTH 18 0
BBX 16 16 0 0
BITMAP
C603
E603
6603
2603
6603
8603
07FF
07FF
0603
0603
0603
0603
0603
0603
0603
0603
ENDCHAR
STARTCHAR uni1F29
ENCODING 7977
SWIDTH 770 0
DWIDTH 18 0
BBX 16 16 0 0
BITMAP
6603
E603
C603
8603
C603
6603
07FF
07FF
0603
0603
0603
0603
0603
0603
0603
0603
ENDCHAR
STARTCHAR uni1F2A
ENCODING 7978
SWIDTH 889 0
DWIDTH 21 0
BBX 19 16 0 0
BITMAP
8CC060
CCC060
6CC060
6CC060
44C060
80C060
00FFE0
00FFE0
00C060
00C060
00C060
00C060
00C060
00C060
00C060
00C060
ENDCHAR
STARTCHAR uni1F2B
ENCODING 7979
SWIDTH 885 0
DWIDTH 21 0
BBX 19 16 0 0
BITMAP
68C060
ECC060
8CC060
8CC060
C4C060
40C060
00FFE0
00FFE0
00C060
00C060
00C060
00C060
00C060
00C060
00C060
00C060
ENDCHAR
STARTCHAR uni1F2C
ENCODING 7980
SWIDTH 885 0
DWIDTH 21 0
BBX 19 16 0 0
BITMAP
8CC060
CCC060
6CC060
68C060
48C060
80C060
00FFE0
00FFE0
00C060
00C060
00C060
00C060
00C060
00C060
00C060
00C060
ENDCHAR
STARTCHAR uni1F2D
ENCODING 7981
SWIDTH 881 0
DWIDTH 21 0
BBX 19 16 0 0
BITMAP
6CC060
ECC060
88C060
88C060
C8C060
40C060
00FFE0
00FFE0
00C060
00C060
00C060
00C060
00C060
00C060
00C060
00C060
ENDCHAR
STARTCHAR uni1F2E
ENCODING 7982
SWIDTH 840 0
DWIDTH 20 0
BBX 19 17 -1 0
BITMAP
640000
74C060
DCC060
B8C060
38C060
18C060
30C060
00FFE0
00FFE0
00C060
00C060
00C060
00C060
00C060
00C060
00C060
00C060
ENDCHAR
STARTCHAR uni1F2F
ENCODING 7983
SWIDTH 840 0
DWIDTH 20 0
BBX 19 17 -1 0
BITMAP
640000
74C060
DCC060
98C060
38C060
20C060
30C060
00FFE0
00FFE0
00C060
00C060
00C060
00C060
00C060
00C060
00C060
00C060
ENDCHAR
STARTCHAR uni1F30
ENCODING 7984
SWIDTH 262 0
DWIDTH 6 0
BBX 5 18 1 0
BITMAP
E0
30
30
60
00
00
60
60
60
60
60
60
60
60
60
60
70
38
ENDCHAR
STARTCHAR uni1F31
ENCODING 7985
SWIDTH 262 0
DWIDTH 6 0
BBX 5 18 1 0
BITMAP
70
C0
C0
60
00
00
60
60
60
60
60
60
60
60
60
60
70
38
ENDCHAR
STARTCHAR uni1F32
ENCODING 7986
SWIDTH 262 0
DWIDTH 6 0
BBX 7 18 -1 0
BITMAP
EC
2C
24
44
06
00
18
18
18
18
18
18
18
18
18
18
1C
0E
ENDCHAR
STARTCHAR uni1F33
ENCODING 7987
SWIDTH 262 0
DWIDTH 6 0
BBX 7 18 -1 0
BITMAP
6C
CC
C4
64
06
00
18
18
18
18
18
18
18
18
18
18
1C
0E
ENDCHAR
STARTCHAR uni1F34
ENCODING 7988
SWIDTH 262 0
DWIDTH 6 0
BBX 7 18 -1 0
BITMAP
E6
26
24
44
0C
00
18
18
18
18
18
18
18
18
18
18
1C
0E
ENDCHAR
STARTCHAR uni1F35
ENCODING 7989
SWIDTH 262 0
DWIDTH 6 0
BBX 7 18 -1 0
BITMAP
66
D4
C4
6C
08
00
18
18
18
18
18
18
18
18
18
18
1C
0E
ENDCHAR
STARTCHAR uni1F36
ENCODING 7990
SWIDTH 262 0
DWIDTH 6 0
BBX 6 19 0 0
BITMAP
E4
9C
00
30
58
30
00
30
30
30
30
30
30
30
30
30
30
38
1C
ENDCHAR
STARTCHAR uni1F37
ENCODING 7991
SWIDTH 262 0
DWIDTH 6 0
BBX 6 19 0 0
BITMAP
E4
9C
00
30
60
30
00
30
30
30
30
30
30
30
30
30
30
38
1C
ENDCHAR
STARTCHAR uni1F38
ENCODING 7992
SWIDTH 381 0
DWIDTH 9 0
BBX 7 16 0 0
BITMAP
C6
E6
66
26
66
86
06
06
06
06
06
06
06
06
06
06
ENDCHAR
STARTCHAR uni1F39
ENCODING 7993
SWIDTH 381 0
DWIDTH 9 0
BBX 7 16 0 0
BITMAP
66
E6
C6
86
C6
66
06
06
06
06
06
06
06
06
06
06
ENDCHAR
STARTCHAR uni1F3A
ENCODING 7994
SWIDTH 500 0
DWIDTH 12 0
BBX 10 16 0 0
BITMAP
8CC0
CCC0
6CC0
6CC0
44C0
80C0
00C0
00C0
00C0
00C0
00C0
00C0
00C0
00C0
00C0
00C0
ENDCHAR
STARTCHAR uni1F3B
ENCODING 7995
SWIDTH 497 0
DWIDTH 12 0
BBX 10 16 0 0
BITMAP
68C0
ECC0
8CC0
8CC0
C4C0
40C0
00C0
00C0
00C0
00C0
00C0
00C0
00C0
00C0
00C0
00C0
ENDCHAR
STARTCHAR uni1F3C
ENCODING 7996
SWIDTH 496 0
DWIDTH 12 0
BBX 10 16 0 0
BITMAP
8CC0
CCC0
6CC0
68C0
48C0
80C0
00C0
00C0
00C0
00C0
00C0
00C0
00C0
00C0
00C0
00C0
ENDCHAR
STARTCHAR uni1F3D
ENCODING 7997
SWIDTH 492 0
DWIDTH 12 0
BBX 10 16 0 0
BITMAP
6CC0
ECC0
88C0
88C0
C8C0
40C0
00C0
00C0
00C0
00C0
00C0
00C0
00C0
00C0
00C0
00C0
ENDCHAR
STARTCHAR uni1F3E
ENCODING 7998
SWIDTH 451 0
DWIDTH 11 0
BBX 10 17 -1 0
BITMAP
6400
74C0
DCC0
B8C0
38C0
18C0
30C0
00C0
00C0
00C0
00C0
00C0
00C0
00C0
00C0
00C0
00C0
ENDCHAR
STARTCHAR uni1F3F
ENCODING 7999
SWIDTH 451 0
DWIDTH 11 0
BBX 10 17 -1 0
BITMAP
6400
74C0
DCC0
98C0
38C0
20C0
30C0
00C0
00C0
00C0
00C0
00C0
00C0
00C0
00C0
00C0
00C0
ENDCHAR
STARTCHAR uni1F40
ENCODING 8000
SWIDTH 535 0
DWIDTH 13 0
BBX 11 18 1 0
BITMAP
0C00
0200
0600
0C00
0000
0000
1F00
3F80
71C0
E0C0
C060
C060
C060
C060
E0C0
71C0
3F80
1F00
ENDCHAR
STARTCHAR uni1F41
ENCODING 8001
SWIDTH 535 0
DWIDTH 13 0
BBX 11 18 1 0
BITMAP
0E00
0800
0800
0C00
0000
0000
1F00
3F80
71C0
E0C0
C060
C060
C060
C060
E0C0
71C0
3F80
1F00
ENDCHAR
STARTCHAR uni1F42
ENCODING 8002
SWIDTH 535 0
DWIDTH 13 0
BBX 11 18 1 0
BITMAP
3600
1B00
1B00
3100
0100
0000
1F00
3F80
71C0
E0C0
C060
C060
C060
C060
E0C0
71C0
3F80
1F00
ENDCHAR
STARTCHAR uni1F43
ENCODING 8003
SWIDTH 535 0
DWIDTH 13 0
BBX 11 18 1 0
BITMAP
3E00
2200
2300
3300
0100
0000
1F00
3F80
71C0
E0C0
C060
C060
C060
C060
E0C0
71C0
3F80
1F00
ENDCHAR
STARTCHAR uni1F44
ENCODING 8004
SWIDTH 535 0
DWIDTH 13 0
BBX 11 18 1 0
BITMAP
3180
1B00
1B00
3200
0200
0000
1F00
3F80
71C0
E0C0
C060
C060
C060
C060
E0C0
71C0
3F80
1F00
ENDCHAR
STARTCHAR uni1F45
ENCODING 8005
SWIDTH 535 0
DWIDTH 13 0
BBX 11 18 1 0
BITMAP
1B00
2300
2300
1200
0200
0000
1F00
3F80
71C0
E0C0
C060
C060
C060
C060
E0C0
71C0
3F80
1F00
ENDCHAR
STARTCHAR uni1F48
ENCODING 8008
SWIDTH 761 0
DWIDTH 18 0
BBX 17 16 0 0
BITMAP
C0F800
E3FE00
670E00
260300
6C0380
8C0180
0C0180
0C0180
0C0180
0C0180
0C0180
0C0300
060300
070E00
03FE00
00F800
ENDCHAR
STARTCHAR uni1F49
ENCODING 8009
SWIDTH 747 0
DWIDTH 18 0
BBX 17 16 0 0
BITMAP
61F000
E3FC00
C70E00
8E0700
CC0300
7C0300
180380
180180
180180
180380
1C0300
0C0300
0E0700
070E00
03FC00
01F000
ENDCHAR
STARTCHAR uni1F4A
ENCODING 8010
SWIDTH 884 0
DWIDTH 21 0
BBX 20 16 0 0
BITMAP
8C1F00
CC7FC0
6CE1E0
6CC060
458070
818030
018030
018030
018030
018030
018030
018070
00C060
00E1E0
007FC0
001F00
ENDCHAR
STARTCHAR uni1F4B
ENCODING 8011
SWIDTH 886 0
DWIDTH 21 0
BBX 20 16 0 0
BITMAP
681F00
EC7FC0
8CE1C0
8CC060
C58070
418030
018030
018030
018030
018030
018030
018060
00C060
00E1C0
007FC0
001F00
ENDCHAR
STARTCHAR uni1F4C
ENCODING 8012
SWIDTH 880 0
DWIDTH 21 0
BBX 20 16 0 0
BITMAP
8C1F00
CC7F80
6CE1C0
69C0E0
498060
818070
038030
038030
038030
018030
018070
018060
01C0E0
00E1C0
007F80
001F00
ENDCHAR
STARTCHAR uni1F4D
ENCODING 8013
SWIDTH 876 0
DWIDTH 21 0
BBX 20 16 0 0
BITMAP
6C3F00
EC7F80
88E1C0
89C0E0
C98060
418070
038030
030030
030030
038030
018070
018060
01C0E0
00E1C0
007F80
001F00
ENDCHAR
STARTCHAR uni1F50
ENCODING 8016
SWIDTH 510 0
DWIDTH 12 0
BBX 10 18 1 0
BITMAP
1C00
0600
0600
0C00
0000
0000
C180
6180
60C0
60C0
40C0
40C0
40C0
40C0
61C0
6180
7F80
1E00
ENDCHAR
STARTCHAR uni1F51
ENCODING 8017
SWIDTH 510 0
DWIDTH 12 0
BBX 10 18 1 0
BITMAP
0C00
1800
1800
0C00
0000
0000
C180
6180
60C0
60C0
40C0
40C0
40C0
40C0
61C0
6180
7F80
1E00
ENDCHAR
STARTCHAR uni1F52
ENCODING 8018
SWIDTH 510 0
DWIDTH 12 0
BBX 10 18 1 0
BITMAP
6600
1600
1200
2200
0300
0000
C180
6180
60C0
60C0
40C0
40C0
40C0
40C0
61C0
6180
7F80
1E00
ENDCHAR
STARTCHAR uni1F53
ENCODING 8019
SWIDTH 510 0
DWIDTH 12 0
BBX 10 18 1 0
BITMAP
3600
6600
6600
3200
0200
0000
C180
6180
60C0
60C0
40C0
40C0
40C0
40C0
61C0
6180
7F80
1E00
ENDCHAR
STARTCHAR uni1F54
ENCODING 8020
SWIDTH 510 0
DWIDTH 12 0
BBX 10 18 1 0
BITMAP
6300
1300
1200
2600
0600
0000
C180
6180
60C0
60C0
40C0
40C0
40C0
40C0
61C0
6180
7F80
1E00
ENDCHAR
STARTCHAR uni1F55
ENCODING 8021
SWIDTH 510 0
DWIDTH 12 0
BBX 10 18 1 0
BITMAP
3300
6200
6600
3600
0400
0000
C180
6180
60C0
60C0
40C0
40C0
40C0
40C0
61C0
6180
7F80
1E00
ENDCHAR
STARTCHAR uni1F56
ENCODING 8022
SWIDTH 510 0
DWIDTH 12 0
BBX 10 19 1 0
BITMAP
3900
2F00
4000
1C00
0400
0C00
0000
C180
6180
60C0
60C0
40C0
40C0
40C0
40C0
61C0
6180
7F80
1E00
ENDCHAR
STARTCHAR uni1F57
ENCODING 8023
SWIDTH 510 0
DWIDTH 12 0
BBX 10 19 1 0
BITMAP
3900
2F00
4000
0C00
1800
0C00
0000
C180
6180
60C0
60C0
40C0
40C0
40C0
40C0
61C0
6180
7F80
1E00
ENDCHAR
STARTCHAR uni1F59
ENCODING 8025
SWIDTH 645 0
DWIDTH 15 0
BBX 16 16 0 0
BITMAP
6C07
E606
C60C
830C
C318
6198
0190
00B0
00E0
0060
0060
0060
0060
0060
0060
0060
ENDCHAR
STARTCHAR uni1F5B
ENCODING 8027
SWIDTH 769 0
DWIDTH 18 0
BBX 19 16 0 0
BITMAP
6980E0
ECC0C0
8CC180
8C6180
C46300
403300
003200
001600
001C00
000C00
000C00
000C00
000C00
000C00
000C00
000C00
ENDCHAR
STARTCHAR uni1F5D
ENCODING 8029
SWIDTH 765 0
DWIDTH 18 0
BBX 18 16 0 0
BITMAP
6D80C0
ECC0C0
88C180
886180
C86300
403300
003600
001600
001C00
001C00
000C00
000C00
000C00
000C00
000C00
000C00
ENDCHAR
STARTCHAR uni1F5F
ENCODING 8031
SWIDTH 718 0
DWIDTH 17 0
BBX 18 17 -1 0
BITMAP
640000
7580C0
DDC1C0
98C180
38E180
206300
306300
003600
003600
001C00
001C00
000C00
000C00
000C00
000C00
000C00
000C00
ENDCHAR
STARTCHAR uni1F60
ENCODING 8032
SWIDTH 701 0
DWIDTH 17 0
BBX 15 18 1 0
BITMAP
0300
0080
0080
0300
0000
0000
2018
7018
600C
600C
C30C
C306
C306
C30E
C30C
638C
7EFC
3C70
ENDCHAR
STARTCHAR uni1F61
ENCODING 8033
SWIDTH 701 0
DWIDTH 17 0
BBX 15 18 1 0
BITMAP
0380
0200
0600
0300
0000
0000
2018
7018
600C
600C
C30C
C306
C306
C30E
C30C
638C
7EFC
3C70
ENDCHAR
STARTCHAR uni1F62
ENCODING 8034
SWIDTH 701 0
DWIDTH 17 0
BBX 15 18 1 0
BITMAP
0D80
06C0
06C0
0CC0
0040
0000
2018
7018
600C
600C
C30C
C306
C306
C30E
C30C
638C
7EFC
3C70
ENDCHAR
STARTCHAR uni1F63
ENCODING 8035
SWIDTH 701 0
DWIDTH 17 0
BBX 15 18 1 0
BITMAP
0F80
0880
08C0
04C0
0040
0000
2018
7018
600C
600C
C30C
C306
C306
C30E
C30C
638C
7EFC
3C70
ENDCHAR
STARTCHAR uni1F64
ENCODING 8036
SWIDTH 701 0
DWIDTH 17 0
BBX 15 18 1 0
BITMAP
0C40
06C0
06C0
0C80
0080
0000
2018
7018
600C
600C
C30C
C306
C306
C30E
C30C
638C
7EFC
3C70
ENDCHAR
STARTCHAR uni1F65
ENCODING 8037
SWIDTH 701 0
DWIDTH 17 0
BBX 15 18 1 0
BITMAP
06C0
0CC0
08C0
0480
0080
0000
2018
7018
600C
600C
C30C
C306
C306
C30E
C30C
638C
7EFC
3C70
ENDCHAR
STARTCHAR uni1F66
ENCODING 8038
SWIDTH 701 0
DWIDTH 17 0
BBX 15 19 1 0
BITMAP
0620
09C0
0000
0300
0080
0100
0000
2018
7018
600C
600C
C30C
C306
C306
C30E
C30C
638C
7EFC
3C70
ENDCHAR
STARTCHAR uni1F67
ENCODING 8039
SWIDTH 701 0
DWIDTH 17 0
BBX 15 19 1 0
BITMAP
0620
09C0
0000
0380
0200
0100
0000
2018
7018
600C
600C
C30C
C306
C306
C30E
C30C
638C
7EFC
3C70
ENDCHAR
STARTCHAR uni1F68
ENCODING 8040
SWIDTH 773 0
DWIDTH 19 0
BBX 18 16 0 0
BITMAP
C0F800
E3FE00
670700
260300
6C0380
8C0180
0C0180
0C0180
0C0180
0C0180
0C0180
060300
060300
030600
1F8FC0
1F8FC0
ENDCHAR
STARTCHAR uni1F69
ENCODING 8041
SWIDTH 759 0
DWIDTH 18 0
BBX 17 16 0 0
BITMAP
61F800
E3FC00
C70E00
8E0700
CC0300
6C0380
1C0180
180180
180180
0C0180
0C0300
0C0300
060600
030C00
1F8F80
1F8F80
ENDCHAR
STARTCHAR uni1F6A
ENCODING 8042
SWIDTH 900 0
DWIDTH 22 0
BBX 21 16 0 0
BITMAP
8C1F00
CC7FC0
6CE0E0
6CC060
45C070
818030
018030
018030
018030
018030
018030
00C060
00C060
0060C0
03F1F8
03F1F8
ENDCHAR
STARTCHAR uni1F6B
ENCODING 8043
SWIDTH 896 0
DWIDTH 22 0
BBX 20 16 0 0
BITMAP
681F00
EC7FC0
8CE1E0
8CC060
C58070
418030
018030
018030
018030
018030
018030
00C060
00C0E0
0061C0
03F1F0
03F1F0
ENDCHAR
STARTCHAR uni1F6C
ENCODING 8044
SWIDTH 895 0
DWIDTH 21 0
BBX 20 16 0 0
BITMAP
8C1F00
CC7FC0
6CE1E0
68C060
498070
818030
018030
018030
018030
018030
018030
00C060
00C0E0
0061C0
03F1F0
03F1F0
ENDCHAR
STARTCHAR uni1F6D
ENCODING 8045
SWIDTH 891 0
DWIDTH 21 0
BBX 20 16 0 0
BITMAP
6C1F00
EC7FC0
88E1E0
89C060
C98070
418030
018030
018030
018030
018030
018070
00C060
00C0C0
0061C0
03F1F0
03F1F0
ENDCHAR
STARTCHAR uni1F6E
ENCODING 8046
SWIDTH 817 0
DWIDTH 20 0
BBX 20 17 -1 0
BITMAP
640000
743E00
DCFF80
B9C1C0
3980C0
1B8060
330060
030060
030060
030060
030060
030060
0180C0
0180C0
00C180
07E3F0
07E3F0
ENDCHAR
STARTCHAR uni1F6F
ENCODING 8047
SWIDTH 817 0
DWIDTH 20 0
BBX 20 17 -1 0
BITMAP
640000
743E00
DCFF80
99C1C0
3980C0
238060
330060
030060
030060
030060
030060
030060
0180C0
0180C0
00C180
07E3F0
07E3F0
ENDCHAR
STARTCHAR uni1F70
ENCODING 8048
SWIDTH 560 0
DWIDTH 13 0
BBX 12 19 1 0
BITMAP
1000
3800
0C00
0600
0200
0000
0000
1E60
3F60
71E0
60E0
C0C0
C0C0
C0C0
C0C0
E0C0
61C0
7FF0
3E70
ENDCHAR
STARTCHAR uni1F71
ENCODING 8049
SWIDTH 560 0
DWIDTH 13 0
BBX 12 19 1 0
BITMAP
0100
0180
0300
0600
0C00
0000
0000
1E60
3F60
71E0
60E0
C0C0
C0C0
C0C0
C0C0
E0C0
61C0
7FF0
3E70
ENDCHAR
STARTCHAR uni1F72
ENCODING 8050
SWIDTH 448 0
DWIDTH 11 0
BBX 9 19 1 0
BITMAP
2000
7000
1800
0C00
0400
0000
0000
1E00
7F80
6100
6000
6000
3E00
7E00
E000
C000
E180
7F80
3F00
ENDCHAR
STARTCHAR uni1F73
ENCODING 8051
SWIDTH 448 0
DWIDTH 11 0
BBX 9 19 1 0
BITMAP
0100
0300
0600
0C00
0800
0000
0000
1E00
7F80
6100
6000
6000
3E00
7E00
E000
C000
E180
7F80
3F00
ENDCHAR
STARTCHAR uni1F74
ENCODING 8052
SWIDTH 541 0
DWIDTH 13 0
BBX 9 23 2 -4
BITMAP
2000
3000
1800
0C00
0400
0000
0000
CF00
DF80
F180
E180
C180
C180
C180
C180
C180
C180
C180
C180
0180
0180
0180
0180
ENDCHAR
STARTCHAR uni1F75
ENCODING 8053
SWIDTH 541 0
DWIDTH 13 0
BBX 9 23 2 -4
BITMAP
0100
0300
0600
0C00
0800
0000
0000
CF00
DF80
F180
E180
C180
C180
C180
C180
C180
C180
C180
C180
0180
0180
0180
0180
ENDCHAR
STARTCHAR uni1F76
ENCODING 8054
SWIDTH 262 0
DWIDTH 6 0
BBX 6 19 0 0
BITMAP
80
C0
60
30
10
00
00
30
30
30
30
30
30
30
30
30
30
38
1C
ENDCHAR
STARTCHAR uni1F77
ENCODING 8055
SWIDTH 262 0
DWIDTH 6 0
BBX 4 19 2 0
BITMAP
10
30
60
C0
80
00
00
C0
C0
C0
C0
C0
C0
C0
C0
C0
C0
E0
70
ENDCHAR
STARTCHAR uni1F78
ENCODING 8056
SWIDTH 535 0
DWIDTH 13 0
BBX 11 19 1 0
BITMAP
1000
3800
1C00
0C00
0600
0000
0000
1F00
3F80
71C0
E0C0
C060
C060
C060
C060
E0C0
71C0
3F80
1F00
ENDCHAR
STARTCHAR uni1F79
ENCODING 8057
SWIDTH 535 0
DWIDTH 13 0
BBX 11 19 1 0
BITMAP
0100
0380
0700
0600
0C00
0000
0000
1F00
3F80
71C0
E0C0
C060
C060
C060
C060
E0C0
71C0
3F80
1F00
ENDCHAR
STARTCHAR uni1F7A
ENCODING 8058
SWIDTH 510 0
DWIDTH 12 0
BBX 10 19 1 0
BITMAP
2000
7000
1800
0C00
0400
0000
0000
C180
6180
60C0
60C0
40C0
40C0
40C0
40C0
61C0
6180
7F80
1E00
ENDCHAR
STARTCHAR uni1F7B
ENCODING 8059
SWIDTH 510 0
DWIDTH 12 0
BBX 10 19 1 0
BITMAP
0200
0300
0600
0C00
0800
0000
0000
C180
6180
60C0
60C0
40C0
40C0
40C0
40C0
61C0
6180
7F80
1E00
ENDCHAR
STARTCHAR uni1F7C
ENCODING 8060
SWIDTH 701 0
DWIDTH 17 0
BBX 15 19 1 0
BITMAP
0400
0E00
0600
0300
0180
0000
0000
2018
7018
600C
600C
C30C
C306
C306
C30E
C30C
638C
7EFC
3C70
ENDCHAR
STARTCHAR uni1F7D
ENCODING 8061
SWIDTH 701 0
DWIDTH 17 0
BBX 15 19 1 0
BITMAP
0040
00E0
01C0
0380
0100
0000
0000
2018
7018
600C
600C
C30C
C306
C306
C30E
C30C
638C
7EFC
3C70
ENDCHAR
STARTCHAR uni1F80
ENCODING 8064
SWIDTH 560 0
DWIDTH 13 0
BBX 12 23 1 -5
BITMAP
0E00
0300
0300
0600
0000
0000
1E60
3F60
71E0
60E0
C0C0
C0C0
C0C0
C0C0
E0C0
61C0
7FF0
3E70
0000
0600
0600
0700
0300
ENDCHAR
STARTCHAR uni1F81
ENCODING 8065
SWIDTH 560 0
DWIDTH 13 0
BBX 12 23 1 -5
BITMAP
0600
0C00
0C00
0600
0000
0000
1E60
3F60
71E0
60E0
C0C0
C0C0
C0C0
C0C0
E0C0
61C0
7FF0
3E70
0000
0600
0600
0700
0300
ENDCHAR
STARTCHAR uni1F82
ENCODING 8066
SWIDTH 560 0
DWIDTH 13 0
BBX 12 23 1 -5
BITMAP
3300
0B00
0900
1100
0180
0000
1E60
3F60
71E0
60E0
C0C0
C0C0
C0C0
C0C0
E0C0
61C0
7FF0
3E70
0000
0600
0600
0700
0300
ENDCHAR
STARTCHAR uni1F83
ENCODING 8067
SWIDTH 560 0
DWIDTH 13 0
BBX 12 23 1 -5
BITMAP
1B00
3300
3300
1100
0100
0000
1E60
3F60
71E0
60E0
C0C0
C0C0
C0C0
C0C0
E0C0
61C0
7FF0
3E70
0000
0600
0600
0700
0300
ENDCHAR
STARTCHAR uni1F84
ENCODING 8068
SWIDTH 560 0
DWIDTH 13 0
BBX 12 23 1 -5
BITMAP
3180
0980
0900
1300
0200
0000
1E60
3F60
71E0
60E0
C0C0
C0C0
C0C0
C0C0
E0C0
61C0
7FF0
3E70
0000
0600
0600
0700
0300
ENDCHAR
STARTCHAR uni1F85
ENCODING 8069
SWIDTH 560 0
DWIDTH 13 0
BBX 12 23 1 -5
BITMAP
1980
3100
3300
1B00
0200
0000
1E60
3F60
71E0
60E0
C0C0
C0C0
C0C0
C0C0
E0C0
61C0
7FF0
3E70
0000
0600
0600
0700
0300
ENDCHAR
STARTCHAR uni1F86
ENCODING 8070
SWIDTH 560 0
DWIDTH 13 0
BBX 12 24 1 -5
BITMAP
1C80
3780
0000
0E00
0200
0600
0000
1E60
3F60
71E0
60E0
C0C0
C0C0
C0C0
C0C0
E0C0
61C0
7FF0
3E70
0000
0600
0600
0700
0300
ENDCHAR
STARTCHAR uni1F87
ENCODING 8071
SWIDTH 560 0
DWIDTH 13 0
BBX 12 24 1 -5
BITMAP
1C80
3780
0000
0600
0C00
0600
0000
1E60
3F60
71E0
60E0
C0C0
C0C0
C0C0
C0C0
E0C0
61C0
7FF0
3E70
0000
0600
0600
0700
0300
ENDCHAR
STARTCHAR uni1F88
ENCODING 8072
SWIDTH 839 0
DWIDTH 20 0
BBX 20 16 0 0
BITMAP
C38000
E38000
668000
26C000
64C000
CC4000
0C60C0
0C60C0
1820C0
1FF0C0
1FF0C0
3030C0
3018C0
3018C0
6018E0
600C70
ENDCHAR
STARTCHAR uni1F89
ENCODING 8073
SWIDTH 832 0
DWIDTH 20 0
BBX 19 16 0 0
BITMAP
638000
E38000
C78000
86C000
C4C000
6CC000
0C60C0
0860C0
1860C0
1FF0C0
1FF0C0
3030C0
3038C0
3018C0
6018E0
601CE0
ENDCHAR
STARTCHAR uni1F8A
ENCODING 8074
SWIDTH 972 0
DWIDTH 23 0
BBX 23 16 0 0
BITMAP
8C7000
CC7000
6C5800
6CD800
44D800
808C00
018C18
018C18
010618
03FE18
03FE18
030318
060318
060318
06039E
0C018E
ENDCHAR
STARTCHAR uni1F8B
ENCODING 8075
SWIDTH 968 0
DWIDTH 23 0
BBX 23 16 0 0
BITMAP
687000
EC7000
8C5000
8CD800
C4D800
408800
018C18
018C18
010418
03FE18
03FE18
020618
060318
060318
06031C
0C018E
ENDCHAR
STARTCHAR uni1F8C
ENCODING 8076
SWIDTH 968 0
DWIDTH 23 0
BBX 23 16 0 0
BITMAP
8C7000
CC7000
6C5000
68D800
48D800
808800
018C18
018C18
010418
03FE18
03FE18
020618
060318
060318
06031C
0C018E
ENDCHAR
STARTCHAR uni1F8D
ENCODING 8077
SWIDTH 964 0
DWIDTH 23 0
BBX 23 16 0 0
BITMAP
6C7000
EC7000
88D000
88D800
C89800
418800
018C18
018C18
030418
03FE18
03FE18
060618
060318
060318
0C031C
0C018E
ENDCHAR
STARTCHAR uni1F8E
ENCODING 8078
SWIDTH 872 0
DWIDTH 21 0
BBX 21 17 -1 0
BITMAP
640000
74C000
DCE000
B9E000
39A000
193000
333000
031030
021830
061830
07F830
07FC30
0C0C20
0C0C20
0C0630
180638
180738
ENDCHAR
STARTCHAR uni1F8F
ENCODING 8079
SWIDTH 872 0
DWIDTH 21 0
BBX 21 17 -1 0
BITMAP
640000
74C000
DCE000
99E000
39A000
213000
333000
031030
021830
061830
07F830
07FC30
0C0C20
0C0C20
0C0630
180638
180738
ENDCHAR
STARTCHAR uni1F90
ENCODING 8080
SWIDTH 541 0
DWIDTH 13 0
BBX 9 23 2 -5
BITMAP
1C00
0600
0600
0C00
0000
0000
CF00
DF80
F180
E180
C180
C180
C180
C180
C180
C180
C180
C180
0180
C180
C180
E180
6000
ENDCHAR
STARTCHAR uni1F91
ENCODING 8081
SWIDTH 541 0
DWIDTH 13 0
BBX 9 23 2 -5
BITMAP
0E00
1800
1800
0C00
0000
0000
CF00
DF80
F180
E180
C180
C180
C180
C180
C180
C180
C180
C180
0180
C180
C180
E180
6000
ENDCHAR
STARTCHAR uni1F92
ENCODING 8082
SWIDTH 541 0
DWIDTH 13 0
BBX 9 23 2 -5
BITMAP
7600
1600
1200
2200
0300
0000
CF00
DF80
F180
E180
C180
C180
C180
C180
C180
C180
C180
C180
0180
C180
C180
E180
6000
ENDCHAR
STARTCHAR uni1F93
ENCODING 8083
SWIDTH 541 0
DWIDTH 13 0
BBX 9 23 2 -5
BITMAP
3600
6600
6200
3200
0200
0100
CF00
DF80
F180
E180
C180
C180
C180
C180
C180
C180
C180
C180
0180
C180
C180
E180
6000
ENDCHAR
STARTCHAR uni1F94
ENCODING 8084
SWIDTH 541 0
DWIDTH 13 0
BBX 9 23 2 -5
BITMAP
7300
1300
1200
2600
0600
0000
CF00
DF80
F180
E180
C180
C180
C180
C180
C180
C180
C180
C180
0180
C180
C180
E180
6000
ENDCHAR
STARTCHAR uni1F95
ENCODING 8085
SWIDTH 541 0
DWIDTH 13 0
BBX 9 23 2 -5
BITMAP
3300
6A00
6200
3600
0400
0000
CF00
DF80
F180
E180
C180
C180
C180
C180
C180
C180
C180
C180
0180
C180
C180
E180
6000
ENDCHAR
STARTCHAR uni1F96
ENCODING 8086
SWIDTH 541 0
DWIDTH 13 0
BBX 9 24 2 -5
BITMAP
3900
2700
0000
0C00
1600
0C00
0000
CF00
DF80
F180
E180
C180
C180
C180
C180
C180
C180
C180
C180
0180
C180
C180
E180
6000
ENDCHAR
STARTCHAR uni1F97
ENCODING 8087
SWIDTH 541 0
DWIDTH 13 0
BBX 9 24 2 -5
BITMAP
3900
2700
0000
0C00
1800
0C00
0000
CF00
DF80
F180
E180
C180
C180
C180
C180
C180
C180
C180
C180
0180
C180
C180
E180
6000
ENDCHAR
STARTCHAR uni1F98
ENCODING 8088
SWIDTH 1028 0
DWIDTH 25 0
BBX 24 16 0 0
BITMAP
C60300
E60300
660300
260300
660300
860300
07FF0C
07FF0C
06030C
06030C
06030C
06030C
06030C
06030C
060307
060307
ENDCHAR
STARTCHAR uni1F99
ENCODING 8089
SWIDTH 1028 0
DWIDTH 25 0
BBX 24 16 0 0
BITMAP
660300
E60300
C60300
860300
C60300
660300
07FF0C
07FF0C
06030C
06030C
06030C
06030C
06030C
06030C
060307
060307
ENDCHAR
STARTCHAR uni1F9A
ENCODING 8090
SWIDTH 1148 0
DWIDTH 28 0
BBX 27 16 0 0
BITMAP
8CC06000
CCC06000
6CC06000
6CC06000
44C06000
80C06000
00FFE180
00FFE180
00C06180
00C06180
00C06180
00C06180
00C06180
00C06180
00C061E0
00C060E0
ENDCHAR
STARTCHAR uni1F9B
ENCODING 8091
SWIDTH 1144 0
DWIDTH 27 0
BBX 27 16 0 0
BITMAP
68C06000
ECC06000
8CC06000
8CC06000
C4C06000
40C06000
00FFE180
00FFE180
00C06180
00C06180
00C06180
00C06180
00C06180
00C06180
00C061E0
00C060E0
ENDCHAR
STARTCHAR uni1F9C
ENCODING 8092
SWIDTH 1143 0
DWIDTH 27 0
BBX 27 16 0 0
BITMAP
8CC06000
CCC06000
6CC06000
68C06000
48C06000
80C06000
00FFE180
00FFE180
00C06180
00C06180
00C06180
00C06180
00C06180
00C06180
00C061E0
00C060E0
ENDCHAR
STARTCHAR uni1F9D
ENCODING 8093
SWIDTH 1140 0
DWIDTH 27 0
BBX 27 16 0 0
BITMAP
6CC06000
ECC06000
88C06000
88C06000
C8C06000
40C06000
00FFE180
00FFE180
00C06180
00C06180
00C06180
00C06180
00C06180
00C06180
00C061E0
00C060E0
ENDCHAR
STARTCHAR uni1F9E
ENCODING 8094
SWIDTH 1098 0
DWIDTH 26 0
BBX 27 17 -1 0
BITMAP
64000000
74C06000
DCC06000
B8C06000
38C06000
18C06000
30C06000
00FFE180
00FFE180
00C06180
00C06180
00C06180
00C06180
00C06180
00C06180
00C061E0
00C060E0
ENDCHAR
STARTCHAR uni1F9F
ENCODING 8095
SWIDTH 1098 0
DWIDTH 26 0
BBX 27 17 -1 0
BITMAP
64000000
74C06000
DCC06000
98C06000
38C06000
20C06000
30C06000
00FFE180
00FFE180
00C06180
00C06180
00C06180
00C06180
00C06180
00C06180
00C061E0
00C060E0
ENDCHAR
STARTCHAR uni1FA0
ENCODING 8096
SWIDTH 701 0
DWIDTH 17 0
BBX 15 23 1 -5
BITMAP
0300
0080
0080
0300
0000
0000
2018
7018
600C
600C
C30C
C306
C306
C30E
C30C
638C
7EFC
3C70
0000
0300
0300
0180
0180
ENDCHAR
STARTCHAR uni1FA1
ENCODING 8097
SWIDTH 701 0
DWIDTH 17 0
BBX 15 23 1 -5
BITMAP
0380
0200
0600
0300
0000
0000
2018
7018
600C
600C
C30C
C306
C306
C30E
C30C
638C
7EFC
3C70
0000
0300
0300
0180
0180
ENDCHAR
STARTCHAR uni1FA2
ENCODING 8098
SWIDTH 701 0
DWIDTH 17 0
BBX 15 23 1 -5
BITMAP
0D80
06C0
06C0
0CC0
0040
0000
2018
7018
600C
600C
C30C
C306
C306
C30E
C30C
638C
7EFC
3C70
0000
0300
0300
0180
0180
ENDCHAR
STARTCHAR uni1FA3
ENCODING 8099
SWIDTH 701 0
DWIDTH 17 0
BBX 15 23 1 -5
BITMAP
0F80
0880
08C0
04C0
0040
0000
2018
7018
600C
600C
C30C
C306
C306
C30E
C30C
638C
7EFC
3C70
0000
0300
0300
0180
0180
ENDCHAR
STARTCHAR uni1FA4
ENCODING 8100
SWIDTH 701 0
DWIDTH 17 0
BBX 15 23 1 -5
BITMAP
0C40
06C0
06C0
0C80
0080
0000
2018
7018
600C
600C
C30C
C306
C306
C30E
C30C
638C
7EFC
3C70
0000
0300
0300
0180
0180
ENDCHAR
STARTCHAR uni1FA5
ENCODING 8101
SWIDTH 701 0
DWIDTH 17 0
BBX 15 23 1 -5
BITMAP
06C0
0CC0
08C0
0480
0080
0000
2018
7018
600C
600C
C30C
C306
C306
C30E
C30C
638C
7EFC
3C70
0000
0300
0300
0180
0180
ENDCHAR
STARTCHAR uni1FA6
ENCODING 8102
SWIDTH 701 0
DWIDTH 17 0
BBX 15 24 1 -5
BITMAP
0620
09C0
0000
0300
0080
0100
0000
2018
7018
600C
600C
C30C
C306
C306
C30E
C30C
638C
7EFC
3C70
0000
0300
0300
0180
0180
ENDCHAR
STARTCHAR uni1FA7
ENCODING 8103
SWIDTH 701 0
DWIDTH 17 0
BBX 15 24 1 -5
BITMAP
0620
09C0
0000
0380
0200
0100
0000
2018
7018
600C
600C
C30C
C306
C306
C30E
C30C
638C
7EFC
3C70
0000
0300
0300
0180
0180
ENDCHAR
STARTCHAR uni1FA8
ENCODING 8104
SWIDTH 1031 0
DWIDTH 25 0
BBX 24 16 0 0
BITMAP
C0F800
E3FE00
670700
260300
6C0380
8C0180
0C018C
0C018C
0C018C
0C018C
0C018C
06030C
06030C
03060C
1F8FC7
1F8FC7
ENDCHAR
STARTCHAR uni1FA9
ENCODING 8105
SWIDTH 1018 0
DWIDTH 24 0
BBX 24 16 0 0
BITMAP
61F800
E3FC00
C70E00
8E0700
CC0300
6C0380
1C018C
18018C
18018C
0C018C
0C030C
0C030C
06060C
030C0C
1F8F8F
1F8F87
ENDCHAR
STARTCHAR uni1FAA
ENCODING 8106
SWIDTH 1158 0
DWIDTH 28 0
BBX 27 16 0 0
BITMAP
8C1F0000
CC7FC000
6CE0E000
6CC06000
45C07000
81803000
018030C0
01803080
01803080
01803080
01803080
00C06080
00C06080
0060C0C0
03F1F8E0
03F1F8E0
ENDCHAR
STARTCHAR uni1FAB
ENCODING 8107
SWIDTH 1155 0
DWIDTH 28 0
BBX 27 16 0 0
BITMAP
681F0000
EC7FC000
8CE1E000
8CC06000
C5807000
41803000
01803180
01803180
01803180
01803180
01803180
00C06180
00C0E180
0061C180
03F1F0E0
03F1F0E0
ENDCHAR
STARTCHAR uni1FAC
ENCODING 8108
SWIDTH 1154 0
DWIDTH 28 0
BBX 27 16 0 0
BITMAP
8C1F0000
CC7FC000
6CE1E000
68C06000
49807000
81803000
01803180
01803180
01803180
01803180
01803180
00C06180
00C0E180
0061C180
03F1F0E0
03F1F0E0
ENDCHAR
STARTCHAR uni1FAD
ENCODING 8109
SWIDTH 1150 0
DWIDTH 28 0
BBX 27 16 0 0
BITMAP
6C1F0000
EC7FC000
88E1E000
89C06000
C9807000
41803000
01803180
01803180
01803180
01803180
01807180
00C06180
00C0C180
0061C180
03F1F1E0
03F1F0E0
ENDCHAR
STARTCHAR uni1FAE
ENCODING 8110
SWIDTH 1078 0
DWIDTH 26 0
BBX 26 17 -1 0
BITMAP
64000000
743E0000
DCFF8000
B9C1C000
3980C000
1B806000
33006000
03006180
03006180
03006180
03006100
03006100
0180C100
0180C100
00C18100
07E3F1C0
07E3F1C0
ENDCHAR
STARTCHAR uni1FAF
ENCODING 8111
SWIDTH 1078 0
DWIDTH 26 0
BBX 26 17 -1 0
BITMAP
64000000
743E0000
DCFF8000
99C1C000
3980C000
23806000
33006000
03006180
03006180
03006180
03006100
03006100
0180C100
0180C100
00C18100
07E3F1C0
07E3F1C0
ENDCHAR
STARTCHAR uni1FB0
ENCODING 8112
SWIDTH 560 0
DWIDTH 13 0
BBX 12 18 1 0
BITMAP
20C0
3080
1180
0F00
0000
0000
1E60
3F60
71E0
60E0
C0C0
C0C0
C0C0
C0C0
E0C0
61C0
7FF0
3E70
ENDCHAR
STARTCHAR uni1FB1
ENCODING 8113
SWIDTH 560 0
DWIDTH 13 0
BBX 12 15 1 0
BITMAP
1F80
0000
0000
1E60
3F60
71E0
60E0
C0C0
C0C0
C0C0
C0C0
E0C0
61C0
7FF0
3E70
ENDCHAR
STARTCHAR uni1FB2
ENCODING 8114
SWIDTH 560 0
DWIDTH 13 0
BBX 12 24 1 -5
BITMAP
1000
3800
0C00
0600
0200
0000
0000
1E60
3F60
71E0
60E0
C0C0
C0C0
C0C0
C0C0
E0C0
61C0
7FF0
3E70
0000
0600
0600
0700
0300
ENDCHAR
STARTCHAR uni1FB3
ENCODING 8115
SWIDTH 560 0
DWIDTH 13 0
BBX 12 17 1 -5
BITMAP
1E60
3F60
71E0
60E0
C0C0
C0C0
C0C0
C0C0
E0C0
61C0
7FF0
3E70
0000
0600
0600
0700
0300
ENDCHAR
STARTCHAR uni1FB4
ENCODING 8116
SWIDTH 560 0
DWIDTH 13 0
BBX 12 24 1 -5
BITMAP
0100
0180
0300
0600
0C00
0000
0000
1E60
3F60
71E0
60E0
C0C0
C0C0
C0C0
C0C0
E0C0
61C0
7FF0
3E70
0000
0600
0600
0700
0300
ENDCHAR
STARTCHAR uni1FB6
ENCODING 8118
SWIDTH 560 0
DWIDTH 13 0
BBX 12 17 1 0
BITMAP
1000
3CC0
2380
0000
0000
1E60
3F60
71E0
60E0
C0C0
C0C0
C0C0
C0C0
E0C0
61C0
7FF0
3E70
ENDCHAR
STARTCHAR uni1FB7
ENCODING 8119
SWIDTH 560 0
DWIDTH 13 0
BBX 12 22 1 -5
BITMAP
1000
3CC0
2380
0000
0000
1E60
3F60
71E0
60E0
C0C0
C0C0
C0C0
C0C0
E0C0
61C0
7FF0
3E70
0000
0600
0600
0700
0300
ENDCHAR
STARTCHAR uni1FB8
ENCODING 8120
SWIDTH 544 0
DWIDTH 13 0
BBX 13 20 0 0
BITMAP
1040
18C0
0F80
0000
0700
0700
0500
0D80
0D80
0880
18C0
18C0
1040
3FE0
3FE0
2060
6030
6030
6030
C018
ENDCHAR
STARTCHAR uni1FB9
ENCODING 8121
SWIDTH 544 0
DWIDTH 13 0
BBX 13 18 0 0
BITMAP
1FC0
0000
0700
0700
0500
0D80
0D80
0880
18C0
18C0
1040
3FE0
3FE0
2060
6030
6030
6030
C018
ENDCHAR
STARTCHAR uni1FBA
ENCODING 8122
SWIDTH 566 0
DWIDTH 14 0
BBX 14 16 0 0
BITMAP
C300
C780
4780
4480
6CC0
0CC0
0840
1860
1860
1FE0
3FF0
3030
3030
6018
6018
601C
ENDCHAR
STARTCHAR uni1FBB
ENCODING 8123
SWIDTH 566 0
DWIDTH 14 0
BBX 14 16 0 0
BITMAP
6300
4780
C780
C480
CCC0
0CC0
0840
1860
1860
1FE0
3FF0
3030
3030
6018
6018
601C
ENDCHAR
STARTCHAR uni1FBC
ENCODING 8124
SWIDTH 802 0
DWIDTH 19 0
BBX 19 16 0 0
BITMAP
070000
070000
050000
0D8000
0D8000
088000
18C180
18C180
104180
3FE180
3FE180
206180
603180
603180
6031C0
C018E0
ENDCHAR
STARTCHAR uni1FBD
ENCODING 8125
SWIDTH 542 0
DWIDTH 13 0
BBX 3 4 5 14
BITMAP
C0
20
20
40
ENDCHAR
STARTCHAR uni1FBE
ENCODING 8126
SWIDTH 262 0
DWIDTH 6 0
BBX 4 10 2 0
BITMAP
C0
C0
C0
C0
C0
C0
C0
C0
E0
70
ENDCHAR
STARTCHAR uni1FBF
ENCODING 8127
SWIDTH 542 0
DWIDTH 13 0
BBX 3 4 5 14
BITMAP
C0
20
20
40
ENDCHAR
STARTCHAR uni1FC0
ENCODING 8128
SWIDTH 542 0
DWIDTH 13 0
BBX 9 3 2 14
BITMAP
2000
7980
C700
ENDCHAR
STARTCHAR uni1FC1
ENCODING 8129
SWIDTH 542 0
DWIDTH 13 0
BBX 7 5 3 14
BITMAP
F2
9E
00
C6
C6
ENDCHAR
STARTCHAR uni1FC2
ENCODING 8130
SWIDTH 541 0
DWIDTH 13 0
BBX 9 24 2 -5
BITMAP
2000
3000
1800
0C00
0400
0000
0000
CF00
DF80
F180
E180
C180
C180
C180
C180
C180
C180
C180
C180
0180
C180
C180
E180
6000
ENDCHAR
STARTCHAR uni1FC3
ENCODING 8131
SWIDTH 541 0
DWIDTH 13 0
BBX 9 17 2 -5
BITMAP
CF00
DF80
F180
E180
C180
C180
C180
C180
C180
C180
C180
C180
0180
C180
C180
E180
6000
ENDCHAR
STARTCHAR uni1FC4
ENCODING 8132
SWIDTH 541 0
DWIDTH 13 0
BBX 9 24 2 -5
BITMAP
0100
0300
0600
0C00
0800
0000
0000
CF00
DF80
F180
E180
C180
C180
C180
C180
C180
C180
C180
C180
0180
C180
C180
E180
6000
ENDCHAR
STARTCHAR uni1FC6
ENCODING 8134
SWIDTH 541 0
DWIDTH 13 0
BBX 9 21 2 -4
BITMAP
1000
7D80
4700
0000
0000
CF00
DF80
F180
E180
C180
C180
C180
C180
C180
C180
C180
C180
0180
0180
0180
0180
ENDCHAR
STARTCHAR uni1FC7
ENCODING 8135
SWIDTH 541 0
DWIDTH 13 0
BBX 9 22 2 -5
BITMAP
1000
7D80
4700
0000
0000
CF00
DF80
F180
E180
C180
C180
C180
C180
C180
C180
C180
C180
0180
C180
C180
E180
6000
ENDCHAR
STARTCHAR uni1FC8
ENCODING 8136
SWIDTH 591 0
DWIDTH 14 0
BBX 14 16 -1 0
BITMAP
C7FC
67FC
6600
6600
2600
0600
07F8
07F8
0600
0600
0600
0600
0600
0600
07FC
07FC
ENDCHAR
STARTCHAR uni1FC9
ENCODING 8137
SWIDTH 591 0
DWIDTH 14 0
BBX 13 16 0 0
BITMAP
CFF8
CFF8
CC00
8C00
8C00
0C00
0FF0
0FF0
0C00
0C00
0C00
0C00
0C00
0C00
0FF8
0FF8
ENDCHAR
STARTCHAR uni1FCA
ENCODING 8138
SWIDTH 716 0
DWIDTH 17 0
BBX 16 16 -1 0
BITMAP
C603
6603
6603
6603
2603
0603
07FF
07FF
0603
0603
0603
0603
0603
0603
0603
0603
ENDCHAR
STARTCHAR uni1FCB
ENCODING 8139
SWIDTH 716 0
DWIDTH 17 0
BBX 15 16 0 0
BITMAP
CC06
CC06
CC06
8C06
8C06
0C06
0FFE
0FFE
0C06
0C06
0C06
0C06
0C06
0C06
0C06
0C06
ENDCHAR
STARTCHAR uni1FCC
ENCODING 8140
SWIDTH 910 0
DWIDTH 22 0
BBX 19 16 2 0
BITMAP
C06000
C06000
C06000
C06000
C06000
C06000
FFE0C0
FFE0C0
C06080
C06080
C06080
C06080
C06080
C06080
C060E0
C060E0
ENDCHAR
STARTCHAR uni1FCD
ENCODING 8141
SWIDTH 542 0
DWIDTH 13 0
BBX 6 5 3 13
BITMAP
C8
6C
6C
C4
04
ENDCHAR
STARTCHAR uni1FCE
ENCODING 8142
SWIDTH 542 0
DWIDTH 13 0
BBX 7 5 3 13
BITMAP
C6
6C
6C
CC
08
ENDCHAR
STARTCHAR uni1FCF
ENCODING 8143
SWIDTH 542 0
DWIDTH 13 0
BBX 7 6 3 13
BITMAP
62
9C
00
38
08
10
ENDCHAR
STARTCHAR uni1FD0
ENCODING 8144
SWIDTH 262 0
DWIDTH 6 0
BBX 8 18 -1 0
BITMAP
C3
C2
66
3C
00
00
18
18
18
18
18
18
18
18
18
18
1C
0E
ENDCHAR
STARTCHAR uni1FD1
ENCODING 8145
SWIDTH 262 0
DWIDTH 6 0
BBX 6 15 0 0
BITMAP
FC
00
00
30
30
30
30
30
30
30
30
30
30
38
1C
ENDCHAR
STARTCHAR uni1FD2
ENCODING 8146
SWIDTH 262 0
DWIDTH 6 0
BBX 8 19 -1 0
BITMAP
30
10
10
DB
CB
00
00
18
18
18
18
18
18
18
18
18
18
1C
0E
ENDCHAR
STARTCHAR uni1FD3
ENCODING 8147
SWIDTH 262 0
DWIDTH 6 0
BBX 8 19 -1 0
BITMAP
0C
08
08
DB
D3
00
00
18
18
18
18
18
18
18
18
18
18
1C
0E
ENDCHAR
STARTCHAR uni1FD6
ENCODING 8150
SWIDTH 262 0
DWIDTH 6 0
BBX 8 17 -1 0
BITMAP
20
F9
8E
00
00
18
18
18
18
18
18
18
18
18
18
1C
0E
ENDCHAR
STARTCHAR uni1FD7
ENCODING 8151
SWIDTH 262 0
DWIDTH 6 0
BBX 8 19 -1 0
BITMAP
73
8E
00
66
66
00
00
18
18
18
18
18
18
18
18
18
18
1C
0E
ENDCHAR
STARTCHAR uni1FD8
ENCODING 8152
SWIDTH 263 0
DWIDTH 6 0
BBX 7 20 0 0
BITMAP
86
C4
78
00
30
30
30
30
30
30
30
30
30
30
30
30
30
30
30
30
ENDCHAR
STARTCHAR uni1FD9
ENCODING 8153
SWIDTH 263 0
DWIDTH 6 0
BBX 6 18 0 0
BITMAP
FC
00
30
30
30
30
30
30
30
30
30
30
30
30
30
30
30
30
ENDCHAR
STARTCHAR uni1FDA
ENCODING 8154
SWIDTH 327 0
DWIDTH 8 0
BBX 7 16 -1 0
BITMAP
C6
66
66
66
26
06
06
06
06
06
06
06
06
06
06
06
ENDCHAR
STARTCHAR uni1FDB
ENCODING 8155
SWIDTH 327 0
DWIDTH 8 0
BBX 6 16 0 0
BITMAP
CC
CC
CC
8C
8C
0C
0C
0C
0C
0C
0C
0C
0C
0C
0C
0C
ENDCHAR
STARTCHAR uni1FDD
ENCODING 8157
SWIDTH 542 0
DWIDTH 13 0
BBX 6 5 3 13
BITMAP
F8
88
8C
4C
04
ENDCHAR
STARTCHAR uni1FDE
ENCODING 8158
SWIDTH 542 0
DWIDTH 13 0
BBX 6 5 3 13
BITMAP
64
8C
8C
48
08
ENDCHAR
STARTCHAR uni1FDF
ENCODING 8159
SWIDTH 542 0
DWIDTH 13 0
BBX 7 6 3 13
BITMAP
62
9C
00
38
20
10
ENDCHAR
STARTCHAR uni1FE0
ENCODING 8160
SWIDTH 510 0
DWIDTH 12 0
BBX 10 18 1 0
BITMAP
4180
6100
3300
1E00
0000
0000
C180
6180
60C0
60C0
40C0
40C0
40C0
40C0
61C0
6180
7F80
1E00
ENDCHAR
STARTCHAR uni1FE1
ENCODING 8161
SWIDTH 510 0
DWIDTH 12 0
BBX 10 15 1 0
BITMAP
3F00
0000
0000
C180
6180
60C0
60C0
40C0
40C0
40C0
40C0
61C0
6180
7F80
1E00
ENDCHAR
STARTCHAR uni1FE2
ENCODING 8162
SWIDTH 510 0
DWIDTH 12 0
BBX 10 19 1 0
BITMAP
1800
0800
0800
6D00
6580
0000
0000
C180
6180
60C0
60C0
40C0
40C0
40C0
40C0
61C0
6180
7F80
1E00
ENDCHAR
STARTCHAR uni1FE3
ENCODING 8163
SWIDTH 510 0
DWIDTH 12 0
BBX 10 19 1 0
BITMAP
0600
0400
0C00
6900
6980
0000
0000
C180
6180
60C0
60C0
40C0
40C0
40C0
40C0
61C0
6180
7F80
1E00
ENDCHAR
STARTCHAR uni1FE4
ENCODING 8164
SWIDTH 549 0
DWIDTH 13 0
BBX 10 22 2 -4
BITMAP
1C00
0600
0600
0C00
0000
0000
1E00
7F80
6180
C0C0
C0C0
C0C0
C0C0
C0C0
C1C0
E380
FF00
DE00
C000
C000
C000
C000
ENDCHAR
STARTCHAR uni1FE5
ENCODING 8165
SWIDTH 549 0
DWIDTH 13 0
BBX 10 22 2 -4
BITMAP
0E00
1800
1800
0C00
0000
0000
1E00
7F80
6180
C0C0
C0C0
C0C0
C0C0
C0C0
C1C0
E380
FF00
DE00
C000
C000
C000
C000
ENDCHAR
STARTCHAR uni1FE6
ENCODING 8166
SWIDTH 510 0
DWIDTH 12 0
BBX 10 17 1 0
BITMAP
2000
7980
4700
0000
0000
C180
6180
60C0
60C0
40C0
40C0
40C0
40C0
61C0
6180
7F80
1E00
ENDCHAR
STARTCHAR uni1FE7
ENCODING 8167
SWIDTH 510 0
DWIDTH 12 0
BBX 10 19 1 0
BITMAP
3980
4700
0000
2300
7300
0000
0000
C180
6180
60C0
60C0
40C0
40C0
40C0
40C0
61C0
6180
7F80
1E00
ENDCHAR
STARTCHAR uni1FE8
ENCODING 8168
SWIDTH 476 0
DWIDTH 11 0
BBX 11 20 0 0
BITMAP
3080
1180
0F00
0000
C060
6060
60C0
30C0
3180
1980
1B00
0B00
0E00
0600
0600
0600
0600
0600
0600
0600
ENDCHAR
STARTCHAR uni1FE9
ENCODING 8169
SWIDTH 476 0
DWIDTH 11 0
BBX 11 18 0 0
BITMAP
3F80
0000
C060
6060
60C0
30C0
3180
1980
1B00
0B00
0E00
0600
0600
0600
0600
0600
0600
0600
ENDCHAR
STARTCHAR uni1FEA
ENCODING 8170
SWIDTH 600 0
DWIDTH 14 0
BBX 15 16 -1 0
BITMAP
CC06
6606
660C
630C
2318
0198
01B0
00B0
00E0
0060
0060
0060
0060
0060
0060
0060
ENDCHAR
STARTCHAR uni1FEB
ENCODING 8171
SWIDTH 600 0
DWIDTH 14 0
BBX 14 16 0 0
BITMAP
D80C
CC0C
CC18
8618
8630
0330
0360
0160
01C0
00C0
00C0
00C0
00C0
00C0
00C0
00C0
ENDCHAR
STARTCHAR uni1FEC
ENCODING 8172
SWIDTH 684 0
DWIDTH 16 0
BBX 15 16 0 0
BITMAP
67F8
E7FC
C60E
8606
C606
6606
0606
060E
07FC
07F0
0600
0600
0600
0600
0600
0600
ENDCHAR
STARTCHAR uni1FED
ENCODING 8173
SWIDTH 542 0
DWIDTH 13 0
BBX 7 5 3 14
BITMAP
30
30
10
D6
D6
ENDCHAR
STARTCHAR uni1FEE
ENCODING 8174
SWIDTH 542 0
DWIDTH 13 0
BBX 7 5 3 14
BITMAP
18
18
10
D6
D6
ENDCHAR
STARTCHAR uni1FEF
ENCODING 8175
SWIDTH 542 0
DWIDTH 13 0
BBX 3 5 4 14
BITMAP
C0
60
60
60
20
ENDCHAR
STARTCHAR uni1FF2
ENCODING 8178
SWIDTH 701 0
DWIDTH 17 0
BBX 15 24 1 -5
BITMAP
0400
0E00
0600
0300
0180
0000
0000
2018
7018
600C
600C
C30C
C306
C306
C30E
C30C
638C
7EFC
3C70
0000
0300
0300
0180
0180
ENDCHAR
STARTCHAR uni1FF3
ENCODING 8179
SWIDTH 701 0
DWIDTH 17 0
BBX 15 17 1 -5
BITMAP
2018
7018
600C
600C
C30C
C306
C306
C30E
C30C
638C
7EFC
3C70
0000
0300
0300
0180
0180
ENDCHAR
STARTCHAR uni1FF4
ENCODING 8180
SWIDTH 701 0
DWIDTH 17 0
BBX 15 24 1 -5
BITMAP
0040
00E0
01C0
0380
0100
0000
0000
2018
7018
600C
600C
C30C
C306
C306
C30E
C30C
638C
7EFC
3C70
0000
0300
0300
0180
0180
ENDCHAR
STARTCHAR uni1FF6
ENCODING 8182
SWIDTH 701 0
DWIDTH 17 0
BBX 15 17 1 0
BITMAP
0400
0F30
18E0
0000
0000
2018
7018
600C
600C
C30C
C306
C306
C30E
C30C
638C
7EFC
3C70
ENDCHAR
STARTCHAR uni1FF7
ENCODING 8183
SWIDTH 701 0
DWIDTH 17 0
BBX 15 22 1 -5
BITMAP
0400
0F30
18E0
0000
0000
2018
7018
600C
600C
C30C
C306
C306
C30E
C30C
638C
7EFC
3C70
0000
0300
0300
0180
0180
ENDCHAR
STARTCHAR uni1FF8
ENCODING 8184
SWIDTH 717 0
DWIDTH 17 0
BBX 17 16 -1 0
BITMAP
C0F800
63FC00
670E00
6E0300
2C0300
0C0180
0C0180
0C0180
0C0180
0C0180
0C0180
0C0300
0E0700
070E00
03FC00
00F800
ENDCHAR
STARTCHAR uni1FF9
ENCODING 8185
SWIDTH 711 0
DWIDTH 17 0
BBX 16 16 0 0
BITMAP
C1F0
C7F8
CE1C
9C0E
9806
1807
3803
3003
3003
3803
1807
1806
1C0E
0E1C
07F8
03F0
ENDCHAR
STARTCHAR uni1FFA
ENCODING 8186
SWIDTH 726 0
DWIDTH 17 0
BBX 17 16 -1 0
BITMAP
C0F800
63FE00
670F00
6E0300
2C0380
0C0180
0C0180
0C0180
0C0180
0C0180
0C0180
060300
060600
030E00
1F8F80
1F8F80
ENDCHAR
STARTCHAR uni1FFB
ENCODING 8187
SWIDTH 723 0
DWIDTH 17 0
BBX 17 16 -1 0
BITMAP
60F800
63FE00
470E00
4E0300
CC0380
0C0180
0C0180
0C0180
0C0180
0C0180
0C0300
060300
060600
030E00
1F8F80
1F8F80
ENDCHAR
STARTCHAR uni1FFC
ENCODING 8188
SWIDTH 935 0
DWIDTH 22 0
BBX 21 16 1 0
BITMAP
0FC000
1FE000
387000
703800
601800
601C00
E00C60
C00C60
E00C60
600C60
601860
601860
303060
186060
FC7C78
FC7C38
ENDCHAR
STARTCHAR uni1FFD
ENCODING 8189
SWIDTH 542 0
DWIDTH 13 0
BBX 3 5 6 13
BITMAP
60
C0
C0
C0
80
ENDCHAR
STARTCHAR uni1FFE
ENCODING 8190
SWIDTH 542 0
DWIDTH 13 0
BBX 3 4 5 14
BITMAP
E0
80
80
C0
ENDCHAR
STARTCHAR uni2007
ENCODING 8199
SWIDTH 497 0
DWIDTH 12 0
BBX 1 1 0 0
BITMAP
00
ENDCHAR
STARTCHAR figuredash
ENCODING 8210
SWIDTH 497 0
DWIDTH 12 0
BBX 10 2 1 5
BITMAP
FFC0
FFC0
ENDCHAR
STARTCHAR endash
ENCODING 8211
SWIDTH 480 0
DWIDTH 12 0
BBX 10 2 1 5
BITMAP
FFC0
FFC0
ENDCHAR
STARTCHAR emdash
ENCODING 8212
SWIDTH 800 0
DWIDTH 19 0
BBX 17 2 1 5
BITMAP
FFFF80
FFFF80
ENDCHAR
STARTCHAR uni2015
ENCODING 8213
SWIDTH 800 0
DWIDTH 19 0
BBX 17 2 1 5
BITMAP
FFFF80
FFFF80
ENDCHAR
STARTCHAR uni2016
ENCODING 8214
SWIDTH 390 0
DWIDTH 9 0
BBX 5 24 2 -6
BITMAP
C8
C8
C8
C8
C8
C8
C8
C8
C8
C8
C8
C8
C8
C8
C8
C8
C8
C8
C8
C8
C8
C8
C8
C8
ENDCHAR
STARTCHAR quoteleft
ENCODING 8216
SWIDTH 249 0
DWIDTH 6 0
BBX 3 6 1 11
BITMAP
20
60
40
C0
E0
60
ENDCHAR
STARTCHAR quoteright
ENCODING 8217
SWIDTH 249 0
DWIDTH 6 0
BBX 3 6 2 11
BITMAP
C0
E0
60
40
C0
80
ENDCHAR
STARTCHAR quotesinglbase
ENCODING 8218
SWIDTH 249 0
DWIDTH 6 0
BBX 3 6 2 -3
BITMAP
C0
E0
60
40
C0
80
ENDCHAR
STARTCHAR quotedblleft
ENCODING 8220
SWIDTH 425 0
DWIDTH 10 0
BBX 8 6 1 11
BITMAP
22
67
44
C4
E6
66
ENDCHAR
STARTCHAR quotedblright
ENCODING 8221
SWIDTH 425 0
DWIDTH 10 0
BBX 7 6 2 11
BITMAP
CC
EE
66
46
CC
88
ENDCHAR
STARTCHAR quotedblbase
ENCODING 8222
SWIDTH 425 0
DWIDTH 10 0
BBX 7 6 2 -3
BITMAP
CC
EE
66
46
CC
88
ENDCHAR
STARTCHAR dagger
ENCODING 8224
SWIDTH 454 0
DWIDTH 11 0
BBX 9 19 1 -2
BITMAP
0800
0800
0800
FF80
FF80
0800
0800
0800
0800
0800
0800
0800
0800
0800
0800
0800
0800
0800
0800
ENDCHAR
STARTCHAR daggerdbl
ENCODING 8225
SWIDTH 454 0
DWIDTH 11 0
BBX 9 19 1 -2
BITMAP
0800
0800
0800
FF80
FF80
0800
0800
0800
0800
0800
0800
0800
0800
FF80
FF80
0800
0800
0800
0800
ENDCHAR
STARTCHAR bullet
ENCODING 8226
SWIDTH 304 0
DWIDTH 7 0
BBX 5 6 1 3
BITMAP
70
F8
F8
F8
F8
70
ENDCHAR
STARTCHAR ellipsis
ENCODING 8230
SWIDTH 948 0
DWIDTH 23 0
BBX 19 3 2 0
BITMAP
606060
E0E0E0
606060
ENDCHAR
STARTCHAR uni202F
ENCODING 8239
SWIDTH 125 0
DWIDTH 3 0
BBX 1 1 0 0
BITMAP
00
ENDCHAR
STARTCHAR perthousand
ENCODING 8240
SWIDTH 1194 0
DWIDTH 29 0
BBX 27 16 1 0
BITMAP
380C0000
7C080000
C6100000
C6100000
86200000
86600000
C6470780
C6CF87C0
7C98CCC0
3990C860
0110C860
0310C860
0210C860
0618CCC0
040F87C0
08070780
ENDCHAR
STARTCHAR uni2032
ENCODING 8242
SWIDTH 249 0
DWIDTH 6 0
BBX 2 6 2 11
BITMAP
C0
C0
C0
C0
C0
80
ENDCHAR
STARTCHAR uni2033
ENCODING 8243
SWIDTH 426 0
DWIDTH 10 0
BBX 7 6 2 11
BITMAP
C6
C4
C4
CC
CC
8C
ENDCHAR
STARTCHAR uni2035
ENCODING 8245
SWIDTH 249 0
DWIDTH 6 0
BBX 2 6 2 11
BITMAP
C0
C0
C0
C0
C0
40
ENDCHAR
STARTCHAR guilsinglleft
ENCODING 8249
SWIDTH 271 0
DWIDTH 7 0
BBX 4 9 1 2
BITMAP
10
30
60
C0
80
C0
60
30
10
ENDCHAR
STARTCHAR guilsinglright
ENCODING 8250
SWIDTH 271 0
DWIDTH 7 0
BBX 4 9 1 2
BITMAP
40
C0
20
30
10
30
20
40
C0
ENDCHAR
STARTCHAR uni203C
ENCODING 8252
SWIDTH 549 0
DWIDTH 13 0
BBX 9 16 2 0
BITMAP
C180
C180
4180
4180
4180
4180
4180
4180
4100
4100
4100
0000
0000
E180
E380
E180
ENDCHAR
STARTCHAR uni203D
ENCODING 8253
SWIDTH 432 0
DWIDTH 10 0
BBX 8 17 1 0
BITMAP
3C
7E
C7
83
13
13
12
16
1C
18
18
10
08
00
18
38
18
ENDCHAR
STARTCHAR uni203E
ENCODING 8254
SWIDTH 500 0
DWIDTH 12 0
BBX 12 2 0 13
BITMAP
FFF0
FFF0
ENDCHAR
STARTCHAR uni203F
ENCODING 8255
SWIDTH 0 0
DWIDTH 0 0
BBX 22 5 -11 -6
BITMAP
800008
E0001C
3C00F0
0FFFC0
01FE00
ENDCHAR
STARTCHAR fraction
ENCODING 8260
SWIDTH 86 0
DWIDTH 2 0
BBX 10 16 -4 0
BITMAP
00C0
0080
0180
0100
0300
0200
0600
0400
0800
1800
1000
3000
2000
6000
4000
C000
ENDCHAR
STARTCHAR uni2047
ENCODING 8263
SWIDTH 815 0
DWIDTH 20 0
BBX 17 17 1 0
BITMAP
3C1F00
7E3F80
C76180
030180
030180
030180
060180
0C0300
0C0600
180400
180C00
180C00
000000
000000
180C00
380E00
180C00
ENDCHAR
STARTCHAR uni2048
ENCODING 8264
SWIDTH 679 0
DWIDTH 16 0
BBX 13 17 1 0
BITMAP
3C00
7E18
C718
0318
0318
0318
0618
0C18
0C18
1818
1818
1818
0000
0000
1818
3838
1818
ENDCHAR
STARTCHAR uni2049
ENCODING 8265
SWIDTH 679 0
DWIDTH 16 0
BBX 13 17 2 0
BITMAP
01E0
C3F0
C638
4018
4018
4018
4030
4030
4060
40C0
40C0
40C0
0000
0000
E0C0
E1C0
E0C0
ENDCHAR
STARTCHAR zero.sups
ENCODING 8304
SWIDTH 367 0
DWIDTH 9 0
BBX 7 10 1 9
BITMAP
38
44
C6
86
86
86
86
C6
4C
38
ENDCHAR
STARTCHAR i.sups
ENCODING 8305
SWIDTH 166 0
DWIDTH 4 0
BBX 2 11 1 9
BITMAP
C0
C0
00
C0
C0
C0
C0
C0
C0
C0
C0
ENDCHAR
STARTCHAR four.sups
ENCODING 8308
SWIDTH 367 0
DWIDTH 9 0
BBX 7 9 1 9
BITMAP
0C
1C
2C
6C
CC
FE
0C
0C
0C
ENDCHAR
STARTCHAR five.sups
ENCODING 8309
SWIDTH 367 0
DWIDTH 9 0
BBX 7 9 1 9
BITMAP
7C
40
40
78
44
06
06
C4
78
ENDCHAR
STARTCHAR six.sups
ENCODING 8310
SWIDTH 367 0
DWIDTH 9 0
BBX 7 10 1 9
BITMAP
3C
64
40
C0
FC
C6
C6
C6
44
38
ENDCHAR
STARTCHAR seven.sups
ENCODING 8311
SWIDTH 367 0
DWIDTH 9 0
BBX 7 9 1 9
BITMAP
FE
04
0C
18
18
10
30
30
30
ENDCHAR
STARTCHAR eight.sups
ENCODING 8312
SWIDTH 367 0
DWIDTH 9 0
BBX 7 10 1 9
BITMAP
38
4C
C4
44
6C
38
CC
C6
C4
78
ENDCHAR
STARTCHAR nine.sups
ENCODING 8313
SWIDTH 367 0
DWIDTH 9 0
BBX 7 10 1 9
BITMAP
78
CC
84
86
C6
7E
06
04
8C
78
ENDCHAR
STARTCHAR parenleft.sups
ENCODING 8317
SWIDTH 237 0
DWIDTH 6 0
BBX 3 13 2 7
BITMAP
60
40
C0
80
80
80
80
80
80
80
C0
40
60
ENDCHAR
STARTCHAR parenright.sups
ENCODING 8318
SWIDTH 237 0
DWIDTH 6 0
BBX 3 13 1 7
BITMAP
80
C0
40
60
60
20
20
20
60
60
40
C0
80
ENDCHAR
STARTCHAR n.sups
ENCODING 8319
SWIDTH 369 0
DWIDTH 9 0
BBX 7 8 1 9
BITMAP
9C
E4
C6
C6
C6
C6
C6
C6
ENDCHAR
STARTCHAR zero.subs
ENCODING 8320
SWIDTH 367 0
DWIDTH 9 0
BBX 7 10 1 -4
BITMAP
38
44
C6
86
86
86
86
C6
4C
38
ENDCHAR
STARTCHAR one.subs
ENCODING 8321
SWIDTH 367 0
DWIDTH 9 0
BBX 4 9 2 -4
BITMAP
30
F0
30
30
30
30
30
30
30
ENDCHAR
STARTCHAR two.subs
ENCODING 8322
SWIDTH 367 0
DWIDTH 9 0
BBX 7 10 1 -4
BITMAP
78
CC
04
04
0C
0C
18
30
60
FE
ENDCHAR
STARTCHAR three.subs
ENCODING 8323
SWIDTH 367 0
DWIDTH 9 0
BBX 7 10 1 -4
BITMAP
78
CC
04
04
0C
38
3C
06
C4
78
ENDCHAR
STARTCHAR four.subs
ENCODING 8324
SWIDTH 367 0
DWIDTH 9 0
BBX 7 9 1 -4
BITMAP
0C
1C
2C
6C
CC
FE
0C
0C
0C
ENDCHAR
STARTCHAR five.subs
ENCODING 8325
SWIDTH 367 0
DWIDTH 9 0
BBX 7 9 1 -4
BITMAP
7C
40
40
78
44
06
06
C4
78
ENDCHAR
STARTCHAR six.subs
ENCODING 8326
SWIDTH 367 0
DWIDTH 9 0
BBX 7 10 1 -4
BITMAP
3C
64
40
C0
FC
C6
C6
C6
44
38
ENDCHAR
STARTCHAR seven.subs
ENCODING 8327
SWIDTH 367 0
DWIDTH 9 0
BBX 7 9 1 -4
BITMAP
FE
04
0C
18
18
10
30
30
30
ENDCHAR
STARTCHAR eight.subs
ENCODING 8328
SWIDTH 367 0
DWIDTH 9 0
BBX 7 10 1 -4
BITMAP
38
4C
C4
44
6C
38
CC
C6
C4
78
ENDCHAR
STARTCHAR nine.subs
ENCODING 8329
SWIDTH 367 0
DWIDTH 9 0
BBX 7 10 1 -4
BITMAP
78
CC
84
86
C6
7E
06
04
8C
78
ENDCHAR
STARTCHAR parenleft.subs
ENCODING 8333
SWIDTH 237 0
DWIDTH 6 0
BBX 3 13 2 -6
BITMAP
60
40
C0
80
80
80
80
80
80
80
C0
40
60
ENDCHAR
STARTCHAR parenright.subs
ENCODING 8334
SWIDTH 237 0
DWIDTH 6 0
BBX 3 13 1 -6
BITMAP
80
C0
40
60
60
20
20
20
60
60
40
C0
80
ENDCHAR
STARTCHAR uni0259.sups
ENCODING 8340
SWIDTH 336 0
DWIDTH 8 0
BBX 6 8 1 9
BITMAP
78
8C
04
04
FC
84
8C
78
ENDCHAR
STARTCHAR colonmonetary
ENCODING 8353
SWIDTH 497 0
DWIDTH 12 0
BBX 10 19 1 -2
BITMAP
0480
0480
0F80
3FC0
3540
6500
6500
6900
E900
E900
EA00
6A00
6A00
6A80
3AC0
3FC0
1F00
1200
1400
ENDCHAR
STARTCHAR lira
ENCODING 8356
SWIDTH 497 0
DWIDTH 12 0
BBX 10 15 1 0
BITMAP
0F00
1F80
30C0
3000
3000
3000
FF00
3000
7F00
FF00
1800
3000
3000
7FC0
FFC0
ENDCHAR
STARTCHAR uni20A6
ENCODING 8358
SWIDTH 497 0
DWIDTH 12 0
BBX 12 15 0 0
BITMAP
30C0
38C0
28C0
2CC0
2CC0
FFF0
FFF0
36C0
FFF0
FFF0
33C0
3340
3140
31C0
30C0
ENDCHAR
STARTCHAR peseta
ENCODING 8359
SWIDTH 497 0
DWIDTH 12 0
BBX 12 15 0 0
BITMAP
3F00
3F80
30C0
FFF0
FFF0
30C0
31C0
3F80
3F00
3000
3000
3000
3000
3000
3000
ENDCHAR
STARTCHAR uni20A9
ENCODING 8361
SWIDTH 497 0
DWIDTH 12 0
BBX 12 15 0 0
BITMAP
C030
C630
4620
4620
6620
6F60
6F60
FFF0
6960
2940
2940
2940
2940
39C0
30C0
ENDCHAR
STARTCHAR dong
ENCODING 8363
SWIDTH 497 0
DWIDTH 12 0
BBX 10 16 2 0
BITMAP
0300
0300
1FC0
0300
0300
7F00
C300
C300
8300
8300
C300
C300
7F00
1000
0000
FF80
ENDCHAR
STARTCHAR Euro
ENCODING 8364
SWIDTH 497 0
DWIDTH 12 0
BBX 11 15 1 0
BITMAP
0F80
1FC0
38E0
7000
6000
FF80
6000
6000
FF00
6000
6000
3040
38E0
1FC0
0F80
ENDCHAR
STARTCHAR uni20AE
ENCODING 8366
SWIDTH 497 0
DWIDTH 12 0
BBX 10 15 1 0
BITMAP
FFC0
FFC0
0C00
0C80
0D80
0E00
1C80
6D80
8E00
1C00
6C00
8C00
0C00
0C00
0C00
ENDCHAR
STARTCHAR uni20B1
ENCODING 8369
SWIDTH 497 0
DWIDTH 12 0
BBX 12 15 0 0
BITMAP
3E00
3F80
31C0
30C0
FFF0
30C0
FFF0
30C0
3180
3E00
3000
3000
3000
3000
3000
ENDCHAR
STARTCHAR uni20B2
ENCODING 8370
SWIDTH 497 0
DWIDTH 12 0
BBX 10 19 1 -2
BITMAP
0600
0600
0F00
3F80
70C0
6000
E000
C000
C000
C3C0
C3C0
C0C0
60C0
60C0
70C0
3FC0
1F00
0600
0600
ENDCHAR
STARTCHAR uni20B4
ENCODING 8372
SWIDTH 497 0
DWIDTH 12 0
BBX 10 15 1 0
BITMAP
1E00
3F00
6380
0180
0300
FFC0
1E00
1800
FFC0
6000
6000
6080
71C0
3F80
1E00
ENDCHAR
STARTCHAR uni20B5
ENCODING 8373
SWIDTH 497 0
DWIDTH 12 0
BBX 10 19 1 -2
BITMAP
0200
0200
0F80
1FC0
3AC0
6200
6200
6200
E200
E200
E200
6200
6200
6280
32C0
3FC0
0F00
0200
0200
ENDCHAR
STARTCHAR uni20B8
ENCODING 8376
SWIDTH 497 0
DWIDTH 12 0
BBX 10 15 1 0
BITMAP
FFC0
0000
0000
FFC0
0C00
0C00
0C00
0C00
0C00
0C00
0C00
0C00
0C00
0C00
0C00
ENDCHAR
STARTCHAR uni20B9
ENCODING 8377
SWIDTH 497 0
DWIDTH 12 0
BBX 9 15 2 0
BITMAP
FF80
FF80
0E00
0600
FF80
0600
0600
0E00
FC00
F000
3000
1800
0C00
0600
0700
ENDCHAR
STARTCHAR uni20BA
ENCODING 8378
SWIDTH 497 0
DWIDTH 12 0
BBX 10 15 1 0
BITMAP
3000
3000
3100
3600
3800
7100
B600
3800
70C0
B0C0
30C0
31C0
3380
3F00
3C00
ENDCHAR
STARTCHAR uni20BD
ENCODING 8381
SWIDTH 497 0
DWIDTH 12 0
BBX 10 15 0 0
BITMAP
3F00
3F80
31C0
30C0
30C0
30C0
3180
FF00
3000
3F80
FF80
3000
3000
3000
3000
ENDCHAR
STARTCHAR uni2113
ENCODING 8467
SWIDTH 409 0
DWIDTH 10 0
BBX 10 17 0 0
BITMAP
0F00
1F80
1980
1980
1980
1980
1980
1B00
1A00
1C00
1C00
3800
7800
D800
1880
1FC0
0F00
ENDCHAR
STARTCHAR uni2116
ENCODING 8470
SWIDTH 893 0
DWIDTH 21 0
BBX 20 15 1 0
BITMAP
7061C0
7067E0
787630
786430
686430
6C6630
6467E0
6663C0
626000
636000
6367E0
6167E0
61E000
E0E000
60E000
ENDCHAR
STARTCHAR uni2117
ENCODING 8471
SWIDTH 743 0
DWIDTH 18 0
BBX 16 17 1 0
BITMAP
07E0
1FF0
381C
300C
6006
47E2
C7F3
8633
8631
87F3
C7E3
4602
6606
360C
381C
1FF0
07E0
ENDCHAR
STARTCHAR uni2120
ENCODING 8480
SWIDTH 637 0
DWIDTH 15 0
BBX 14 7 1 9
BITMAP
730C
FB9C
D39C
73FC
9B6C
FB6C
730C
ENDCHAR
STARTCHAR trademark
ENCODING 8482
SWIDTH 637 0
DWIDTH 15 0
BBX 15 8 0 9
BITMAP
FC06
F1CE
31CE
31CE
31B6
31B6
3186
3186
ENDCHAR
STARTCHAR uni2126
ENCODING 8486
SWIDTH 678 0
DWIDTH 16 0
BBX 14 16 1 0
BITMAP
0FC0
1FE0
3870
7038
6018
601C
E00C
C00C
E00C
600C
6018
6018
3030
1860
FC7C
FC7C
ENDCHAR
STARTCHAR estimated
ENCODING 8494
SWIDTH 800 0
DWIDTH 19 0
BBX 17 16 1 0
BITMAP
03E000
0C1800
300600
200200
600300
E00300
E00380
E00380
FFFF80
E00000
600000
600000
200000
300600
0C1C00
03F000
ENDCHAR
STARTCHAR uni2150
ENCODING 8528
SWIDTH 804 0
DWIDTH 19 0
BBX 16 16 2 0
BITMAP
0030
6020
E040
20C0
2080
2180
2100
233F
2203
2606
0406
080C
080C
100C
3008
2008
ENDCHAR
ENDFONT
